<svg width="69" height="38" viewBox="0 0 69 38" fill="none" xmlns="http://www.w3.org/2000/svg">
<path d="M68.9004 28.1389C68.9004 28.1098 68.9004 28.0832 68.9004 28.0541C69.143 26.2573 68.9518 24.3491 68.2239 22.453C66.5645 18.1232 62.263 15.3868 57.7262 15.365C58.0105 15.1616 58.2997 14.9558 58.6698 14.6918C58.3586 14.4763 58.1086 14.3019 57.7875 14.0791C58.0105 13.9823 58.1085 13.9387 58.2066 13.8975C59.9909 13.1638 60.1429 12.7521 59.0007 11.2483C57.2507 8.94778 55.4615 6.67633 53.66 4.41214C53.3217 3.98594 53.16 3.62997 53.307 3.05847C53.6207 1.84525 53.0521 0.651408 51.9663 0C51.633 0.697419 51.2996 1.39484 50.9516 2.11647C50.6428 1.94212 50.3535 1.81862 50.106 1.63457C48.356 0.324493 46.5422 0.590869 44.7481 1.46991C44.204 1.73628 43.5103 2.0753 43.6133 2.85748C43.7187 3.67356 43.9711 4.39277 44.9442 4.71C46.5349 5.2258 48.1133 5.80456 49.6354 6.49229C50.6379 6.94513 51.6011 7.55052 52.4565 8.2431C53.1673 8.81944 52.9516 9.53623 52.0962 9.88978C51.8732 9.9818 51.6183 9.99633 51.3903 10.0835C51.1697 10.1658 50.9173 10.2482 50.7604 10.408C50.0104 11.1684 49.2236 11.0425 48.7923 10.0738C48.1207 8.56275 47.4466 7.05168 46.7432 5.47038C45.8584 5.82393 45.025 6.13632 44.2089 6.48745C43.6476 6.72961 43.0569 6.99114 43.4834 7.80479C43.3657 7.79511 43.3412 7.79995 43.3216 7.79026C42.9417 7.6038 42.5667 7.40523 42.1819 7.23088C39.0666 5.81909 35.8607 5.39531 32.5102 6.30583C29.7528 7.05652 27.5028 8.59907 25.4709 10.5267C25.1718 10.81 24.7356 11.0521 24.3311 11.1127C20.2036 11.7278 16.7109 10.5436 14.0197 7.34469C13.4119 6.62305 12.6937 6.2695 11.8285 6.07578C8.82358 5.40257 5.77207 5.53576 2.72546 5.5624C2.69605 5.5624 2.66909 5.61567 2.62497 5.65684C2.79164 5.86994 2.96076 6.08304 3.15929 6.33489C2.99508 6.40027 2.87007 6.4148 2.799 6.4826C2.5588 6.71508 2.3382 6.96692 2.11026 7.2115C2.36762 7.39796 2.59801 7.66918 2.88478 7.75152C3.33086 7.87744 3.82352 7.82659 4.27696 7.93556C4.63725 8.02031 5.02451 8.16561 5.30393 8.39566C6.83091 9.65731 8.2672 11.0352 9.85301 12.2169C11.3065 13.3018 12.9437 14.0937 14.858 14.0719C15.0663 14.0695 15.2894 14.176 15.4879 14.2704C17.3041 15.1277 19.1252 15.9801 20.9242 16.8688C21.2208 17.0141 21.4953 17.2902 21.6718 17.5735C22.4316 18.7988 23.1792 20.0338 23.8728 21.2979C24.113 21.7338 24.1816 22.2617 24.3409 22.7848C23.7135 22.9155 23.238 22.964 22.8017 23.1189C22.2502 23.3175 22.0419 23.1407 21.8336 22.6225C19.6203 17.111 13.2599 14.239 7.67161 16.2005C-0.235359 18.9756 -2.56382 28.5893 3.21322 34.6215C7.45592 39.0506 14.9462 39.1378 19.2575 34.7571C20.1791 33.82 20.9095 32.6939 21.76 31.6163C21.8556 31.6817 22.0615 31.7786 22.2086 31.9335C23.5346 33.3211 25.14 33.6553 27.0493 33.5875C32.4489 33.401 37.8534 33.3962 43.2554 33.3042C43.8927 33.2945 44.5299 33.1903 45.1476 33.1322C44.9 32.0013 44.6329 30.9988 44.4736 29.9817C44.2162 28.352 44.1402 26.7198 44.8167 25.1482C45.2358 24.1772 46.1108 23.257 46.8731 23.0027C46.8265 23.1722 46.7898 23.3151 46.7457 23.458C46.1697 25.3153 46.0814 27.2042 46.4662 29.1003C47.427 33.8296 51.7163 37.617 56.4664 37.9657C61.6159 38.3435 66.241 35.5708 68.0646 31.0254C68.4543 30.1416 68.7337 29.2044 68.8808 28.2309C68.8857 28.1994 68.8905 28.168 68.9004 28.1389ZM11.9413 34.5174C7.91181 34.8031 4.2696 31.9917 3.61273 28.2285C2.90439 24.1578 5.45589 20.2348 9.53193 19.2613C13.2722 18.3678 17.4095 20.523 18.5737 23.998C15.8482 24.5743 13.1276 25.1507 10.3408 25.7415C10.5246 26.7392 10.6986 27.6836 10.88 28.662C13.5933 28.5457 16.2502 28.4295 18.912 28.3157C18.6693 31.0182 15.8751 34.2365 11.9413 34.5174ZM22.314 29.7444C22.412 29.2214 22.51 28.6983 22.613 28.1607C23.3017 28.1268 23.9463 28.0711 24.5885 28.0784C24.7503 28.0808 24.9709 28.2455 25.0591 28.3956C25.2919 28.7879 25.466 29.2117 25.7209 29.7444C24.5664 29.7444 23.4806 29.7444 22.314 29.7444ZM61.562 33.2896C58.2311 35.2293 53.7065 34.3043 51.3217 31.0836C49.5766 28.7249 49.5202 25.7827 50.4148 23.6444C50.6501 23.1214 50.9418 22.6274 51.2825 22.1745C51.383 22.051 51.4908 21.9324 51.6011 21.821C53.2335 23.9011 54.8634 25.9764 56.5276 28.0953C57.4002 27.5989 58.2434 27.1194 59.1306 26.6133C57.8095 24.1796 56.5178 21.8016 55.2262 19.4212C55.9786 19.1911 56.7801 19.07 57.6134 19.0725C61.964 19.0943 65.4248 22.5644 65.4077 26.8845C65.4052 27.5626 65.3096 28.2188 65.1381 28.846C64.5694 30.6501 63.3366 32.2556 61.562 33.2896Z" fill="#AAACAF"/>
</svg>
