<svg width="84" height="30" viewBox="0 0 84 30" fill="none" xmlns="http://www.w3.org/2000/svg">
<path d="M0 16.4877C0.199555 16.0143 0.279376 15.4182 0.618619 15.0926C1.64882 14.1008 1.48668 12.8761 1.48169 11.6613C1.4792 11.1128 1.48169 10.5643 1.48169 10.0133C1.48169 8.26761 1.8359 7.84683 3.55955 7.60639C6.67759 7.17059 9.71581 6.45178 12.6268 5.20198C19.1672 2.39684 25.9246 0.458288 33.0787 0.0901126C38.0002 -0.162851 42.8893 0.0400208 47.5613 1.69556C50.8964 2.87522 54.1342 4.35794 57.342 5.86069C61.5775 7.84182 65.8555 9.53242 70.5151 10.3539C73.9 10.95 77.1727 12.2098 80.4828 13.2142C81.9296 13.6525 82.9673 14.5416 83.2342 16.1471C83.2966 16.5202 83.4687 16.8759 83.6034 17.234C84.3791 19.3104 83.9152 21.2765 83.0671 23.2025C82.9748 23.4129 82.8151 23.6608 82.6206 23.7535C80.7996 24.6251 78.8365 24.8455 76.841 25.0734C77.4845 19.7762 73.7803 16.1045 69.3801 16.0318C65.4738 15.9667 60.7843 19.4356 61.9642 25.687C49.3897 25.4316 36.8328 25.1786 24.2708 24.9231C24.62 19.7386 21.4945 16.9009 18.2143 16.1921C16.5506 15.834 14.8967 16.0394 13.3602 16.8333C10.5963 18.2609 9.26183 20.6303 9.07474 23.7209C7.11412 23.3528 5.27572 22.947 3.41987 22.6765C2.26993 22.5087 1.49915 21.8951 0.977817 20.9559C0.576214 20.2245 0.321782 19.408 0 18.6291C0 17.9153 0 17.2015 0 16.4877ZM53.7924 7.10297C49.0879 3.38115 43.2659 2.55714 37.1745 2.05121C37.631 3.94217 38.0451 5.66032 38.4616 7.37847C38.4691 7.40603 38.4816 7.43107 38.4866 7.45612C39.0129 9.55497 39.0129 9.52992 41.2105 9.58252C44.8449 9.67268 48.4768 9.79791 52.1087 9.90561C52.3781 9.91312 52.65 9.90561 52.7872 9.90561C53.1339 8.94635 53.4282 8.12484 53.7924 7.10297ZM34.7923 1.98609C32.5798 2.17644 30.4146 2.35927 28.2519 2.54962C28.0624 2.56715 27.8778 2.61474 27.6882 2.6448C24.6774 3.09562 23.9765 3.50638 22.7442 6.27145C22.4673 6.89008 22.9163 7.87689 23.1608 8.65331C23.2157 8.82863 23.8118 8.89125 24.1611 8.90377C27.7905 9.03151 31.4199 9.14171 35.0493 9.25441C35.3187 9.26193 35.5881 9.25441 35.9747 9.25441C35.5781 6.82246 35.2014 4.50571 34.7923 1.98609ZM19.1248 8.78355C19.3119 8.77854 19.5588 8.65832 19.6686 8.51055C20.7212 7.08794 21.7539 5.65031 22.6993 4.07742C22.0084 4.36796 21.3124 4.64346 20.6314 4.95403C19.4665 5.48751 18.3091 6.03351 17.1592 6.59955C16.3036 7.02032 15.8147 7.67903 15.9344 8.79607C17.0569 8.79607 18.0896 8.8086 19.1248 8.78355Z" fill="#AAACAF"/>
<path d="M23.066 23.6734C23.1109 27.1072 20.1625 30.02 16.6603 30C13.2404 29.98 10.3594 27.1272 10.3494 23.746C10.3394 20.172 13.1806 17.2917 16.7127 17.2992C20.2149 17.3042 23.0211 20.1194 23.066 23.6734ZM17.264 21.1087C17.2814 21.2865 17.4061 21.5345 17.5483 21.5971C17.6855 21.6572 17.9449 21.567 18.0871 21.4568C18.4289 21.1938 18.7332 20.8808 19.1872 20.4625C18.4837 20.1645 17.9375 19.934 17.249 19.6435C17.2515 20.2571 17.224 20.6854 17.264 21.1087ZM19.3044 26.7916C18.7731 26.3733 18.4264 26.0803 18.0547 25.8173C17.9225 25.7247 17.688 25.6245 17.5832 25.6821C17.4336 25.7622 17.2839 25.9776 17.2664 26.1479C17.2216 26.5762 17.2515 27.012 17.2515 27.6557C17.9399 27.3652 18.4713 27.1423 19.3044 26.7916ZM12.7341 23.0873C13.3103 23.0873 13.7593 23.1149 14.2058 23.0723C14.3804 23.0548 14.6024 22.9195 14.6872 22.7717C14.7471 22.6716 14.6423 22.4286 14.5475 22.2934C14.2856 21.9152 13.9913 21.557 13.5772 21.021C13.228 21.8776 13.006 22.4186 12.7341 23.0873ZM14.6049 24.9608C14.8967 24.5625 14.767 24.2795 14.2906 24.2344C13.8341 24.1918 13.3677 24.2244 12.759 24.2244C13.0085 24.8681 13.223 25.4266 13.5497 26.2757C13.9938 25.7272 14.3155 25.3565 14.6049 24.9608ZM20.6714 24.2244C20.0827 24.2244 19.6511 24.1969 19.2271 24.2369C19.0475 24.2545 18.8205 24.3747 18.7332 24.5199C18.6733 24.6201 18.7756 24.8731 18.8754 25.0083C19.1273 25.359 19.4167 25.6796 19.691 26.0152C19.7933 25.9851 19.8956 25.9551 19.9979 25.925C20.2049 25.3966 20.4169 24.8656 20.6714 24.2244ZM20.0053 21.4168C19.8582 21.4318 19.7808 21.4168 19.7584 21.4468C19.4067 21.8951 19.0624 22.351 18.7157 22.8043C19.2844 22.9395 19.8507 23.0723 20.4194 23.2075C20.4843 23.1174 20.5516 23.0297 20.6165 22.9395C20.4094 22.4261 20.2024 21.9102 20.0053 21.4168ZM14.4203 20.3748C14.3729 20.4725 14.3255 20.5677 14.2781 20.6654C14.6373 20.9409 14.9865 21.2314 15.3607 21.4869C15.4929 21.5771 15.7099 21.6572 15.8396 21.6096C15.9669 21.562 16.0966 21.3491 16.1065 21.2014C16.1415 20.748 16.119 20.2922 16.119 19.6686C15.468 19.9365 14.9441 20.1569 14.4203 20.3748ZM16.119 27.6256C16.119 27.017 16.1415 26.5537 16.1065 26.0953C16.0941 25.9451 15.9594 25.7297 15.8322 25.6871C15.7024 25.642 15.4829 25.7372 15.3582 25.8374C15.019 26.1104 14.7072 26.4159 14.2232 26.8567C14.9691 27.1598 15.4854 27.3677 16.119 27.6256Z" fill="#AAACAF"/>
<path d="M69.682 29.99C66.095 30.1077 63.1167 27.4078 63.0119 23.9464C62.9046 20.3573 65.5837 17.4295 69.0883 17.3092C72.6778 17.184 75.5339 19.8815 75.6612 23.5181C75.7809 26.8993 73.0245 29.8798 69.682 29.99ZM69.909 21.1262C69.9265 21.2991 70.0562 21.5495 70.1934 21.6021C70.338 21.6572 70.5875 21.557 70.7371 21.4493C71.0889 21.1989 71.4107 20.9033 71.9045 20.4901C71.1113 20.162 70.5576 19.9315 69.894 19.6535C69.894 20.2596 69.8691 20.6954 69.909 21.1262ZM67.1776 25.0284C67.2824 24.8856 67.3422 24.6402 67.2973 24.4774C67.2649 24.3622 67.0254 24.247 66.8683 24.2369C66.4168 24.2044 65.9603 24.2244 65.3666 24.2244C65.6385 24.8931 65.8605 25.4366 66.1674 26.1855C66.6089 25.6896 66.9207 25.3765 67.1776 25.0284ZM70.7272 25.8549C70.5775 25.7472 70.3306 25.6445 70.1859 25.6996C70.0487 25.7497 69.924 26.0027 69.9065 26.1755C69.8666 26.6063 69.894 27.0421 69.894 27.6432C70.5551 27.3677 71.1088 27.1373 71.8821 26.8142C71.3982 26.4084 71.0789 26.1104 70.7272 25.8549ZM66.7685 20.4926C67.2923 20.9234 67.6316 21.2264 67.9983 21.4919C68.128 21.5846 68.35 21.6572 68.4822 21.6096C68.6094 21.562 68.7416 21.3517 68.7516 21.2039C68.7865 20.748 68.7641 20.2872 68.7641 19.6661C68.1205 19.9315 67.5917 20.1494 66.7685 20.4926ZM66.8284 23.0748C67.003 23.0598 67.2524 22.932 67.3048 22.7943C67.3572 22.6515 67.2524 22.4061 67.1452 22.2558C66.8932 21.9027 66.6014 21.5796 66.1998 21.0937C65.873 21.8601 65.646 22.3936 65.3517 23.0898C65.9653 23.0873 66.3993 23.1149 66.8284 23.0748ZM73.3413 24.2244C72.7177 24.2244 72.2687 24.2119 71.8222 24.2269C71.2286 24.2495 71.2111 24.5851 71.4805 24.9833C71.7349 25.3615 72.0492 25.6996 72.4758 26.2306C72.82 25.4316 73.047 24.9057 73.3413 24.2244ZM68.7641 27.6482C68.7641 27.017 68.799 26.5362 68.7541 26.0628C68.7067 25.5669 68.4024 25.4917 68.0382 25.7798C67.679 26.0628 67.3522 26.3909 66.8683 26.8292C67.5742 27.1348 68.098 27.3602 68.7641 27.6482ZM72.598 21.244C72.1365 21.6948 71.7424 22.0104 71.4506 22.4061C71.3782 22.5038 71.6127 23.0197 71.7649 23.0523C72.2089 23.1424 72.6803 23.0848 73.289 23.0848C73.0545 22.4612 72.8574 21.9377 72.598 21.244Z" fill="#AAACAF"/>
</svg>
