<svg width="13" height="16" viewBox="0 0 13 16" fill="none" xmlns="http://www.w3.org/2000/svg">
<path d="M0.933053 3.54625C0.818332 3.54625 0.709026 3.5492 0.599721 3.54576C0.255064 3.53542 -0.00244433 3.27889 1.7503e-05 2.94999C0.00247934 2.6201 0.260972 2.36654 0.608583 2.36555C1.51306 2.3626 2.41803 2.36457 3.32251 2.36457C3.38898 2.36457 3.45594 2.36457 3.54555 2.36457C3.54555 1.99135 3.54555 1.63045 3.54555 1.27003C3.54555 0.496033 4.03989 0.00021883 4.81143 0.00021883C5.95618 0.00021883 7.10045 -0.000273537 8.2452 0.00021883C8.93845 0.000711197 9.45396 0.518682 9.45494 1.21587C9.45544 1.59056 9.45494 1.96526 9.45494 2.36457C9.53077 2.36457 9.59576 2.36457 9.66076 2.36457C10.5529 2.36457 11.4456 2.36407 12.3378 2.36457C12.7307 2.36506 12.999 2.60386 13.0005 2.95196C13.002 3.30105 12.7341 3.54329 12.3432 3.54674C12.2575 3.54723 12.1713 3.54674 12.0753 3.54674C12.065 3.59302 12.0507 3.63241 12.0487 3.67279C11.9719 5.20306 11.8966 6.73383 11.8203 8.26411C11.7385 9.90517 11.6553 11.5462 11.5731 13.1873C11.5564 13.5255 11.5352 13.8633 11.5249 14.2016C11.5052 14.8544 10.9897 15.3675 10.3387 15.368C7.77893 15.3695 5.21862 15.3695 2.6588 15.368C2.00888 15.3675 1.50371 14.852 1.47416 14.1991C1.40031 12.5886 1.31365 10.9785 1.2334 9.368C1.16644 8.02827 1.10046 6.68804 1.03399 5.34831C1.00642 4.78898 0.979828 4.22965 0.952256 3.67032C0.950779 3.63438 0.941424 3.59893 0.933053 3.54625ZM2.12754 3.5556C2.30528 7.10902 2.48204 10.6403 2.6588 14.1755C5.22896 14.1755 7.77893 14.1755 10.3427 14.1755C10.5199 10.6304 10.6967 7.09523 10.8735 3.5556C7.94485 3.5556 5.04924 3.5556 2.12754 3.5556ZM8.26539 1.19126C7.07829 1.19126 5.91187 1.19126 4.73807 1.19126C4.73807 1.58367 4.73807 1.96723 4.73807 2.35226C5.91975 2.35226 7.0906 2.35226 8.26539 2.35226C8.26539 1.96132 8.26539 1.58219 8.26539 1.19126Z" fill="white"/>
</svg>
