<svg width="17" height="20" viewBox="0 0 17 20" fill="none" xmlns="http://www.w3.org/2000/svg">
<path d="M16.0317 8.97244C16.0317 4.5628 12.4386 0.976746 8.02023 0.976746C3.6019 0.976746 0.00878906 4.5628 0.00878906 8.97244C0.00878906 12.8959 2.85119 16.156 6.58757 16.8366V19.9136H9.4529V16.8366C13.1893 16.156 16.0317 12.8959 16.0317 8.97244ZM9.4529 13.9026V8.4005H6.58757V13.9026C4.44431 13.2849 2.87411 11.3117 2.87411 8.97244C2.87411 6.14135 5.18356 3.83644 8.02023 3.83644C10.8569 3.83644 13.1664 6.14135 13.1664 8.97244C13.1664 11.3117 11.5962 13.2849 9.4529 13.9026Z" fill="white"/>
</svg>
