<svg width="159" height="132" viewBox="0 0 159 132" fill="none" xmlns="http://www.w3.org/2000/svg">
<path fill-rule="evenodd" clip-rule="evenodd" d="M135.886 49.2247L158.829 53.9811C158.829 53.9811 160.595 68.171 152.778 81.5596C145.992 93.1873 129.383 85.3563 129.383 85.3563L32.1722 82.559L20.878 87.1569C20.878 87.1569 9.01231 86.1915 7.50089 83.4933C5.60946 80.1214 -0.650516 70.1188 0.0551958 62.4265L8.1066 55.7817L44.5436 50.5865H55.435C55.435 50.5865 81.115 39.9271 81.5178 39.9271C81.9207 39.9271 98.3235 38.5936 98.3235 38.5936L110.963 43.6558C110.963 43.6558 124.141 48.851 124.678 49.1171C125.215 49.3833 135.886 49.2247 135.886 49.2247Z" fill="#000084"/>
<path fill-rule="evenodd" clip-rule="evenodd" d="M33.6866 78.1962L124.292 78.2132C124.292 78.2132 118.223 109.339 82.8635 125.859L77.8893 127.592C77.8893 127.592 33.7894 92.0181 32.8466 82.1599L33.6866 78.1962Z" fill="#000084"/>
<path d="M20.0552 44.7373L20.5095 53.0808L55.2979 51.8492L62.2893 50.3176L68.675 45.5866L77.9521 42.0562L98.7264 39.9243L108.072 41.1247C108.072 41.1247 115.869 42.7894 116.609 43.3897C117.349 43.9899 126.289 46.9881 126.289 46.9881L133.683 49.5871L138.281 50.6856L138.635 42.7668L133.146 24.6727L119.432 18.7442L88.9807 12.4137L57.8551 11.6153L34.5951 20.341L24.2409 26.3346L20.0552 44.7373Z" fill="#000084"/>
<path d="M120.563 72.7122L120.561 72.7037L120.546 72.7066L120.549 72.7151L120.563 72.7122Z" fill="black"/>
<path d="M118.138 62.2737V62.268H118.121V62.2737H118.138Z" fill="black"/>
<path d="M119.758 71.0786H119.772V71.0616H119.758V71.0786Z" fill="black"/>
<path d="M119.083 66.025L119.081 66.0165H119.066V66.0193L119.069 66.0306V66.0278V66.0306L119.083 66.025Z" fill="black"/>
<path d="M107.352 74.6488V74.6459L107.349 74.6516L107.363 74.6572L107.366 74.6516L107.352 74.6488Z" fill="black"/>
<path d="M110.635 62.3303V62.3359L110.649 62.3416L110.652 62.3331L110.635 62.3303Z" fill="black"/>
<path d="M115.555 60.6967H115.558V60.6825H115.555V60.6967Z" fill="black"/>
<path d="M111.946 74.963H111.938V74.9772H111.946V74.963Z" fill="black"/>
<path d="M114.786 72.3527H114.781V72.3696H114.786V72.3527Z" fill="black"/>
<path d="M115.489 70.7162L115.483 70.7247L115.498 70.7332L115.503 70.7219H115.501L115.489 70.7162Z" fill="black"/>
<path d="M51.2579 74.6488V74.6459L51.255 74.6516L51.2693 74.6572L51.2722 74.6516L51.2579 74.6488Z" fill="black"/>
<path d="M54.5436 62.3303L54.5408 62.3359L54.5551 62.3416L54.5579 62.3331L54.5436 62.3303Z" fill="black"/>
<path d="M59.4636 60.6967H59.4665V60.6825H59.4636V60.6967Z" fill="black"/>
<path d="M60.5636 63.2447L60.5664 63.2363L60.5522 63.2306L60.5493 63.2391L60.5636 63.2447Z" fill="black"/>
<path d="M58.0493 72.9189V72.9076H58.035V72.9189H58.0493Z" fill="black"/>
<path d="M58.8007 74.3939L58.7921 74.3854L58.7836 74.3996L58.7921 74.4053L58.8007 74.3939Z" fill="black"/>
<path d="M60.7036 74.963H60.6951V74.9772H60.7036V74.963Z" fill="black"/>
<path d="M70.5578 74.963H70.5521V74.9772H70.5578V74.963Z" fill="black"/>
<path d="M64.4264 73.386V73.3889V73.3945H64.4435V73.3889V73.3917L64.4264 73.3889V73.386V73.3889V73.386Z" fill="black"/>
<path d="M67.3893 62.3019L67.3865 62.3133L67.4036 62.3189L67.4065 62.3048L67.3893 62.3019Z" fill="black"/>
<path d="M70.3235 61.9453H70.3149V61.9594H70.3235V61.9453Z" fill="black"/>
<path d="M67.7264 73.3011L67.7293 73.2982L67.7122 73.2954V73.2982L67.7264 73.3011Z" fill="black"/>
<path d="M67.1578 73.689H67.1664V73.672H67.1578V73.689Z" fill="black"/>
<path d="M136.489 71.4212L136.483 71.4325L136.501 71.4354L136.503 71.424L136.489 71.4212Z" fill="black"/>
<path d="M137.569 71.3929V71.3901L137.563 71.3816V71.3759L137.549 71.3844V71.3872L137.555 71.3986V71.3957L137.569 71.3901V71.3929V71.3901V71.3929Z" fill="black"/>
<path d="M138.723 74.6459L138.718 74.6318L138.703 74.6374L138.706 74.6516H138.709H138.706L138.723 74.6459Z" fill="black"/>
<path d="M137.029 69.4903V69.4931V69.5016V69.5073L137.046 69.5045V69.4988V69.4931V69.496L137.029 69.4931V69.4903V69.4931V69.4903Z" fill="black"/>
<path d="M137.055 69.3969V69.3997V69.4026V69.4082L137.052 69.4111L137.069 69.4139V69.4111V69.4054V69.3997V69.4026L137.055 69.3997V69.3969V69.3997V69.3969Z" fill="black"/>
<path d="M138.949 62.3019L138.946 62.3104L138.963 62.3133V62.3048L138.949 62.3019Z" fill="black"/>
<path d="M142.269 62.2142V62.2057V62.2H142.252V62.2085V62.2142H142.269Z" fill="black"/>
<path d="M142.241 62.3048L142.238 62.3104L142.241 62.3048L142.246 62.3019L142.249 62.2963L142.232 62.2878V62.2906L142.229 62.2934L142.226 62.2991L142.223 62.3019V62.2991H142.226L142.223 62.3019L142.241 62.3048Z" fill="black"/>
<path d="M140.346 69.4026V69.3913L140.332 69.3884L140.329 69.3969V69.3998V69.3969L140.346 69.4026Z" fill="black"/>
<path fill-rule="evenodd" clip-rule="evenodd" d="M45.7122 29.8849L47.995 34.4686L53.0978 35.2047L49.4036 38.772L50.2779 43.8087L45.7122 41.4305L41.1465 43.8087L42.0179 38.772L38.3236 35.2047L43.4293 34.4686L45.7122 29.8849Z" fill="url(#paint0_linear_211_4535)"/>
<path fill-rule="evenodd" clip-rule="evenodd" d="M60.2692 25.8307L62.1007 29.5084L66.1949 30.0973L63.2321 32.9596L63.9321 37.0025L60.2692 35.0943L56.6064 37.0025L57.3035 32.9596L54.3407 30.0973L58.4378 29.5084L60.2692 25.8307Z" fill="url(#paint1_linear_211_4535)"/>
<path fill-rule="evenodd" clip-rule="evenodd" d="M73.8321 24.4972L75.2406 27.3284L78.3921 27.7814L76.1121 29.984L76.6492 33.0927L73.8321 31.6233L71.0149 33.0927L71.5521 29.984L69.2721 27.7814L72.4235 27.3284L73.8321 24.4972Z" fill="url(#paint2_linear_211_4535)"/>
<path d="M86.5407 69.7423H86.5264V69.7593H86.5407V69.7423Z" fill="black"/>
<path d="M131.638 60.6401H131.641V60.6259H131.638V60.6401Z" fill="black"/>
<path d="M131.881 61.3309L131.875 61.3252L131.863 61.3365L131.869 61.3422L131.881 61.3309Z" fill="black"/>
<path d="M132.383 62.1576V62.1547H132.369V62.1576H132.383Z" fill="black"/>
<path d="M136.489 71.4212L136.483 71.4325L136.501 71.4354L136.503 71.424L136.489 71.4212Z" fill="black"/>
<path d="M137.569 71.3929V71.3901L137.563 71.3816V71.3759L137.549 71.3844V71.3872L137.555 71.3986V71.3957L137.569 71.3901V71.3929V71.3901V71.3929Z" fill="black"/>
<path d="M138.723 74.6459L138.718 74.6318L138.703 74.6374L138.706 74.6516H138.709H138.706L138.723 74.6459Z" fill="black"/>
<path d="M137.029 69.4903V69.4931V69.5016V69.5073L137.046 69.5045V69.4988V69.4931V69.496L137.029 69.4931V69.4903V69.4931V69.4903Z" fill="black"/>
<path d="M137.055 69.3969V69.3997V69.4026V69.4082L137.052 69.4111L137.069 69.4139V69.4111V69.4054V69.3997V69.4026L137.055 69.3997V69.3969V69.3997V69.3969Z" fill="black"/>
<path d="M138.949 62.3019L138.946 62.3104L138.963 62.3133V62.3048L138.949 62.3019Z" fill="black"/>
<path d="M142.269 62.2142V62.2057V62.2H142.252V62.2085V62.2142H142.269Z" fill="black"/>
<path d="M142.24 62.3048L142.238 62.3104L142.24 62.3048L142.246 62.3019L142.249 62.2963L142.232 62.2878V62.2906L142.229 62.2934L142.226 62.2991V62.3019V62.2991V62.3019L142.24 62.3048Z" fill="black"/>
<path d="M140.346 69.4026V69.3913L140.332 69.3884V69.3969V69.3998V69.3969L140.346 69.4026Z" fill="black"/>
<path d="M118.949 72.7122V72.7037L118.932 72.7066L118.935 72.7151L118.949 72.7122Z" fill="black"/>
<path d="M127.663 74.7082V74.7138H127.68V74.7082H127.663Z" fill="black"/>
<path d="M127.663 74.6487V74.6516H127.68V74.6487H127.663Z" fill="black"/>
<path d="M124.032 60.6401H124.035V60.6259H124.032V60.6401Z" fill="black"/>
<path d="M116.526 62.2737V62.268H116.509V62.2737H116.526Z" fill="black"/>
<path d="M118.143 71.0786H118.158V71.0616H118.143V71.0786Z" fill="black"/>
<path d="M117.469 66.025V66.0165H117.452V66.0193L117.455 66.0306V66.0278V66.0306L117.469 66.025Z" fill="black"/>
<path d="M129.449 74.963H129.443V74.9772H129.449V74.963Z" fill="black"/>
<path d="M77.0607 62.7125V62.721H77.0778V62.7125H77.0607Z" fill="black"/>
<path d="M85.7035 62.3019L85.7007 62.3133L85.715 62.3189L85.7178 62.3048L85.7035 62.3019Z" fill="black"/>
<path d="M78.8835 63.2447L78.8863 63.2362L78.8692 63.2334L78.8663 63.2391L78.8835 63.2447Z" fill="black"/>
<path d="M77.8464 67.1744L77.8492 67.1602L77.8349 67.1574L77.8292 67.1687L77.8464 67.1744Z" fill="black"/>
<path d="M77.7579 67.701V67.6925H77.7407V67.701H77.7579Z" fill="black"/>
<path d="M78.5093 69.1733L78.5036 69.1676L78.495 69.1818L78.5007 69.1846L78.5093 69.1733Z" fill="black"/>
<path d="M80.4149 69.7423H80.4064V69.7593H80.4149V69.7423Z" fill="black"/>
<path d="M86.5407 69.7423H86.5264V69.7593H86.5407V69.7423Z" fill="black"/>
<path d="M86.0435 73.3011V73.2982L86.0292 73.2954L86.0264 73.2982L86.0435 73.3011Z" fill="black"/>
<path d="M85.475 73.689H85.4836V73.672H85.475V73.689Z" fill="black"/>
<path d="M78.1949 73.689H78.2035V73.672H78.1949V73.689Z" fill="black"/>
<path d="M91.4178 74.2042L91.4064 74.2099L91.4149 74.2212L91.4264 74.2156L91.4178 74.2042Z" fill="black"/>
<path d="M92.8634 72.3583L92.8606 72.3697L92.8749 72.3753L92.8806 72.364V72.3668V72.364L92.8634 72.3583Z" fill="black"/>
<path d="M93.9893 67.9048V67.9162L94.0064 67.919V67.9048H93.9893Z" fill="black"/>
<path d="M93.2378 66.4298L93.2464 66.4355L93.2578 66.4242L93.2464 66.4185L93.2378 66.4298Z" fill="black"/>
<path d="M91.332 65.8607H91.3463V65.8438H91.332V65.8607Z" fill="black"/>
<path d="M105.738 74.6488V74.6459L105.735 74.6516L105.749 74.6572L105.752 74.6516L105.738 74.6488Z" fill="black"/>
<path d="M109.021 62.3303V62.3359L109.035 62.3416L109.038 62.3331L109.021 62.3303Z" fill="black"/>
<path d="M113.941 60.6967H113.946V60.6825H113.941V60.6967Z" fill="black"/>
<path d="M98.0806 61.9735H98.0778V61.9877H98.0806V61.9735Z" fill="black"/>
<path d="M102.075 61.9735H102.072V61.9877H102.075V61.9735Z" fill="black"/>
<path d="M102.469 62.2736V62.2651H102.452V62.2736H102.469Z" fill="black"/>
<path d="M102.466 62.3331H102.469V62.3303H102.452V62.3331V62.3303L102.469 62.3331H102.466H102.469H102.466Z" fill="black"/>
<path d="M99.1548 74.6516V74.6402L99.1405 74.6374L99.1377 74.6487L99.1548 74.6516Z" fill="black"/>
<path d="M110.332 74.963H110.323V74.9772H110.332V74.963Z" fill="black"/>
<path d="M113.172 72.3527H113.166V72.3696H113.172V72.3527Z" fill="black"/>
<path d="M113.875 70.7162L113.869 70.7247L113.883 70.7332L113.889 70.7219L113.875 70.7162Z" fill="black"/>
<path fill-rule="evenodd" clip-rule="evenodd" d="M118.103 53.8141C103.766 53.6753 77.8406 53.6753 63.4893 53.8141C71.7178 49.2672 79.3806 45.8726 88.7035 44.3636C108.426 41.1643 69.0692 49.5701 118.103 53.8141Z" fill="url(#paint3_linear_211_4535)"/>
<path d="M63.5436 100.582C63.6522 100.679 63.7579 100.769 63.855 100.866C64.9979 101.958 66.3065 102.816 67.7093 103.544C69.1893 104.308 70.7436 104.889 72.3522 105.316C73.575 105.642 74.8179 105.865 76.075 106.013C77.5436 106.185 79.015 106.214 80.4893 106.157C82.1521 106.095 83.795 105.86 85.415 105.472C87.0807 105.073 88.6921 104.523 90.2321 103.776C91.8807 102.978 93.4007 101.989 94.7093 100.701C94.7321 100.679 94.7578 100.662 94.8321 100.599C94.7835 100.916 94.6835 101.16 94.5864 101.401C94.1007 102.598 93.3407 103.606 92.415 104.501C90.5378 106.313 88.2864 107.482 85.8121 108.272C84.6893 108.631 83.5407 108.878 82.375 109.045C81.6693 109.147 80.9607 109.206 80.2464 109.237C79.5207 109.268 78.795 109.266 78.0664 109.234C76.3322 109.161 74.6322 108.881 72.9636 108.396C71.7722 108.051 70.6207 107.604 69.5207 107.029C67.655 106.052 65.995 104.824 64.7322 103.119C64.215 102.42 63.8093 101.664 63.5579 100.832C63.5379 100.755 63.4922 100.684 63.5436 100.582Z" fill="url(#paint4_linear_211_4535)"/>
<path d="M93.695 98.8186C93.6721 98.7535 93.6436 98.6912 93.6264 98.6261C93.5607 98.3628 93.6836 98.1306 93.9321 98.04C94.1978 97.9437 94.415 98.0258 94.5435 98.2835C94.6921 98.5807 94.8121 98.8894 95.0378 99.1413C95.595 99.7614 96.2607 100.07 97.1121 99.8463C97.4407 99.7614 97.7064 99.8973 97.7893 100.186C97.8693 100.466 97.7121 100.744 97.3864 100.826C96.2464 101.112 95.2721 100.798 94.4493 99.9907C94.1121 99.6594 93.8607 99.2631 93.695 98.8186Z" fill="url(#paint5_linear_211_4535)"/>
<path d="M64.415 98.8186C64.4379 98.7535 64.4665 98.6912 64.4836 98.6261C64.5493 98.3628 64.4265 98.1306 64.1779 98.04C63.9122 97.9437 63.695 98.0258 63.5665 98.2835C63.4179 98.5807 63.2979 98.8894 63.0722 99.1413C62.515 99.7614 61.8493 100.07 60.9979 99.8463C60.6693 99.7614 60.4036 99.8973 60.3208 100.186C60.2408 100.466 60.3979 100.744 60.7236 100.826C61.8636 101.112 62.8379 100.798 63.6607 99.9907C63.9979 99.6594 64.2465 99.2631 64.415 98.8186Z" fill="url(#paint6_linear_211_4535)"/>
<path d="M136.012 46.9626C135.969 46.9513 135.929 46.9371 135.886 46.9258C134.438 46.4841 133.032 46.0312 131.663 45.5612C131.943 39.3581 131.935 33.1408 131.701 26.9377C131.652 25.6353 130.915 24.5453 129.763 24.0584C124.492 21.8359 119.083 19.9758 113.583 18.4724C102.412 15.4204 90.9035 13.8604 79.3692 13.6198H79.2464C61.9779 13.9822 44.9036 17.3003 28.8522 24.0584C27.7008 24.5453 26.9665 25.6353 26.9151 26.9377C26.7008 32.7104 26.678 38.4974 26.898 44.273C26.9437 45.5046 27.0008 46.7389 27.0722 47.9705C25.6237 48.1545 24.2123 48.364 22.8408 48.599C22.7923 48.6075 22.7408 48.616 22.6923 48.6245C22.6094 47.2344 22.5437 45.8443 22.4894 44.4542C22.2665 38.5597 22.2894 32.6538 22.5123 26.7536C22.6265 23.6365 24.4437 20.9327 27.2065 19.7691C43.7636 12.7959 61.3436 9.37301 79.1607 9.00212C79.2578 8.99929 79.3578 8.99929 79.4578 9.00212C91.3435 9.24844 103.186 10.8565 114.695 13.9992C120.375 15.5535 125.961 17.473 131.409 19.7691C134.172 20.9327 135.989 23.6365 136.103 26.7536C136.358 33.4862 136.352 40.2357 136.012 46.9626Z" fill="#000084" stroke="#000084" stroke-width="17.0079" stroke-miterlimit="10" stroke-linecap="round" stroke-linejoin="round"/>
<path d="M152.275 74.9659C151.772 79.5694 144.143 83.8048 139.818 85.0194C139.795 85.0279 139.775 85.0336 139.752 85.0392C138.681 85.3337 137.541 85.4894 136.352 85.4894C132.226 85.4894 127.838 83.6406 125.272 80.6254H124.166H124.123C124.092 80.6849 124.061 80.7472 124.029 80.8066C124.003 80.8576 123.826 81.2511 123.743 81.4295C123.732 81.4549 123.721 81.4776 123.712 81.4946C117.083 94.0594 107.861 105.245 96.5007 114.249C91.6207 118.116 86.3893 121.547 80.8893 124.483C79.8779 125.024 78.7379 125.024 77.7264 124.483C59.0522 114.509 44.1437 99.2461 34.6466 80.9963C34.6123 80.934 34.578 80.8689 34.5466 80.8066C34.5152 80.7472 34.4837 80.6849 34.4523 80.6254H33.3037C30.738 83.6406 26.3495 85.4894 22.2238 85.4894C21.0352 85.4894 19.8952 85.3337 18.8238 85.0392C14.4638 83.8416 8.61237 81.0558 8.10666 76.4296C8.06094 76.8373 8.03809 77.2506 8.03809 77.6697C8.03809 84.0228 14.4266 87.6213 20.9466 88.4197C24.1323 88.8104 29.258 87.6411 31.7466 85.6083C41.7151 103.606 56.7894 118.645 75.475 128.625C77.8893 129.916 80.7264 129.916 83.1436 128.625C88.895 125.551 94.3664 121.969 99.4692 117.921C110.746 108.983 120.018 97.9806 126.858 85.6338C129.343 87.6496 132.986 88.4536 136.183 88.4536C142.643 88.4536 152.343 82.5563 152.343 76.2031C152.343 75.7869 152.321 75.3736 152.275 74.9659Z" fill="#000084"/>
<path d="M79.3093 132C77.595 132 75.8836 131.584 74.3236 130.749C56.1722 121.055 41.1951 106.644 30.8723 88.9745C27.6408 90.526 23.4494 91.1574 20.6494 90.812C13.1637 89.8947 6.25806 86.1009 6.25806 78.2982C6.25806 77.7914 6.28377 77.2846 6.34091 76.792C6.59234 74.5836 7.88662 72.1035 8.20662 72.1686C8.30662 72.1885 9.14662 75.5321 9.85233 76.6646C11.5123 79.3287 15.5552 81.6446 19.4694 82.7205C20.3437 82.9611 21.2694 83.0829 22.2209 83.0829C25.698 83.0829 28.9294 80.9793 31.4437 79.0739C31.8494 78.7653 32.798 78.3095 33.3008 78.2189C33.5837 78.1679 34.1751 78.1339 34.4494 78.2189C35.0494 78.4057 36.6008 79.5099 36.6008 79.5099L36.718 79.7336C36.738 79.7704 36.758 79.81 36.778 79.8496L36.8008 79.8949C46.2294 98.0145 60.7779 112.7 78.875 122.365C79.1664 122.521 79.4407 122.521 79.7321 122.365C85.0864 119.506 90.2178 116.143 94.9806 112.369C106.032 103.612 114.966 92.8617 121.538 80.4159L121.675 80.1186C121.758 79.9346 121.838 79.7647 121.855 79.7307L121.972 79.5071C121.972 79.5071 123.523 78.4057 124.123 78.2189C124.398 78.1339 124.989 78.1679 125.272 78.2189C125.775 78.3095 126.723 78.7653 127.129 79.0739C129.643 80.9793 132.875 83.0829 136.352 83.0829C137.301 83.0829 138.226 82.9611 139.103 82.7205L139.155 82.7035C143.238 81.5568 148.709 77.7546 150.306 74.9658C151.995 72.0186 152.269 70.2519 152.375 70.2434C153.106 70.1925 153.978 73.5135 154.186 74.7478C154.269 75.2376 154.34 75.8322 154.34 76.339C154.34 84.4305 143.523 90.8629 136.183 90.8629C133.066 90.8629 130.112 90.2089 127.721 89.0227C120.792 100.88 111.806 111.228 100.989 119.803C95.8064 123.914 90.1921 127.598 84.3007 130.746C82.735 131.581 81.0207 132 79.3093 132ZM125.172 83.9039C125.072 84.0879 124.972 84.2691 124.872 84.4531L125.672 84.3003C125.501 84.17 125.335 84.037 125.172 83.9039ZM32.9351 84.2748L33.7323 84.4277C33.6323 84.2436 33.5323 84.0624 33.4323 83.8812C33.2723 84.0115 33.1065 84.1445 32.9351 84.2748ZM139.115 82.7148C139.072 82.7261 139.029 82.7403 138.98 82.7573L139.115 82.7148ZM139.175 82.7006C139.155 82.7063 139.135 82.7091 139.118 82.7148L139.175 82.7006ZM121.532 80.4329L121.523 80.4498L121.532 80.4329Z" fill="#000084"/>
<path fill-rule="evenodd" clip-rule="evenodd" d="M157.466 53.3328C149.029 53.9755 141.909 53.364 135.689 52.1098C134.195 51.8096 132.746 51.4727 131.341 51.1103C130.318 50.847 129.318 50.5696 128.335 50.2836C128.246 50.2582 128.158 50.2327 128.069 50.2044C106.932 43.9814 93.9378 33.1975 58.5779 53.6159C57.0036 53.7207 41.958 52.5203 27.4894 53.8198C26.018 53.9529 24.5523 54.1114 23.1066 54.3011C13.3466 55.5695 4.53236 58.2053 1.22666 63.4401C0.812372 59.2783 5.24379 56.7869 9.74949 54.6663C13.3266 52.9846 17.8066 51.7615 22.8409 50.898C24.258 50.6545 25.718 50.4394 27.2152 50.2525C28.2123 50.1251 29.2237 50.0118 30.2494 49.9099C30.3523 49.8986 30.4551 49.8873 30.558 49.8759C38.7237 49.0719 47.7408 48.9417 56.4694 49.1342C92.5264 29.2423 106.166 38.5229 127.872 46.5125C128.095 46.5974 128.323 46.6795 128.549 46.7616C129.532 47.1212 130.532 47.4751 131.552 47.8233C132.955 48.3046 134.398 48.7718 135.886 49.2248C142.098 51.1047 148.609 52.4835 157.466 53.3328Z" fill="#000084"/>
<path d="M0.366637 67.0697L0.0180664 63.5562C0.409494 58.4771 4.51234 55.7959 9.22947 53.5763C12.7123 51.937 17.2237 50.6375 22.6351 49.7089C24.058 49.4654 25.5466 49.2446 27.0637 49.0549C28.0351 48.9303 29.0666 48.8142 30.1294 48.7095L30.4237 48.6755C37.638 47.9649 46.2922 47.7101 56.1665 47.9196C88.7464 30.0265 103.306 35.6974 121.729 42.8716C123.846 43.6954 126.032 44.5476 128.295 45.38C128.483 45.4508 128.658 45.5159 128.835 45.5782L128.969 45.6263C129.955 45.9859 130.958 46.3398 131.949 46.6795C133.349 47.1608 134.795 47.628 136.243 48.0696C142.975 50.1081 150.803 52.1579 158.829 52.9279L158.955 54.5757C151.166 55.1702 142.538 54.7144 135.446 53.2847C134.006 52.9959 132.521 52.6533 131.035 52.2711C130.069 52.022 129.072 51.7473 127.992 51.4331C127.901 51.4076 127.803 51.3793 127.709 51.3481C124.312 50.3459 121.123 49.2304 118.041 48.1517C102.146 42.5828 88.4178 37.7726 59.1893 54.6521L58.9436 54.7937L58.6608 54.8135C58.2493 54.8418 57.3836 54.8078 55.4665 54.7257C50.0094 54.4964 38.6551 54.0208 27.6008 55.0145C26.0894 55.1504 24.6323 55.3118 23.2694 55.4902C11.998 56.9595 4.92948 59.8473 2.25806 64.08L0.366637 67.0697ZM49.6636 50.261C42.538 50.261 36.1751 50.5328 30.678 51.0735L30.3837 51.1047C29.3323 51.2094 28.3208 51.3227 27.3694 51.4444C25.8866 51.6284 24.4323 51.8436 23.0466 52.0814C17.8523 52.9732 13.5523 54.2076 10.2695 55.7506C9.7409 55.9998 9.23233 56.2461 8.74947 56.4896C12.4723 54.9805 17.2152 53.8481 22.9494 53.1035C24.3437 52.9194 25.8351 52.7552 27.3808 52.6165C38.598 51.6086 50.0608 52.0899 55.5693 52.3192C56.7179 52.3674 57.7379 52.4098 58.2408 52.4127C88.2578 35.1594 102.438 40.1282 118.855 45.8811C121.912 46.9541 125.075 48.0611 128.418 49.0436L128.446 49.052C128.523 49.0775 128.598 49.0973 128.675 49.12C129.735 49.4286 130.706 49.6947 131.649 49.9382C133.095 50.3119 134.535 50.6432 135.935 50.9235C137.318 51.2009 138.706 51.4416 140.103 51.6397C138.578 51.2547 137.061 50.8329 135.535 50.3685C134.055 49.9184 132.583 49.4427 131.158 48.953C130.149 48.6104 129.132 48.248 128.132 47.8828L128.003 47.8375C127.815 47.7695 127.623 47.6987 127.438 47.628C125.169 46.7928 122.969 45.9349 120.843 45.1082C102.966 38.1463 88.8435 32.6453 57.0636 50.1789L56.7751 50.3374L56.4465 50.3289C54.1122 50.2864 51.8522 50.261 49.6636 50.261Z" fill="#000084"/>
<path fill-rule="evenodd" clip-rule="evenodd" d="M157.389 53.3639C148.952 54.0066 141.909 53.3639 135.689 52.1097C134.195 51.8096 132.746 51.4727 131.34 51.1103C130.318 50.847 129.318 50.5695 128.335 50.2836C128.246 50.2581 128.158 50.2326 128.069 50.2043C106.932 43.9814 93.9377 33.1974 58.5778 53.6159C57.0035 53.7206 41.9579 52.5202 27.4893 53.8197C26.0179 53.9528 24.5522 54.1113 23.1065 54.301C13.3465 55.5694 4.53227 58.2052 1.22656 63.4401C2.16942 59.6406 5.24369 56.7868 9.74939 54.6662C13.3265 52.9845 17.8065 51.7615 22.8408 50.8979C24.2579 50.6545 25.7179 50.4393 27.2151 50.2524C28.2122 50.125 29.2236 50.0118 30.2493 49.9099C30.3522 49.8985 30.455 49.8872 30.5579 49.8759C38.7236 49.0718 47.7407 48.9416 56.4692 49.1341C92.5263 29.2422 106.166 38.5228 127.872 46.5124C128.095 46.5974 128.323 46.6795 128.549 46.7616C129.532 47.1211 130.532 47.475 131.552 47.8233C132.955 48.3046 134.398 48.7717 135.886 49.2247C142.098 51.1046 149.092 52.6618 157.389 53.3639Z" fill="url(#paint7_linear_211_4535)"/>
<path d="M136.012 46.9626C135.969 46.9513 135.929 46.9371 135.886 46.9258C134.438 46.4841 133.032 46.0312 131.663 45.5612C131.943 39.3581 131.935 33.1408 131.701 26.9377C131.652 25.6353 130.915 24.5453 129.763 24.0584C124.492 21.8359 119.083 19.9758 113.583 18.4724C102.412 15.4204 90.9035 13.8604 79.3692 13.6198H79.2464C61.9779 13.9822 44.9036 17.3003 28.8522 24.0584C27.7008 24.5453 26.9665 25.6353 26.9151 26.9377C26.7008 32.7104 26.678 38.4974 26.898 44.273C26.9437 45.5046 27.0008 46.7389 27.0722 47.9705C25.6237 48.1545 24.2123 48.364 22.8408 48.599C22.7923 48.6075 22.7408 48.616 22.6923 48.6245C22.6094 47.2344 22.5437 45.8443 22.4894 44.4542C22.2665 38.5597 22.2894 32.6538 22.5123 26.7536C22.6265 23.6365 24.4437 20.9327 27.2065 19.7691C43.7636 12.7959 61.3436 9.37301 79.1607 9.00212C79.2578 8.99929 79.3578 8.99929 79.4578 9.00212C91.3435 9.24844 103.186 10.8565 114.695 13.9992C120.375 15.5535 125.961 17.473 131.409 19.7691C134.172 20.9327 135.989 23.6365 136.103 26.7536C136.358 33.4862 136.352 40.2357 136.012 46.9626Z" fill="url(#paint8_linear_211_4535)"/>
<path d="M152.275 74.9658C151.772 79.5693 144.143 83.8048 139.818 85.0193C139.795 85.0278 139.775 85.0335 139.752 85.0392C138.681 85.3336 137.541 85.4893 136.352 85.4893C132.226 85.4893 127.838 83.6406 125.272 80.6253H124.166H124.123C124.092 80.6848 124.061 80.7471 124.029 80.8065C124.003 80.8575 123.826 81.251 123.743 81.4294C123.732 81.4549 123.721 81.4775 123.712 81.4945C117.083 94.0593 107.861 105.245 96.5007 114.248C91.6207 118.116 86.3893 121.547 80.8893 124.483C79.8779 125.024 78.7379 125.024 77.7264 124.483C59.0522 114.509 44.1437 99.246 34.6466 80.9962C34.6123 80.9339 34.578 80.8688 34.5466 80.8065C34.5152 80.7471 34.4837 80.6848 34.4523 80.6253H33.3037C30.738 83.6406 26.3495 85.4893 22.2238 85.4893C21.0352 85.4893 19.8952 85.3336 18.8238 85.0392C14.4638 83.8416 8.61237 81.0557 8.10666 76.4295C8.06094 76.8372 8.03809 77.2506 8.03809 77.6696C8.03809 84.0228 14.4266 87.6212 20.9466 88.4196C24.1323 88.8103 29.258 87.641 31.7466 85.6082C41.7151 103.606 56.7894 118.645 75.475 128.625C77.8893 129.916 80.7264 129.916 83.1436 128.625C88.895 125.551 94.3664 121.969 99.4692 117.921C110.746 108.982 120.018 97.9805 126.858 85.6337C129.343 87.6495 132.986 88.4536 136.183 88.4536C142.643 88.4536 152.343 82.5562 152.343 76.203C152.343 75.7869 152.321 75.3735 152.275 74.9658Z" fill="url(#paint9_linear_211_4535)"/>
<path fill-rule="evenodd" clip-rule="evenodd" d="M79.5664 118.716L78.9035 118.373C70.155 113.838 62.2322 108.207 55.3007 101.698C50.9008 97.5671 46.9008 93.0797 43.3408 88.3007C42.1694 86.7266 41.0436 85.1156 39.9694 83.4792C41.5179 86.1575 43.1951 88.7622 44.9836 91.2848C53.7265 103.592 65.2721 113.94 78.9292 121.358L79.5635 121.7L80.2007 121.358C82.7464 119.976 85.2378 118.478 87.6607 116.881C90.0578 115.296 92.4064 113.592 94.7006 111.777C104.498 104.011 112.655 94.5718 118.852 84.0086C118.955 83.8359 119.058 83.6575 119.158 83.4848C114.849 90.0532 109.726 96.1572 103.881 101.653C101.209 104.164 98.3863 106.548 95.4178 108.796C93.0149 110.613 90.5549 112.315 88.0435 113.9C85.5035 115.5 82.8978 116.995 80.2292 118.379L79.5664 118.716Z" fill="url(#paint10_linear_211_4535)"/>
<path fill-rule="evenodd" clip-rule="evenodd" d="M128.195 43.6303C128.095 41.9684 127.032 33.1096 126.518 28.8827C124.338 27.9965 122.149 27.1783 119.958 26.4309C117.458 25.5787 114.958 24.8086 112.455 24.1235C107.155 22.6767 101.775 21.5782 96.3463 20.8081C90.7778 20.0182 85.1721 19.5737 79.5635 19.4548C71.275 19.6332 63.015 20.5194 54.8921 22.1728C47.3122 23.7214 39.8579 25.9382 32.6122 28.8827C32.0951 33.1096 31.1951 34.5705 30.6665 43.5963C30.5636 43.6077 30.0608 37.7981 30.0608 35.0688C30.0608 32.3424 30.1036 30.6408 30.1951 27.9456L30.2236 27.1047L30.9665 26.7961C38.5751 23.6478 46.4322 21.2866 54.4321 19.6558C62.6807 17.9713 71.0864 17.0738 79.5407 16.8954H79.5892C85.3092 17.0172 91.0149 17.4673 96.672 18.2686C102.192 19.05 107.669 20.1683 113.069 21.6433C115.658 22.3511 118.209 23.1354 120.715 23.9904C123.241 24.8539 125.726 25.7882 128.163 26.7961L128.903 27.1047L128.932 27.9456C129.003 33.7042 128.418 43.7152 128.195 43.6303Z" fill="url(#paint11_linear_211_4535)"/>
<path d="M45.475 80.3479H47.3835L48.775 83.9718L50.1807 80.3479H52.055L49.5492 86.1179H47.9664L45.475 80.3479Z" fill="white"/>
<path d="M52.1293 85.2232L53.0807 84.1672C53.6864 84.6173 54.3636 84.8551 55.075 84.8551C55.5321 84.8551 55.7778 84.7079 55.7778 84.4616V84.4446C55.7778 84.2068 55.575 84.0766 54.7407 83.8954C53.4321 83.6179 52.4207 83.2725 52.4236 82.0947V82.0777C52.4264 81.0132 53.3321 80.246 54.8093 80.246C55.855 80.246 56.6721 80.5064 57.3407 81.0076L56.4864 82.1287C55.9236 81.7607 55.3093 81.5653 54.7636 81.5653C54.3493 81.5653 54.1464 81.7295 54.1464 81.9334V81.9503C54.1464 82.2108 54.3578 82.3269 55.2093 82.5053C56.6235 82.7912 57.5035 83.2159 57.5007 84.2889V84.3059C57.4978 85.4752 56.5035 86.1716 55.0093 86.1716C53.9236 86.1716 52.8864 85.8545 52.1293 85.2232Z" fill="white"/>
<path d="M58.4292 83.5613L58.4349 80.345H60.1663L60.1606 83.5273C60.1606 84.354 60.6063 84.7475 61.2921 84.7475C61.9778 84.7475 62.4263 84.371 62.4292 83.5698L62.4349 80.345H64.1663L64.1606 83.5188C64.1578 85.3675 63.0206 86.1773 61.2721 86.1773C59.5235 86.1773 58.4263 85.3534 58.4292 83.5613Z" fill="white"/>
<path d="M65.3549 80.3479H68.2663C69.2063 80.3479 69.8577 80.5772 70.2691 80.9708C70.6291 81.2992 70.812 81.7408 70.812 82.3042V82.3212C70.812 83.1961 70.3091 83.7765 69.5434 84.0794L71.0091 86.0754H69.0406L67.8034 84.3399H67.0549L67.052 86.0754H65.3463L65.3549 80.3479ZM68.1806 83.097C68.7606 83.097 69.0949 82.8365 69.0949 82.4175V82.4005C69.0949 81.9504 68.7434 81.721 68.172 81.721H67.0549L67.052 83.097H68.1806Z" fill="white"/>
<path d="M71.8521 80.3479H76.8035L76.8006 81.6984H73.5378L73.5349 82.5647H76.4892L76.4863 83.8161H73.5321L73.5292 84.7249H76.8349L76.8321 86.0754H71.8378L71.8521 80.3479Z" fill="white"/>
<path d="M80.5034 80.3479H83.6606C84.4349 80.3479 84.9806 80.5291 85.3406 80.8632C85.5863 81.0925 85.7349 81.3954 85.7349 81.789V81.806C85.7349 82.4685 85.3292 82.862 84.7834 83.0828C85.5292 83.3122 86.0034 83.7057 86.0034 84.4814V84.4984C86.0006 85.4808 85.1377 86.0782 83.6692 86.0782H80.4949L80.5034 80.3479ZM83.4777 84.7985C83.9977 84.7985 84.2949 84.6117 84.2977 84.2748V84.2578C84.2977 83.9463 84.0349 83.7425 83.4634 83.7425H82.1634L82.1606 84.7985H83.4777ZM83.2349 82.6298C83.7549 82.6298 84.0434 82.4656 84.0434 82.1315V82.1146C84.0434 81.8031 83.7806 81.6248 83.2692 81.6248H82.1606L82.1577 82.6298H83.2349Z" fill="white"/>
<path d="M86.4921 85.2232L87.4435 84.1672C88.0492 84.6173 88.7263 84.8551 89.4378 84.8551C89.8949 84.8551 90.1406 84.7079 90.1406 84.4616V84.4446C90.1406 84.2068 89.9378 84.0766 89.1035 83.8954C87.7949 83.6179 86.7835 83.2725 86.7863 82.0947V82.0777C86.7892 81.0132 87.6949 80.246 89.1721 80.246C90.2178 80.246 91.0349 80.5064 91.7035 81.0076L90.8492 82.1287C90.2863 81.7607 89.6721 81.5653 89.1263 81.5653C88.7121 81.5653 88.5092 81.7295 88.5092 81.9334V81.9503C88.5092 82.2108 88.7206 82.3269 89.5721 82.5053C90.9863 82.7912 91.8663 83.2159 91.8635 84.2889V84.3059C91.8606 85.4752 90.8663 86.1716 89.372 86.1716C88.2835 86.1716 87.2463 85.8545 86.4921 85.2232Z" fill="white"/>
<path d="M92.7891 83.5613L92.7948 80.345H94.5262L94.5205 83.5273C94.5205 84.354 94.9662 84.7475 95.6519 84.7475C96.3376 84.7475 96.7862 84.371 96.7891 83.5698L96.7948 80.345H98.5262L98.5205 83.5188C98.5176 85.3675 97.3805 86.1773 95.6319 86.1773C93.8833 86.1773 92.7862 85.3534 92.7891 83.5613Z" fill="white"/>
<path d="M99.7149 80.3479H102.626C103.566 80.3479 104.218 80.5772 104.629 80.9708C104.989 81.2992 105.172 81.7408 105.172 82.3042V82.3212C105.172 83.1961 104.669 83.7765 103.903 84.0794L105.369 86.0754H103.401L102.163 84.3399H101.415L101.412 86.0754H99.7063L99.7149 80.3479ZM102.541 83.097C103.121 83.097 103.455 82.8365 103.455 82.4175V82.4005C103.455 81.9504 103.103 81.721 102.532 81.721H101.415L101.412 83.097H102.541Z" fill="white"/>
<path d="M106.212 80.3479H111.163L111.16 81.6984H107.898L107.895 82.5647H110.849L110.846 83.8161H107.892L107.889 84.7249H111.195L111.192 86.0754H106.198L106.212 80.3479Z" fill="white"/>
<path d="M45.475 80.3479H47.3835L48.775 83.9718L50.1807 80.3479H52.055L49.5492 86.1179H47.9664L45.475 80.3479Z" fill="url(#paint12_linear_211_4535)"/>
<path d="M52.1293 85.2232L53.0807 84.1672C53.6864 84.6173 54.3636 84.8551 55.075 84.8551C55.5321 84.8551 55.7778 84.7079 55.7778 84.4616V84.4446C55.7778 84.2068 55.575 84.0766 54.7407 83.8954C53.4321 83.6179 52.4207 83.2725 52.4236 82.0947V82.0777C52.4264 81.0132 53.3321 80.246 54.8093 80.246C55.855 80.246 56.6721 80.5064 57.3407 81.0076L56.4864 82.1287C55.9236 81.7607 55.3093 81.5653 54.7636 81.5653C54.3493 81.5653 54.1464 81.7295 54.1464 81.9334V81.9503C54.1464 82.2108 54.3578 82.3269 55.2093 82.5053C56.6235 82.7912 57.5035 83.2159 57.5007 84.2889V84.3059C57.4978 85.4752 56.5035 86.1716 55.0093 86.1716C53.9236 86.1716 52.8864 85.8545 52.1293 85.2232Z" fill="url(#paint13_linear_211_4535)"/>
<path d="M58.4292 83.5613L58.4349 80.345H60.1663L60.1606 83.5273C60.1606 84.354 60.6063 84.7475 61.2921 84.7475C61.9778 84.7475 62.4263 84.371 62.4292 83.5698L62.4349 80.345H64.1663L64.1606 83.5188C64.1578 85.3675 63.0206 86.1773 61.2721 86.1773C59.5235 86.1773 58.4263 85.3534 58.4292 83.5613Z" fill="url(#paint14_linear_211_4535)"/>
<path d="M65.3549 80.3479H68.2663C69.2063 80.3479 69.8577 80.5772 70.2691 80.9708C70.6291 81.2992 70.812 81.7408 70.812 82.3042V82.3212C70.812 83.1961 70.3091 83.7765 69.5434 84.0794L71.0091 86.0754H69.0406L67.8034 84.3399H67.0549L67.052 86.0754H65.3463L65.3549 80.3479ZM68.1806 83.097C68.7606 83.097 69.0949 82.8365 69.0949 82.4175V82.4005C69.0949 81.9504 68.7434 81.721 68.172 81.721H67.0549L67.052 83.097H68.1806Z" fill="url(#paint15_linear_211_4535)"/>
<path d="M71.8521 80.3479H76.8035L76.8006 81.6984H73.5378L73.5349 82.5647H76.4892L76.4863 83.8161H73.5321L73.5292 84.7249H76.8349L76.8321 86.0754H71.8378L71.8521 80.3479Z" fill="url(#paint16_linear_211_4535)"/>
<path d="M80.5034 80.3479H83.6606C84.4349 80.3479 84.9806 80.5291 85.3406 80.8632C85.5863 81.0925 85.7349 81.3954 85.7349 81.789V81.806C85.7349 82.4685 85.3292 82.862 84.7834 83.0828C85.5292 83.3122 86.0034 83.7057 86.0034 84.4814V84.4984C86.0006 85.4808 85.1377 86.0782 83.6692 86.0782H80.4949L80.5034 80.3479ZM83.4777 84.7985C83.9977 84.7985 84.2949 84.6117 84.2977 84.2748V84.2578C84.2977 83.9463 84.0349 83.7425 83.4634 83.7425H82.1634L82.1606 84.7985H83.4777ZM83.2349 82.6298C83.7549 82.6298 84.0434 82.4656 84.0434 82.1315V82.1146C84.0434 81.8031 83.7806 81.6248 83.2692 81.6248H82.1606L82.1577 82.6298H83.2349Z" fill="url(#paint17_linear_211_4535)"/>
<path d="M86.4921 85.2232L87.4435 84.1672C88.0492 84.6173 88.7263 84.8551 89.4378 84.8551C89.8949 84.8551 90.1406 84.7079 90.1406 84.4616V84.4446C90.1406 84.2068 89.9378 84.0766 89.1035 83.8954C87.7949 83.6179 86.7835 83.2725 86.7863 82.0947V82.0777C86.7892 81.0132 87.6949 80.246 89.1721 80.246C90.2178 80.246 91.0349 80.5064 91.7035 81.0076L90.8492 82.1287C90.2863 81.7607 89.6721 81.5653 89.1263 81.5653C88.7121 81.5653 88.5092 81.7295 88.5092 81.9334V81.9503C88.5092 82.2108 88.7206 82.3269 89.5721 82.5053C90.9863 82.7912 91.8663 83.2159 91.8635 84.2889V84.3059C91.8606 85.4752 90.8663 86.1716 89.372 86.1716C88.2835 86.1716 87.2463 85.8545 86.4921 85.2232Z" fill="url(#paint18_linear_211_4535)"/>
<path d="M92.7891 83.5613L92.7948 80.345H94.5262L94.5205 83.5273C94.5205 84.354 94.9662 84.7475 95.6519 84.7475C96.3376 84.7475 96.7862 84.371 96.7891 83.5698L96.7948 80.345H98.5262L98.5205 83.5188C98.5176 85.3675 97.3805 86.1773 95.6319 86.1773C93.8833 86.1773 92.7862 85.3534 92.7891 83.5613Z" fill="url(#paint19_linear_211_4535)"/>
<path d="M99.7149 80.3479H102.626C103.566 80.3479 104.218 80.5772 104.629 80.9708C104.989 81.2992 105.172 81.7408 105.172 82.3042V82.3212C105.172 83.1961 104.669 83.7765 103.903 84.0794L105.369 86.0754H103.401L102.163 84.3399H101.415L101.412 86.0754H99.7063L99.7149 80.3479ZM102.541 83.097C103.121 83.097 103.455 82.8365 103.455 82.4175V82.4005C103.455 81.9504 103.103 81.721 102.532 81.721H101.415L101.412 83.097H102.541Z" fill="url(#paint20_linear_211_4535)"/>
<path d="M106.212 80.3479H111.163L111.16 81.6984H107.898L107.895 82.5647H110.849L110.846 83.8161H107.892L107.889 84.7249H111.195L111.192 86.0754H106.198L106.212 80.3479Z" fill="url(#paint21_linear_211_4535)"/>
<path d="M55.7435 72.0242L58.7921 68.4994C60.6464 69.8697 62.7692 70.4388 64.7692 70.4388C65.7949 70.4388 66.2321 70.1783 66.2321 69.7281V69.68C66.2321 69.2072 65.6949 68.9467 63.8664 68.5928C60.0378 67.8369 56.6692 66.7724 56.6692 63.273V63.2249C56.6692 60.0795 59.2064 57.6447 63.9149 57.6447C67.2092 57.6447 69.6463 58.4006 71.6235 59.9153L68.8435 63.6524C67.2349 62.5171 65.3064 62.0217 63.7206 62.0217C62.8664 62.0217 62.4778 62.3048 62.4778 62.7068V62.7549C62.4778 63.2051 62.9406 63.4882 64.7464 63.8195C69.1121 64.6009 72.0406 65.8296 72.0406 69.1647V69.2129C72.0406 72.6896 69.0892 74.8186 64.5035 74.8186C61.0349 74.8158 57.915 73.8702 55.7435 72.0242Z" fill="white"/>
<path d="M73.6978 67.081V57.9532H79.5034V67.0102C79.5034 69.0685 80.6006 69.9433 82.1377 69.9433C83.6749 69.9433 84.772 69.1392 84.772 67.1291V57.9532H90.5777V66.9621C90.5777 72.6131 87.1863 74.8356 82.0892 74.8356C76.992 74.8356 73.6978 72.5678 73.6978 67.081Z" fill="white"/>
<path d="M92.8691 57.9532H101.212C104.238 57.9532 106.163 58.6865 107.358 59.8445C108.383 60.8382 108.918 62.067 108.918 63.7713V63.8195C108.918 66.2316 107.626 67.9105 105.552 68.8816L109.529 74.51H103.018L99.7977 69.7791H98.5777V74.51H92.8691V57.9532ZM101.041 65.8296C102.406 65.8296 103.235 65.2379 103.235 64.2215V64.1734C103.235 63.1088 102.381 62.5879 101.063 62.5879H98.5748V65.8268H101.041V65.8296Z" fill="white"/>
<path d="M110.801 57.9532H125.363V62.4945H116.412V64.1734H124.755V68.171H116.412V69.9688H125.486V74.51H110.801V57.9532Z" fill="white"/>
<path d="M55.7435 72.0242L58.7921 68.4994C60.6464 69.8697 62.7692 70.4388 64.7692 70.4388C65.7949 70.4388 66.2321 70.1783 66.2321 69.7281V69.68C66.2321 69.2072 65.6949 68.9467 63.8664 68.5928C60.0378 67.8369 56.6692 66.7724 56.6692 63.273V63.2249C56.6692 60.0795 59.2064 57.6447 63.9149 57.6447C67.2092 57.6447 69.6463 58.4006 71.6235 59.9153L68.8435 63.6524C67.2349 62.5171 65.3064 62.0217 63.7206 62.0217C62.8664 62.0217 62.4778 62.3048 62.4778 62.7068V62.7549C62.4778 63.2051 62.9406 63.4882 64.7464 63.8195C69.1121 64.6009 72.0406 65.8296 72.0406 69.1647V69.2129C72.0406 72.6896 69.0892 74.8186 64.5035 74.8186C61.0349 74.8158 57.915 73.8702 55.7435 72.0242Z" fill="url(#paint22_linear_211_4535)"/>
<path d="M73.6978 67.081V57.9532H79.5034V67.0102C79.5034 69.0685 80.6006 69.9433 82.1377 69.9433C83.6749 69.9433 84.772 69.1392 84.772 67.1291V57.9532H90.5777V66.9621C90.5777 72.6131 87.1863 74.8356 82.0892 74.8356C76.992 74.8356 73.6978 72.5678 73.6978 67.081Z" fill="url(#paint23_linear_211_4535)"/>
<path d="M92.8691 57.9532H101.212C104.238 57.9532 106.163 58.6865 107.358 59.8445C108.383 60.8382 108.918 62.067 108.918 63.7713V63.8195C108.918 66.2316 107.626 67.9105 105.552 68.8816L109.529 74.51H103.018L99.7977 69.7791H98.5777V74.51H92.8691V57.9532ZM101.041 65.8296C102.406 65.8296 103.235 65.2379 103.235 64.2215V64.1734C103.235 63.1088 102.381 62.5879 101.063 62.5879H98.5748V65.8268H101.041V65.8296Z" fill="url(#paint24_linear_211_4535)"/>
<path d="M110.801 57.9532H125.363V62.4945H116.412V64.1734H124.755V68.171H116.412V69.9688H125.486V74.51H110.801V57.9532Z" fill="url(#paint25_linear_211_4535)"/>
<path d="M32.5979 57.9532H38.9893L42.3064 67.248L45.6236 57.9532H51.9178L44.9893 74.6261H39.5265L32.5979 57.9532Z" fill="white"/>
<path d="M32.5979 57.9532H38.9893L42.3064 67.248L45.6236 57.9532H51.9178L44.9893 74.6261H39.5265L32.5979 57.9532Z" fill="url(#paint26_linear_211_4535)"/>
<defs>
<linearGradient id="paint0_linear_211_4535" x1="41.1799" y1="19.0124" x2="59.2902" y2="84.9141" gradientUnits="userSpaceOnUse">
<stop offset="0.00561798" stop-color="#75461C"/>
<stop offset="0.1629" stop-color="#FCEB7F"/>
<stop offset="0.2579" stop-color="#FABB51"/>
<stop offset="0.2865" stop-color="#FAAB42"/>
<stop offset="0.3427" stop-color="#915E25"/>
<stop offset="0.3989" stop-color="#DEA826"/>
<stop offset="0.6461" stop-color="#FDBF20"/>
<stop offset="0.7472" stop-color="#FCB61F"/>
<stop offset="0.7827" stop-color="#BD8219"/>
<stop offset="0.8156" stop-color="#895715"/>
<stop offset="0.8403" stop-color="#693D12"/>
<stop offset="0.8539" stop-color="#5D3311"/>
<stop offset="1" stop-color="#7E461D"/>
</linearGradient>
<linearGradient id="paint1_linear_211_4535" x1="56.0246" y1="14.9329" x2="74.1351" y2="80.8347" gradientUnits="userSpaceOnUse">
<stop offset="0.00561798" stop-color="#75461C"/>
<stop offset="0.1629" stop-color="#FCEB7F"/>
<stop offset="0.2579" stop-color="#FABB51"/>
<stop offset="0.2865" stop-color="#FAAB42"/>
<stop offset="0.3427" stop-color="#915E25"/>
<stop offset="0.3989" stop-color="#DEA826"/>
<stop offset="0.6461" stop-color="#FDBF20"/>
<stop offset="0.7472" stop-color="#FCB61F"/>
<stop offset="0.7827" stop-color="#BD8219"/>
<stop offset="0.8156" stop-color="#895715"/>
<stop offset="0.8403" stop-color="#693D12"/>
<stop offset="0.8539" stop-color="#5D3311"/>
<stop offset="1" stop-color="#7E461D"/>
</linearGradient>
<linearGradient id="paint2_linear_211_4535" x1="69.2217" y1="11.3062" x2="87.3321" y2="77.208" gradientUnits="userSpaceOnUse">
<stop offset="0.00561798" stop-color="#75461C"/>
<stop offset="0.1629" stop-color="#FCEB7F"/>
<stop offset="0.2579" stop-color="#FABB51"/>
<stop offset="0.2865" stop-color="#FAAB42"/>
<stop offset="0.3427" stop-color="#915E25"/>
<stop offset="0.3989" stop-color="#DEA826"/>
<stop offset="0.6461" stop-color="#FDBF20"/>
<stop offset="0.7472" stop-color="#FCB61F"/>
<stop offset="0.7827" stop-color="#BD8219"/>
<stop offset="0.8156" stop-color="#895715"/>
<stop offset="0.8403" stop-color="#693D12"/>
<stop offset="0.8539" stop-color="#5D3311"/>
<stop offset="1" stop-color="#7E461D"/>
</linearGradient>
<linearGradient id="paint3_linear_211_4535" x1="70.8184" y1="25.0117" x2="108.465" y2="80.2906" gradientUnits="userSpaceOnUse">
<stop offset="0.00561798"/>
<stop offset="0.2191" stop-color="#56656E"/>
<stop offset="0.427" stop-color="#D0D2D3"/>
<stop offset="0.6798" stop-color="#40525B"/>
<stop offset="1" stop-color="#262424"/>
</linearGradient>
<linearGradient id="paint4_linear_211_4535" x1="61.9412" y1="91.3126" x2="95.5519" y2="112.507" gradientUnits="userSpaceOnUse">
<stop offset="0.00561798" stop-color="#75461C"/>
<stop offset="0.1629" stop-color="#FCEB7F"/>
<stop offset="0.2579" stop-color="#FABB51"/>
<stop offset="0.2865" stop-color="#FAAB42"/>
<stop offset="0.3427" stop-color="#915E25"/>
<stop offset="0.3989" stop-color="#DEA826"/>
<stop offset="0.6461" stop-color="#FDBF20"/>
<stop offset="0.7472" stop-color="#FCB61F"/>
<stop offset="0.7977" stop-color="#DD9B1F"/>
<stop offset="0.8908" stop-color="#AA6D1E"/>
<stop offset="0.9611" stop-color="#8A511D"/>
<stop offset="1" stop-color="#7E461D"/>
</linearGradient>
<linearGradient id="paint5_linear_211_4535" x1="59.6744" y1="77.4965" x2="101.64" y2="103.96" gradientUnits="userSpaceOnUse">
<stop offset="0.00561798" stop-color="#75461C"/>
<stop offset="0.1629" stop-color="#FCEB7F"/>
<stop offset="0.2579" stop-color="#FABB51"/>
<stop offset="0.2865" stop-color="#FAAB42"/>
<stop offset="0.3427" stop-color="#915E25"/>
<stop offset="0.3989" stop-color="#DEA826"/>
<stop offset="0.6461" stop-color="#FDBF20"/>
<stop offset="0.7472" stop-color="#FCB61F"/>
<stop offset="0.7977" stop-color="#DD9B1F"/>
<stop offset="0.8908" stop-color="#AA6D1E"/>
<stop offset="0.9611" stop-color="#8A511D"/>
<stop offset="1" stop-color="#7E461D"/>
</linearGradient>
<linearGradient id="paint6_linear_211_4535" x1="58.7901" y1="97.1787" x2="86.3019" y2="114.527" gradientUnits="userSpaceOnUse">
<stop offset="0.00561798" stop-color="#75461C"/>
<stop offset="0.1629" stop-color="#FCEB7F"/>
<stop offset="0.2579" stop-color="#FABB51"/>
<stop offset="0.2865" stop-color="#FAAB42"/>
<stop offset="0.3427" stop-color="#915E25"/>
<stop offset="0.3989" stop-color="#DEA826"/>
<stop offset="0.6461" stop-color="#FDBF20"/>
<stop offset="0.7472" stop-color="#FCB61F"/>
<stop offset="0.7977" stop-color="#DD9B1F"/>
<stop offset="0.8908" stop-color="#AA6D1E"/>
<stop offset="0.9611" stop-color="#8A511D"/>
<stop offset="1" stop-color="#7E461D"/>
</linearGradient>
<linearGradient id="paint7_linear_211_4535" x1="-20.7977" y1="12.1651" x2="272.891" y2="150.314" gradientUnits="userSpaceOnUse">
<stop offset="0.00561798" stop-color="#75461C"/>
<stop offset="0.1629" stop-color="#FCEB7F"/>
<stop offset="0.2579" stop-color="#FABB51"/>
<stop offset="0.2865" stop-color="#FAAB42"/>
<stop offset="0.3427" stop-color="#915E25"/>
<stop offset="0.3989" stop-color="#DEA826"/>
<stop offset="0.6461" stop-color="#FDBF20"/>
<stop offset="0.7472" stop-color="#FCB61F"/>
<stop offset="0.7827" stop-color="#BD8219"/>
<stop offset="0.8156" stop-color="#895715"/>
<stop offset="0.8403" stop-color="#693D12"/>
<stop offset="0.8539" stop-color="#5D3311"/>
<stop offset="1" stop-color="#7E461D"/>
</linearGradient>
<linearGradient id="paint8_linear_211_4535" x1="-11.8459" y1="-6.86532" x2="281.843" y2="131.284" gradientUnits="userSpaceOnUse">
<stop offset="0.00561798" stop-color="#75461C"/>
<stop offset="0.1629" stop-color="#FCEB7F"/>
<stop offset="0.2579" stop-color="#FABB51"/>
<stop offset="0.2865" stop-color="#FAAB42"/>
<stop offset="0.3427" stop-color="#915E25"/>
<stop offset="0.3989" stop-color="#DEA826"/>
<stop offset="0.6461" stop-color="#FDBF20"/>
<stop offset="0.7472" stop-color="#FCB61F"/>
<stop offset="0.7827" stop-color="#BD8219"/>
<stop offset="0.8156" stop-color="#895715"/>
<stop offset="0.8403" stop-color="#693D12"/>
<stop offset="0.8539" stop-color="#5D3311"/>
<stop offset="1" stop-color="#7E461D"/>
</linearGradient>
<linearGradient id="paint9_linear_211_4535" x1="-31.4" y1="34.7047" x2="262.289" y2="172.854" gradientUnits="userSpaceOnUse">
<stop offset="0.00561798" stop-color="#75461C"/>
<stop offset="0.1629" stop-color="#FCEB7F"/>
<stop offset="0.2579" stop-color="#FABB51"/>
<stop offset="0.2865" stop-color="#FAAB42"/>
<stop offset="0.3427" stop-color="#915E25"/>
<stop offset="0.3989" stop-color="#DEA826"/>
<stop offset="0.6461" stop-color="#FDBF20"/>
<stop offset="0.7472" stop-color="#FCB61F"/>
<stop offset="0.7827" stop-color="#BD8219"/>
<stop offset="0.8156" stop-color="#895715"/>
<stop offset="0.8403" stop-color="#693D12"/>
<stop offset="0.8539" stop-color="#5D3311"/>
<stop offset="1" stop-color="#7E461D"/>
</linearGradient>
<linearGradient id="paint10_linear_211_4535" x1="39.5866" y1="108.279" x2="119.342" y2="85.3801" gradientUnits="userSpaceOnUse">
<stop offset="0.00561798" stop-color="#C4C5C7"/>
<stop offset="0.2753" stop-color="white"/>
<stop offset="0.4625" stop-color="#ABA9A9"/>
<stop offset="0.6555" stop-color="#AAB1B4"/>
</linearGradient>
<linearGradient id="paint11_linear_211_4535" x1="19.3175" y1="5.14182" x2="140.077" y2="66.5817" gradientUnits="userSpaceOnUse">
<stop offset="0.00561798" stop-color="#717171"/>
<stop offset="0.0801" stop-color="#959799"/>
<stop offset="0.1313" stop-color="#AAACAF"/>
<stop offset="0.3094" stop-color="#777777"/>
<stop offset="0.5403" stop-color="white"/>
<stop offset="0.5928" stop-color="#EAEAEA"/>
<stop offset="0.7013" stop-color="#B3B3B3"/>
<stop offset="0.8099" stop-color="#767676"/>
</linearGradient>
<linearGradient id="paint12_linear_211_4535" x1="44.9337" y1="78.4009" x2="107.159" y2="87.2398" gradientUnits="userSpaceOnUse">
<stop offset="0.00561798" stop-color="#C4C5C7"/>
<stop offset="0.2753" stop-color="white"/>
<stop offset="0.4884" stop-color="#B1B6B8"/>
<stop offset="0.6555" stop-color="#B6BDC0"/>
</linearGradient>
<linearGradient id="paint13_linear_211_4535" x1="44.9337" y1="78.4009" x2="107.159" y2="87.2399" gradientUnits="userSpaceOnUse">
<stop offset="0.00561798" stop-color="#C4C5C7"/>
<stop offset="0.2753" stop-color="white"/>
<stop offset="0.4884" stop-color="#B1B6B8"/>
<stop offset="0.6555" stop-color="#B6BDC0"/>
</linearGradient>
<linearGradient id="paint14_linear_211_4535" x1="44.9336" y1="78.4009" x2="107.159" y2="87.2398" gradientUnits="userSpaceOnUse">
<stop offset="0.00561798" stop-color="#C4C5C7"/>
<stop offset="0.2753" stop-color="white"/>
<stop offset="0.4884" stop-color="#B1B6B8"/>
<stop offset="0.6555" stop-color="#B6BDC0"/>
</linearGradient>
<linearGradient id="paint15_linear_211_4535" x1="44.9337" y1="78.4009" x2="107.159" y2="87.2398" gradientUnits="userSpaceOnUse">
<stop offset="0.00561798" stop-color="#C4C5C7"/>
<stop offset="0.2753" stop-color="white"/>
<stop offset="0.4884" stop-color="#B1B6B8"/>
<stop offset="0.6555" stop-color="#B6BDC0"/>
</linearGradient>
<linearGradient id="paint16_linear_211_4535" x1="44.9336" y1="78.4009" x2="107.159" y2="87.2399" gradientUnits="userSpaceOnUse">
<stop offset="0.00561798" stop-color="#C4C5C7"/>
<stop offset="0.2753" stop-color="white"/>
<stop offset="0.4884" stop-color="#B1B6B8"/>
<stop offset="0.6555" stop-color="#B6BDC0"/>
</linearGradient>
<linearGradient id="paint17_linear_211_4535" x1="44.9336" y1="78.4009" x2="107.159" y2="87.2399" gradientUnits="userSpaceOnUse">
<stop offset="0.00561798" stop-color="#C4C5C7"/>
<stop offset="0.2753" stop-color="white"/>
<stop offset="0.4884" stop-color="#B1B6B8"/>
<stop offset="0.6555" stop-color="#B6BDC0"/>
</linearGradient>
<linearGradient id="paint18_linear_211_4535" x1="44.9338" y1="78.4009" x2="107.159" y2="87.2398" gradientUnits="userSpaceOnUse">
<stop offset="0.00561798" stop-color="#C4C5C7"/>
<stop offset="0.2753" stop-color="white"/>
<stop offset="0.4884" stop-color="#B1B6B8"/>
<stop offset="0.6555" stop-color="#B6BDC0"/>
</linearGradient>
<linearGradient id="paint19_linear_211_4535" x1="44.9336" y1="78.4009" x2="107.159" y2="87.2398" gradientUnits="userSpaceOnUse">
<stop offset="0.00561798" stop-color="#C4C5C7"/>
<stop offset="0.2753" stop-color="white"/>
<stop offset="0.4884" stop-color="#B1B6B8"/>
<stop offset="0.6555" stop-color="#B6BDC0"/>
</linearGradient>
<linearGradient id="paint20_linear_211_4535" x1="44.9341" y1="78.4009" x2="107.159" y2="87.2397" gradientUnits="userSpaceOnUse">
<stop offset="0.00561798" stop-color="#C4C5C7"/>
<stop offset="0.2753" stop-color="white"/>
<stop offset="0.4884" stop-color="#B1B6B8"/>
<stop offset="0.6555" stop-color="#B6BDC0"/>
</linearGradient>
<linearGradient id="paint21_linear_211_4535" x1="44.9337" y1="78.4009" x2="107.159" y2="87.2398" gradientUnits="userSpaceOnUse">
<stop offset="0.00561798" stop-color="#C4C5C7"/>
<stop offset="0.2753" stop-color="white"/>
<stop offset="0.4884" stop-color="#B1B6B8"/>
<stop offset="0.6555" stop-color="#B6BDC0"/>
</linearGradient>
<linearGradient id="paint22_linear_211_4535" x1="35.8559" y1="50.3647" x2="144.889" y2="81.088" gradientUnits="userSpaceOnUse">
<stop offset="0.00561798" stop-color="#75461C"/>
<stop offset="0.1629" stop-color="#FCEB7F"/>
<stop offset="0.2491" stop-color="#FABB51"/>
<stop offset="0.2751" stop-color="#FAAB42"/>
<stop offset="0.36" stop-color="#B47433"/>
<stop offset="0.4581" stop-color="#DEA826"/>
<stop offset="0.5344" stop-color="#FDBF20"/>
<stop offset="0.6755" stop-color="#FCB61F"/>
<stop offset="0.766" stop-color="#BD8219"/>
<stop offset="0.8499" stop-color="#895715"/>
<stop offset="0.9128" stop-color="#693D12"/>
<stop offset="0.9475" stop-color="#5D3311"/>
<stop offset="1" stop-color="#7E461D"/>
</linearGradient>
<linearGradient id="paint23_linear_211_4535" x1="35.8559" y1="50.3647" x2="144.889" y2="81.088" gradientUnits="userSpaceOnUse">
<stop offset="0.00561798" stop-color="#75461C"/>
<stop offset="0.1629" stop-color="#FCEB7F"/>
<stop offset="0.2491" stop-color="#FABB51"/>
<stop offset="0.2751" stop-color="#FAAB42"/>
<stop offset="0.36" stop-color="#B47433"/>
<stop offset="0.4581" stop-color="#DEA826"/>
<stop offset="0.5344" stop-color="#FDBF20"/>
<stop offset="0.6755" stop-color="#FCB61F"/>
<stop offset="0.766" stop-color="#BD8219"/>
<stop offset="0.8499" stop-color="#895715"/>
<stop offset="0.9128" stop-color="#693D12"/>
<stop offset="0.9475" stop-color="#5D3311"/>
<stop offset="1" stop-color="#7E461D"/>
</linearGradient>
<linearGradient id="paint24_linear_211_4535" x1="35.8559" y1="50.3647" x2="144.889" y2="81.088" gradientUnits="userSpaceOnUse">
<stop offset="0.00561798" stop-color="#75461C"/>
<stop offset="0.1629" stop-color="#FCEB7F"/>
<stop offset="0.2491" stop-color="#FABB51"/>
<stop offset="0.2751" stop-color="#FAAB42"/>
<stop offset="0.36" stop-color="#B47433"/>
<stop offset="0.4581" stop-color="#DEA826"/>
<stop offset="0.5344" stop-color="#FDBF20"/>
<stop offset="0.6755" stop-color="#FCB61F"/>
<stop offset="0.766" stop-color="#BD8219"/>
<stop offset="0.8499" stop-color="#895715"/>
<stop offset="0.9128" stop-color="#693D12"/>
<stop offset="0.9475" stop-color="#5D3311"/>
<stop offset="1" stop-color="#7E461D"/>
</linearGradient>
<linearGradient id="paint25_linear_211_4535" x1="35.8559" y1="50.3647" x2="144.889" y2="81.0881" gradientUnits="userSpaceOnUse">
<stop offset="0.00561798" stop-color="#75461C"/>
<stop offset="0.1629" stop-color="#FCEB7F"/>
<stop offset="0.2491" stop-color="#FABB51"/>
<stop offset="0.2751" stop-color="#FAAB42"/>
<stop offset="0.36" stop-color="#B47433"/>
<stop offset="0.4581" stop-color="#DEA826"/>
<stop offset="0.5344" stop-color="#FDBF20"/>
<stop offset="0.6755" stop-color="#FCB61F"/>
<stop offset="0.766" stop-color="#BD8219"/>
<stop offset="0.8499" stop-color="#895715"/>
<stop offset="0.9128" stop-color="#693D12"/>
<stop offset="0.9475" stop-color="#5D3311"/>
<stop offset="1" stop-color="#7E461D"/>
</linearGradient>
<linearGradient id="paint26_linear_211_4535" x1="34.6292" y1="69.0442" x2="57.1366" y2="53.8813" gradientUnits="userSpaceOnUse">
<stop offset="0.00561798" stop-color="#C4C5C7"/>
<stop offset="0.2753" stop-color="white"/>
<stop offset="0.4884" stop-color="#B1B6B8"/>
<stop offset="0.6555" stop-color="#B6BDC0"/>
</linearGradient>
</defs>
</svg>
