<svg width="105" height="91" viewBox="0 0 105 91" fill="none" xmlns="http://www.w3.org/2000/svg">
<path fill-rule="evenodd" clip-rule="evenodd" d="M89.7362 35.7074L104.887 38.8655C104.887 38.8655 106.053 48.2869 100.891 57.1764C96.4097 64.8967 85.4418 59.6972 85.4418 59.6972L21.2458 57.84L13.7874 60.8928C13.7874 60.8928 5.95153 60.2518 4.95342 58.4603C3.70436 56.2215 -0.429586 49.5802 0.0364501 44.4729L5.35342 40.061L29.4156 36.6116H36.608C36.608 36.6116 53.5665 29.5342 53.8325 29.5342C54.0985 29.5342 64.9306 28.6489 64.9306 28.6489L73.2777 32.0099C73.2777 32.0099 81.9796 35.4593 82.3343 35.636C82.689 35.8127 89.7362 35.7074 89.7362 35.7074Z" fill="#000084"/>
<path fill-rule="evenodd" clip-rule="evenodd" d="M22.2459 54.9433L82.0797 54.9546C82.0797 54.9546 78.0721 75.6209 54.7212 86.5894L51.4363 87.7399C51.4363 87.7399 22.3138 64.1204 21.6912 57.575L22.2459 54.9433Z" fill="#000084"/>
<path d="M13.2439 32.728L13.5439 38.2677L36.5174 37.45L41.1344 36.4331L45.3513 33.292L51.4777 30.9479L65.1966 29.5324L71.3683 30.3294C71.3683 30.3294 76.5173 31.4347 77.006 31.8332C77.4947 32.2318 83.3984 34.2224 83.3984 34.2224L88.2814 35.9481L91.3173 36.6774L91.5512 31.4197L87.9267 19.406L78.8701 15.4697L58.7607 11.2665L38.2061 10.7365L22.8458 16.5299L16.008 20.5094L13.2439 32.728Z" fill="#000084"/>
<path d="M79.6173 51.3021L79.6154 51.2965L79.606 51.2984L79.6078 51.304L79.6173 51.3021Z" fill="black"/>
<path d="M78.0155 44.3714V44.3676H78.0042V44.3714H78.0155Z" fill="black"/>
<path d="M79.0852 50.2175H79.0946V50.2062H79.0852V50.2175Z" fill="black"/>
<path d="M78.64 46.8621L78.6381 46.8564H78.6287V46.8583L78.6305 46.8658V46.864V46.8658L78.64 46.8621Z" fill="black"/>
<path d="M70.8928 52.5879V52.5861L70.8909 52.5898L70.9003 52.5936L70.9022 52.5898L70.8928 52.5879Z" fill="black"/>
<path d="M73.0608 44.409V44.4128L73.0702 44.4165L73.0721 44.4109L73.0608 44.409Z" fill="black"/>
<path d="M76.3098 43.3243H76.3117V43.3149H76.3098V43.3243Z" fill="black"/>
<path d="M73.9268 52.7966H73.9211V52.806H73.9268V52.7966Z" fill="black"/>
<path d="M75.8024 51.0634H75.7986V51.0747H75.8024V51.0634Z" fill="black"/>
<path d="M76.2665 49.9769L76.2627 49.9826L76.2721 49.9882L76.2759 49.9807H76.274L76.2665 49.9769Z" fill="black"/>
<path d="M33.8495 52.5879V52.5861L33.8477 52.5898L33.8571 52.5936L33.859 52.5898L33.8495 52.5879Z" fill="black"/>
<path d="M36.0195 44.409L36.0176 44.4128L36.027 44.4165L36.0289 44.4109L36.0195 44.409Z" fill="black"/>
<path d="M39.2683 43.3243H39.2702V43.3149H39.2683V43.3243Z" fill="black"/>
<path d="M39.9948 45.0162L39.9967 45.0105L39.9872 45.0068L39.9854 45.0124L39.9948 45.0162Z" fill="black"/>
<path d="M38.3344 51.4393V51.4318H38.325V51.4393H38.3344Z" fill="black"/>
<path d="M38.8307 52.4187L38.825 52.4131L38.8193 52.4225L38.825 52.4263L38.8307 52.4187Z" fill="black"/>
<path d="M40.0872 52.7966H40.0815V52.806H40.0872V52.7966Z" fill="black"/>
<path d="M46.5948 52.7966H46.5911V52.806H46.5948V52.7966Z" fill="black"/>
<path d="M42.5457 51.7495V51.7514V51.7551H42.557V51.7514V51.7533L42.5457 51.7514V51.7495V51.7514V51.7495Z" fill="black"/>
<path d="M44.5024 44.3902L44.5005 44.3977L44.5118 44.4015L44.5137 44.3921L44.5024 44.3902Z" fill="black"/>
<path d="M46.44 44.1533H46.4343V44.1627H46.44V44.1533Z" fill="black"/>
<path d="M44.725 51.6931L44.7269 51.6913L44.7156 51.6894V51.6913L44.725 51.6931Z" fill="black"/>
<path d="M44.3496 51.9507H44.3553V51.9394H44.3496V51.9507Z" fill="black"/>
<path d="M90.1344 50.4449L90.1306 50.4525L90.1419 50.4543L90.1438 50.4468L90.1344 50.4449Z" fill="black"/>
<path d="M90.8474 50.4262V50.4243L90.8437 50.4187V50.4149L90.8342 50.4206V50.4224L90.838 50.43V50.4281L90.8474 50.4243V50.4262V50.4243V50.4262Z" fill="black"/>
<path d="M91.6096 52.5861L91.6059 52.5767L91.5964 52.5804L91.5983 52.5898H91.6002H91.5983L91.6096 52.5861Z" fill="black"/>
<path d="M90.491 49.163V49.1648V49.1705V49.1742L90.5023 49.1724V49.1686V49.1648V49.1667L90.491 49.1648V49.163V49.1648V49.163Z" fill="black"/>
<path d="M90.5077 49.101V49.1028V49.1047V49.1085L90.5059 49.1103L90.5172 49.1122V49.1103V49.1066V49.1028V49.1047L90.5077 49.1028V49.101V49.1028V49.101Z" fill="black"/>
<path d="M91.7587 44.3902L91.7568 44.3958L91.7681 44.3977V44.3921L91.7587 44.3902Z" fill="black"/>
<path d="M93.9513 44.3319V44.3263V44.3225H93.9399V44.3281V44.3319H93.9513Z" fill="black"/>
<path d="M93.9325 44.3921L93.9306 44.3958L93.9325 44.3921L93.9362 44.3902L93.9381 44.3864L93.9268 44.3808V44.3827L93.9249 44.3846L93.923 44.3883L93.9211 44.3902V44.3883H93.923L93.9211 44.3902L93.9325 44.3921Z" fill="black"/>
<path d="M92.6815 49.1047V49.0972L92.6721 49.0953L92.6702 49.1009V49.1028V49.1009L92.6815 49.1047Z" fill="black"/>
<path fill-rule="evenodd" clip-rule="evenodd" d="M30.1873 22.8666L31.6949 25.91L35.0647 26.3987L32.6251 28.7673L33.2024 32.1114L30.1873 30.5324L27.1722 32.1114L27.7477 28.7673L25.3081 26.3987L28.6798 25.91L30.1873 22.8666Z" fill="url(#paint0_linear_217_6465)"/>
<path fill-rule="evenodd" clip-rule="evenodd" d="M39.8006 20.1748L41.01 22.6166L43.7138 23.0076L41.7572 24.9081L42.2194 27.5924L39.8006 26.3255L37.3817 27.5924L37.8421 24.9081L35.8855 23.0076L38.5911 22.6166L39.8006 20.1748Z" fill="url(#paint1_linear_217_6465)"/>
<path fill-rule="evenodd" clip-rule="evenodd" d="M48.7572 19.2894L49.6873 21.1692L51.7685 21.47L50.2628 22.9324L50.6175 24.9965L48.7572 24.0208L46.8968 24.9965L47.2515 22.9324L45.7458 21.47L47.827 21.1692L48.7572 19.2894Z" fill="url(#paint2_linear_217_6465)"/>
<path d="M57.1496 49.3303H57.1401V49.3415H57.1496V49.3303Z" fill="black"/>
<path d="M86.9304 43.2867H86.9323V43.2773H86.9304V43.2867Z" fill="black"/>
<path d="M87.0909 43.7454L87.0871 43.7416L87.0796 43.7492L87.0834 43.7529L87.0909 43.7454Z" fill="black"/>
<path d="M87.423 44.2943V44.2924H87.4136V44.2943H87.423Z" fill="black"/>
<path d="M90.1344 50.4449L90.1306 50.4525L90.1419 50.4543L90.1438 50.4468L90.1344 50.4449Z" fill="black"/>
<path d="M90.8474 50.4262V50.4243L90.8437 50.4187V50.4149L90.8342 50.4206V50.4224L90.838 50.43V50.4281L90.8474 50.4243V50.4262V50.4243V50.4262Z" fill="black"/>
<path d="M91.6096 52.5861L91.6059 52.5767L91.5964 52.5804L91.5983 52.5898H91.6002H91.5983L91.6096 52.5861Z" fill="black"/>
<path d="M90.491 49.163V49.1648V49.1705V49.1742L90.5023 49.1724V49.1686V49.1648V49.1667L90.491 49.1648V49.163V49.1648V49.163Z" fill="black"/>
<path d="M90.5077 49.101V49.1028V49.1047V49.1085L90.5059 49.1103L90.5172 49.1122V49.1103V49.1066V49.1028V49.1047L90.5077 49.1028V49.101V49.1028V49.101Z" fill="black"/>
<path d="M91.7587 44.3902L91.7568 44.3958L91.7681 44.3977V44.3921L91.7587 44.3902Z" fill="black"/>
<path d="M93.9513 44.3319V44.3263V44.3225H93.9399V44.3281V44.3319H93.9513Z" fill="black"/>
<path d="M93.9323 44.3921L93.9304 44.3958L93.9323 44.3921L93.936 44.3902L93.9379 44.3864L93.9266 44.3808V44.3827L93.9247 44.3846L93.9229 44.3883V44.3902V44.3883V44.3902L93.9323 44.3921Z" fill="black"/>
<path d="M92.6816 49.1047V49.0972L92.6721 49.0953V49.1009V49.1028V49.1009L92.6816 49.1047Z" fill="black"/>
<path d="M78.5514 51.3021V51.2965L78.54 51.2984L78.5419 51.304L78.5514 51.3021Z" fill="black"/>
<path d="M84.3059 52.6274V52.6311H84.3172V52.6274H84.3059Z" fill="black"/>
<path d="M84.3059 52.5879V52.5898H84.3172V52.5879H84.3059Z" fill="black"/>
<path d="M81.908 43.2867H81.9099V43.2773H81.908V43.2867Z" fill="black"/>
<path d="M76.9513 44.3714V44.3676H76.9399V44.3714H76.9513Z" fill="black"/>
<path d="M78.0193 50.2175H78.0287V50.2062H78.0193V50.2175Z" fill="black"/>
<path d="M77.5741 46.8621V46.8564H77.5627V46.8583L77.5646 46.8658V46.864V46.8658L77.5741 46.8621Z" fill="black"/>
<path d="M85.4852 52.7966H85.4814V52.806H85.4852V52.7966Z" fill="black"/>
<path d="M50.8892 44.6628V44.6684H50.9005V44.6628H50.8892Z" fill="black"/>
<path d="M56.5966 44.3902L56.5947 44.3977L56.6042 44.4015L56.606 44.3921L56.5966 44.3902Z" fill="black"/>
<path d="M52.0929 45.0161L52.0947 45.0105L52.0834 45.0086L52.0815 45.0124L52.0929 45.0161Z" fill="black"/>
<path d="M51.408 47.6253L51.4099 47.6159L51.4005 47.614L51.3967 47.6215L51.408 47.6253Z" fill="black"/>
<path d="M51.3495 47.9749V47.9693H51.3381V47.9749H51.3495Z" fill="black"/>
<path d="M51.8456 48.9524L51.8418 48.9487L51.8362 48.9581L51.84 48.9599L51.8456 48.9524Z" fill="black"/>
<path d="M53.1043 49.3303H53.0986V49.3415H53.1043V49.3303Z" fill="black"/>
<path d="M57.1496 49.3303H57.1401V49.3415H57.1496V49.3303Z" fill="black"/>
<path d="M56.8211 51.6931V51.6913L56.8117 51.6894L56.8098 51.6913L56.8211 51.6931Z" fill="black"/>
<path d="M56.4458 51.9507H56.4515V51.9394H56.4458V51.9507Z" fill="black"/>
<path d="M51.6382 51.9507H51.6438V51.9394H51.6382V51.9507Z" fill="black"/>
<path d="M60.3703 52.2928L60.3628 52.2965L60.3685 52.3041L60.376 52.3003L60.3703 52.2928Z" fill="black"/>
<path d="M61.3249 51.0671L61.323 51.0747L61.3324 51.0784L61.3362 51.0709V51.0728V51.0709L61.3249 51.0671Z" fill="black"/>
<path d="M62.0684 48.1103V48.1178L62.0797 48.1197V48.1103H62.0684Z" fill="black"/>
<path d="M61.572 47.1309L61.5777 47.1347L61.5852 47.1272L61.5777 47.1234L61.572 47.1309Z" fill="black"/>
<path d="M60.3137 46.7531H60.3232V46.7418H60.3137V46.7531Z" fill="black"/>
<path d="M69.8268 52.5879V52.5861L69.825 52.5898L69.8344 52.5936L69.8363 52.5898L69.8268 52.5879Z" fill="black"/>
<path d="M71.9946 44.409V44.4128L72.0041 44.4165L72.006 44.4109L71.9946 44.409Z" fill="black"/>
<path d="M75.2437 43.3243H75.2474V43.3149H75.2437V43.3243Z" fill="black"/>
<path d="M64.7702 44.1721H64.7683V44.1815H64.7702V44.1721Z" fill="black"/>
<path d="M67.4079 44.1721H67.406V44.1815H67.4079V44.1721Z" fill="black"/>
<path d="M67.6683 44.3714V44.3657H67.657V44.3714H67.6683Z" fill="black"/>
<path d="M67.6664 44.4109H67.6683V44.409H67.657V44.4109V44.409L67.6683 44.4109H67.6664H67.6683H67.6664Z" fill="black"/>
<path d="M65.4796 52.5898V52.5823L65.4701 52.5804L65.4683 52.5879L65.4796 52.5898Z" fill="black"/>
<path d="M72.8606 52.7966H72.855V52.806H72.8606V52.7966Z" fill="black"/>
<path d="M74.7362 51.0634H74.7324V51.0747H74.7362V51.0634Z" fill="black"/>
<path d="M75.2003 49.9769L75.1965 49.9826L75.206 49.9882L75.2097 49.9807L75.2003 49.9769Z" fill="black"/>
<path fill-rule="evenodd" clip-rule="evenodd" d="M77.9929 38.7546C68.525 38.6625 51.4043 38.6625 41.927 38.7546C47.3609 35.7356 52.4213 33.4818 58.5779 32.4799C71.6024 30.3557 45.6119 35.9368 77.9929 38.7546Z" fill="url(#paint3_linear_217_6465)"/>
<path d="M41.9626 69.8067C42.0343 69.8706 42.1041 69.9308 42.1683 69.9947C42.923 70.7203 43.7871 71.2898 44.7135 71.773C45.6909 72.2805 46.7173 72.6659 47.7796 72.9497C48.5871 73.1659 49.4079 73.3144 50.2381 73.4121C51.2079 73.5268 52.1796 73.5456 53.1531 73.508C54.2512 73.4666 55.3362 73.3106 56.406 73.0531C57.506 72.788 58.5701 72.4234 59.5871 71.9271C60.6758 71.397 61.6795 70.741 62.5437 69.8856C62.5588 69.8706 62.5758 69.8593 62.6248 69.818C62.5927 70.0285 62.5267 70.1902 62.4625 70.35C62.1418 71.1451 61.6399 71.8143 61.0286 72.4083C59.789 73.6114 58.3022 74.3877 56.6682 74.9122C55.9267 75.1509 55.1682 75.3145 54.3984 75.4254C53.9324 75.493 53.4645 75.5325 52.9928 75.5532C52.5135 75.5739 52.0343 75.572 51.5531 75.5513C50.4079 75.5024 49.2852 75.3163 48.1833 74.9949C47.3966 74.7656 46.6362 74.4686 45.9098 74.087C44.6777 73.4384 43.5815 72.6226 42.7475 71.491C42.406 71.0267 42.1381 70.5248 41.972 69.9721C41.9588 69.9214 41.9286 69.8744 41.9626 69.8067Z" fill="url(#paint4_linear_217_6465)"/>
<path d="M61.874 68.6356C61.8589 68.5924 61.84 68.551 61.8287 68.5078C61.7853 68.333 61.8664 68.1788 62.0306 68.1187C62.2061 68.0548 62.3495 68.1093 62.4344 68.2803C62.5325 68.4777 62.6117 68.6826 62.7608 68.8499C63.1287 69.2616 63.5683 69.4665 64.1306 69.318C64.3476 69.2616 64.523 69.3518 64.5778 69.5436C64.6306 69.7297 64.5268 69.9139 64.3117 69.9684C63.5589 70.1582 62.9155 69.9496 62.3721 69.4139C62.1495 69.1939 61.9834 68.9307 61.874 68.6356Z" fill="url(#paint5_linear_217_6465)"/>
<path d="M42.5382 68.6356C42.5533 68.5924 42.5721 68.551 42.5834 68.5078C42.6268 68.333 42.5457 68.1788 42.3816 68.1187C42.2061 68.0548 42.0627 68.1093 41.9778 68.2803C41.8797 68.4777 41.8004 68.6826 41.6514 68.8499C41.2834 69.2616 40.8438 69.4665 40.2816 69.318C40.0646 69.2616 39.8891 69.3518 39.8344 69.5436C39.7816 69.7297 39.8853 69.9139 40.1004 69.9684C40.8533 70.1582 41.4967 69.9496 42.04 69.4139C42.2627 69.1939 42.4268 68.9307 42.5382 68.6356Z" fill="url(#paint6_linear_217_6465)"/>
<path d="M89.8191 34.2055C89.7908 34.198 89.7644 34.1886 89.7361 34.1811C88.7795 33.8878 87.8512 33.5871 86.9474 33.275C87.1323 29.1564 87.1267 25.0284 86.972 20.9098C86.9399 20.0451 86.4531 19.3214 85.6927 18.9981C82.2116 17.5225 78.6399 16.2874 75.0078 15.2893C67.6305 13.2629 60.0305 12.2271 52.4136 12.0673H52.3324C40.9287 12.3079 29.6533 14.5111 19.0533 18.9981C18.2929 19.3214 17.808 20.0451 17.774 20.9098C17.6325 24.7427 17.6174 28.585 17.7627 32.4197C17.7929 33.2374 17.8306 34.057 17.8778 34.8747C16.9212 34.9969 15.9891 35.136 15.0835 35.292C15.0514 35.2977 15.0174 35.3033 14.9854 35.309C14.9307 34.386 14.8873 33.463 14.8514 32.54C14.7042 28.6263 14.7193 24.7051 14.8665 20.7876C14.942 18.718 16.142 16.9228 17.9665 16.1502C28.9004 11.5203 40.5098 9.24766 52.2758 9.00141C52.34 8.99953 52.406 8.99953 52.4721 9.00141C60.3211 9.16495 68.1418 10.2327 75.7418 12.3192C79.4927 13.3512 83.1814 14.6257 86.7795 16.1502C88.604 16.9228 89.804 18.718 89.8795 20.7876C90.0474 25.2578 90.0437 29.7392 89.8191 34.2055Z" fill="#000084" stroke="#000084" stroke-width="17.0079" stroke-miterlimit="10" stroke-linecap="round" stroke-linejoin="round"/>
<path d="M100.559 52.7985C100.227 55.855 95.189 58.6671 92.3324 59.4736C92.3173 59.4792 92.3041 59.483 92.289 59.4867C91.5814 59.6822 90.8286 59.7856 90.0437 59.7856C87.3192 59.7856 84.4211 58.5581 82.7267 56.5561H81.9965H81.9682C81.9475 56.5956 81.9267 56.637 81.906 56.6765C81.889 56.7103 81.772 56.9716 81.7173 57.09C81.7098 57.1069 81.7022 57.122 81.6965 57.1332C77.3192 65.4757 71.2287 72.9027 63.7268 78.8804C60.5042 81.4482 57.0495 83.7265 53.4174 85.6758C52.7495 86.0349 51.9966 86.0349 51.3287 85.6758C38.9967 79.0534 29.1514 68.9195 22.8798 56.8024C22.8571 56.761 22.8345 56.7178 22.8137 56.6765C22.793 56.637 22.7722 56.5956 22.7514 56.5561H21.993C20.2986 58.5581 17.4005 59.7856 14.676 59.7856C13.8911 59.7856 13.1383 59.6822 12.4307 59.4867C9.55149 58.6916 5.68735 56.8419 5.35339 53.7703C5.3232 54.041 5.30811 54.3154 5.30811 54.5937C5.30811 58.8119 9.52696 61.2011 13.8326 61.7312C15.9364 61.9906 19.3213 61.2142 20.9647 59.8646C27.5477 71.8143 37.5023 81.7997 49.8419 88.426C51.4363 89.2831 53.3098 89.2831 54.9061 88.426C58.7042 86.3845 62.3174 84.0066 65.6872 81.3185C73.1343 75.384 79.2569 68.0792 83.7739 59.8815C85.4154 61.2199 87.8211 61.7537 89.9324 61.7537C94.1984 61.7537 100.604 57.8382 100.604 53.6199C100.604 53.3436 100.589 53.0692 100.559 52.7985Z" fill="#000084"/>
<path d="M52.3739 90.6667C51.2419 90.6667 50.1117 90.3903 49.0815 89.8358C37.0947 83.3994 27.2042 73.8313 20.3872 62.0996C18.2533 63.1297 15.4854 63.5489 13.6363 63.3196C8.69293 62.7105 4.13257 60.1916 4.13257 55.011C4.13257 54.6745 4.14955 54.338 4.18729 54.0109C4.35332 52.5447 5.20804 50.898 5.41936 50.9412C5.48539 50.9544 6.04011 53.1744 6.50615 53.9263C7.60237 55.6952 10.2722 57.2329 12.8571 57.9472C13.4344 58.107 14.0457 58.1878 14.674 58.1878C16.9703 58.1878 19.1042 56.7911 20.7646 55.526C21.0325 55.3211 21.6589 55.0185 21.991 54.9583C22.1778 54.9245 22.5684 54.9019 22.7495 54.9583C23.1457 55.0824 24.1702 55.8155 24.1702 55.8155L24.2476 55.964C24.2608 55.9884 24.274 56.0148 24.2872 56.0411L24.3023 56.0712C30.5287 68.1018 40.1362 77.8522 52.0871 84.2698C52.2796 84.3732 52.4607 84.3732 52.6532 84.2698C56.189 82.3712 59.5777 80.138 62.723 77.6323C70.021 71.8181 75.921 64.6806 80.2606 56.417L80.3512 56.2197C80.4059 56.0975 80.4587 55.9847 80.4701 55.9621L80.5474 55.8136C80.5474 55.8136 81.572 55.0824 81.9682 54.9583C82.1493 54.9019 82.5399 54.9245 82.7267 54.9583C83.0587 55.0185 83.6852 55.3211 83.9531 55.526C85.6135 56.7911 87.7474 58.1878 90.0436 58.1878C90.67 58.1878 91.2814 58.107 91.8606 57.9472L91.8946 57.9359C94.5908 57.1746 98.204 54.65 99.2587 52.7985C100.374 50.8416 100.555 49.6686 100.625 49.663C101.108 49.6291 101.683 51.8341 101.821 52.6537C101.876 52.9789 101.923 53.3737 101.923 53.7102C101.923 59.0826 94.7795 63.3534 89.9323 63.3534C87.8738 63.3534 85.9229 62.9192 84.3436 62.1316C79.7682 70.0041 73.8342 76.8747 66.6909 82.5686C63.2682 85.298 59.5607 87.7436 55.6701 89.8339C54.6362 90.3885 53.5041 90.6667 52.3739 90.6667ZM82.6606 58.7329C82.5946 58.8551 82.5286 58.9754 82.4625 59.0976L82.9908 58.9961C82.8776 58.9096 82.7682 58.8213 82.6606 58.7329ZM21.7495 58.9792L22.2759 59.0807C22.2099 58.9585 22.1438 58.8382 22.0778 58.7179C21.9721 58.8044 21.8627 58.8927 21.7495 58.9792ZM91.8681 57.9434C91.8398 57.9509 91.8115 57.9603 91.7795 57.9716L91.8681 57.9434ZM91.9078 57.934C91.8946 57.9378 91.8814 57.9397 91.87 57.9434L91.9078 57.934ZM80.2569 56.4283L80.2512 56.4396L80.2569 56.4283Z" fill="#000084"/>
<path fill-rule="evenodd" clip-rule="evenodd" d="M103.987 38.4351C98.4154 38.8618 93.7135 38.4558 89.606 37.623C88.6192 37.4238 87.6626 37.2001 86.7343 36.9595C86.0588 36.7846 85.3985 36.6004 84.7494 36.4106C84.6909 36.3936 84.6324 36.3767 84.5739 36.3579C70.6155 32.2262 62.0344 25.0661 38.6835 38.6231C37.6439 38.6926 27.7081 37.8956 18.1534 38.7584C17.1817 38.8468 16.2138 38.952 15.259 39.078C8.81378 39.9201 2.99305 41.6702 0.810033 45.1459C0.536449 42.3826 3.46286 40.7284 6.43832 39.3205C8.80058 38.2039 11.7591 37.3918 15.0836 36.8185C16.0194 36.6568 16.9836 36.5139 17.9722 36.3899C18.6307 36.3053 19.2987 36.2301 19.976 36.1624C20.0439 36.1549 20.1119 36.1474 20.1798 36.1399C25.5722 35.606 31.5269 35.5195 37.2911 35.6474C61.1023 22.44 70.1098 28.6019 84.4438 33.9067C84.5909 33.9631 84.7419 34.0176 84.8909 34.0721C85.54 34.3108 86.2004 34.5458 86.8739 34.777C87.8004 35.0966 88.7532 35.4068 89.7362 35.7075C93.8381 36.9557 98.1381 37.8711 103.987 38.4351Z" fill="#000084"/>
<path d="M0.242151 47.5558L0.0119629 45.223C0.270453 41.8506 2.97988 40.0705 6.09496 38.5967C8.39496 37.5083 11.3742 36.6455 14.9478 36.0289C15.8874 35.8673 16.8704 35.7207 17.8723 35.5947C18.5138 35.512 19.1949 35.4349 19.8968 35.3654L20.0912 35.3428C24.8553 34.871 30.5704 34.7018 37.0911 34.8409C58.6061 22.9607 68.2212 26.7259 80.3872 31.4893C81.7853 32.0363 83.2287 32.6021 84.723 33.1548C84.8476 33.2018 84.9627 33.245 85.0797 33.2863L85.1683 33.3183C85.8193 33.557 86.4815 33.792 87.1362 34.0176C88.0608 34.3371 89.0155 34.6473 89.9721 34.9406C94.4174 36.294 99.5872 37.655 104.887 38.1663L104.97 39.2603C99.8268 39.655 94.1287 39.3524 89.4457 38.4031C88.4947 38.2114 87.5136 37.9839 86.5325 37.7301C85.8947 37.5647 85.2363 37.3824 84.523 37.1737C84.4627 37.1568 84.3985 37.138 84.3363 37.1173C82.0929 36.4519 79.9872 35.7113 77.9514 34.9951C67.4552 31.2975 58.3892 28.1038 39.0873 39.311L38.9251 39.405L38.7383 39.4182C38.4666 39.437 37.8949 39.4144 36.6288 39.3599C33.0251 39.2077 25.527 38.8919 18.227 39.5517C17.2289 39.6419 16.2666 39.749 15.3666 39.8675C7.92326 40.8431 3.25535 42.7604 1.4912 45.5707L0.242151 47.5558ZM32.7968 36.3955C28.0911 36.3955 23.8893 36.576 20.2591 36.935L20.0647 36.9557C19.3704 37.0252 18.7025 37.1004 18.0742 37.1813C17.0949 37.3034 16.1346 37.4463 15.2195 37.6042C11.7893 38.1963 8.94967 39.0159 6.78175 40.0404C6.4327 40.2058 6.09685 40.3694 5.77798 40.531C8.23647 39.5291 11.3685 38.7772 15.1553 38.2828C16.0761 38.1606 17.061 38.0516 18.0817 37.9595C25.4893 37.2903 33.059 37.6098 36.6968 37.7621C37.4553 37.7941 38.1288 37.8223 38.4609 37.8241C58.2835 26.3687 67.6476 29.6678 78.4891 33.4875C80.508 34.1999 82.5966 34.9349 84.8042 35.5872L84.823 35.5928C84.874 35.6098 84.923 35.6229 84.974 35.638C85.674 35.8428 86.3155 36.0195 86.9381 36.1812C87.8928 36.4293 88.8438 36.6493 89.7683 36.8354C90.6815 37.0196 91.5985 37.1794 92.5211 37.311C91.5136 37.0553 90.5117 36.7752 89.5042 36.4669C88.5268 36.168 87.5551 35.8522 86.6136 35.527C85.9476 35.2996 85.2759 35.059 84.6155 34.8165L84.5306 34.7864C84.4061 34.7413 84.2796 34.6943 84.157 34.6473C82.6589 34.0928 81.2061 33.5232 79.8023 32.9743C67.9967 28.3519 58.6703 24.6995 37.6836 36.341L37.493 36.4463L37.276 36.4406C35.7345 36.4124 34.2421 36.3955 32.7968 36.3955Z" fill="#000084"/>
<path fill-rule="evenodd" clip-rule="evenodd" d="M103.936 38.4557C98.3645 38.8824 93.7135 38.4557 89.606 37.623C88.6192 37.4237 87.6626 37.2 86.7343 36.9594C86.0588 36.7846 85.3985 36.6004 84.7494 36.4105C84.6909 36.3936 84.6324 36.3767 84.5739 36.3579C70.6155 32.2261 62.0344 25.066 38.6835 38.623C37.6439 38.6926 27.7081 37.8955 18.1534 38.7583C17.1817 38.8467 16.2138 38.952 15.2591 39.0779C8.81381 39.92 2.99307 41.6701 0.810059 45.1458C1.4327 42.6232 3.46288 40.7284 6.43834 39.3204C8.8006 38.2038 11.7591 37.3917 15.0836 36.8184C16.0194 36.6567 16.9836 36.5139 17.9723 36.3898C18.6308 36.3052 19.2987 36.23 19.976 36.1624C20.044 36.1548 20.1119 36.1473 20.1798 36.1398C25.5722 35.606 31.5269 35.5195 37.2911 35.6473C61.1023 22.44 70.1098 28.6019 84.4437 33.9066C84.5909 33.963 84.7419 34.0175 84.8909 34.072C85.54 34.3108 86.2003 34.5458 86.8739 34.777C87.8003 35.0965 88.7532 35.4067 89.7362 35.7075C93.8381 36.9556 98.4569 37.9895 103.936 38.4557Z" fill="url(#paint7_linear_217_6465)"/>
<path d="M89.8191 34.2055C89.7908 34.198 89.7644 34.1886 89.7361 34.1811C88.7795 33.8878 87.8512 33.5871 86.9474 33.275C87.1323 29.1564 87.1267 25.0284 86.972 20.9098C86.9399 20.0451 86.4531 19.3214 85.6927 18.9981C82.2116 17.5225 78.6399 16.2874 75.0078 15.2893C67.6305 13.2629 60.0305 12.2271 52.4136 12.0673H52.3324C40.9287 12.3079 29.6533 14.5111 19.0533 18.9981C18.2929 19.3214 17.808 20.0451 17.774 20.9098C17.6325 24.7427 17.6174 28.585 17.7627 32.4197C17.7929 33.2374 17.8306 34.057 17.8778 34.8747C16.9212 34.9969 15.9891 35.136 15.0835 35.292C15.0514 35.2977 15.0174 35.3033 14.9854 35.309C14.9307 34.386 14.8873 33.463 14.8514 32.54C14.7042 28.6263 14.7193 24.7051 14.8665 20.7876C14.942 18.718 16.142 16.9228 17.9665 16.1502C28.9004 11.5203 40.5098 9.24766 52.2758 9.00141C52.34 8.99953 52.406 8.99953 52.4721 9.00141C60.3211 9.16495 68.1418 10.2327 75.7418 12.3192C79.4927 13.3512 83.1814 14.6257 86.7795 16.1502C88.604 16.9228 89.804 18.718 89.8795 20.7876C90.0474 25.2578 90.0437 29.7392 89.8191 34.2055Z" fill="url(#paint8_linear_217_6465)"/>
<path d="M100.559 52.7985C100.227 55.855 95.189 58.6671 92.3324 59.4736C92.3173 59.4792 92.3041 59.483 92.289 59.4867C91.5814 59.6822 90.8286 59.7856 90.0437 59.7856C87.3192 59.7856 84.4211 58.5581 82.7267 56.5561H81.9965H81.9682C81.9475 56.5956 81.9267 56.637 81.906 56.6765C81.889 56.7103 81.772 56.9716 81.7173 57.09C81.7098 57.1069 81.7022 57.122 81.6965 57.1332C77.3192 65.4757 71.2287 72.9027 63.7268 78.8804C60.5042 81.4482 57.0495 83.7265 53.4174 85.6758C52.7495 86.0349 51.9966 86.0349 51.3287 85.6758C38.9967 79.0534 29.1514 68.9195 22.8798 56.8024C22.8571 56.761 22.8345 56.7178 22.8137 56.6765C22.793 56.637 22.7722 56.5956 22.7514 56.5561H21.993C20.2986 58.5581 17.4005 59.7856 14.676 59.7856C13.8911 59.7856 13.1383 59.6822 12.4307 59.4867C9.55149 58.6916 5.68735 56.8419 5.35339 53.7703C5.3232 54.041 5.30811 54.3154 5.30811 54.5937C5.30811 58.8119 9.52696 61.2011 13.8326 61.7312C15.9364 61.9906 19.3213 61.2142 20.9647 59.8646C27.5477 71.8143 37.5023 81.7997 49.8419 88.426C51.4363 89.2831 53.3098 89.2831 54.9061 88.426C58.7042 86.3845 62.3174 84.0066 65.6872 81.3185C73.1343 75.384 79.2569 68.0792 83.7739 59.8815C85.4154 61.2199 87.8211 61.7537 89.9324 61.7537C94.1984 61.7537 100.604 57.8382 100.604 53.6199C100.604 53.3436 100.589 53.0692 100.559 52.7985Z" fill="url(#paint9_linear_217_6465)"/>
<path fill-rule="evenodd" clip-rule="evenodd" d="M52.544 81.8468L52.1063 81.6193C46.3289 78.6079 41.0969 74.869 36.5195 70.5474C33.6139 67.8048 30.9724 64.8253 28.6214 61.6523C27.8478 60.6071 27.1045 59.5375 26.395 58.451C27.4177 60.2293 28.5252 61.9587 29.7063 63.6335C35.4799 71.805 43.1044 78.6756 52.1233 83.6006L52.5421 83.828L52.9629 83.6006C54.644 82.6833 56.2893 81.6888 57.8893 80.6286C59.4723 79.576 61.0232 78.4443 62.5383 77.2394C69.0081 72.0832 74.3949 65.816 78.4873 58.8025C78.5553 58.6878 78.6232 58.5694 78.6892 58.4547C75.8439 62.8158 72.4609 66.8687 68.6006 70.5173C66.8364 72.1847 64.9723 73.7674 63.0119 75.26C61.4251 76.4668 59.8006 77.5966 58.1421 78.6492C56.4648 79.7113 54.744 80.7038 52.9817 81.6231L52.544 81.8468Z" fill="url(#paint10_linear_217_6465)"/>
<path fill-rule="evenodd" clip-rule="evenodd" d="M84.657 31.993C84.591 30.8896 83.8891 25.0078 83.5495 22.2012C82.1099 21.6129 80.6646 21.0696 79.2174 20.5734C77.5665 20.0075 75.9155 19.4962 74.2627 19.0413C70.7627 18.0808 67.2099 17.3514 63.625 16.8401C59.9477 16.3156 56.2458 16.0205 52.542 15.9416C47.0685 16.06 41.6138 16.6484 36.2496 17.7462C31.244 18.7744 26.3214 20.2463 21.5365 22.2012C21.195 25.0078 20.6006 25.9777 20.2516 31.9705C20.1836 31.978 19.8516 28.1207 19.8516 26.3086C19.8516 24.4983 19.8799 23.3686 19.9402 21.579L19.9591 21.0207L20.4497 20.8158C25.4742 18.7255 30.6628 17.1578 35.9459 16.075C41.393 14.9566 46.9439 14.3607 52.5269 14.2422H52.559C56.3364 14.3231 60.1043 14.622 63.8401 15.1539C67.4854 15.6728 71.1023 16.4153 74.6684 17.3946C76.3778 17.8646 78.0627 18.3853 79.7174 18.953C81.3853 19.5263 83.0268 20.1466 84.6363 20.8158L85.1249 21.0207L85.1438 21.579C85.191 25.4025 84.8042 32.0494 84.657 31.993Z" fill="url(#paint11_linear_217_6465)"/>
<path d="M30.0308 56.3719H31.2911L32.21 58.7781L33.1383 56.3719H34.376L32.7213 60.2029H31.676L30.0308 56.3719Z" fill="white"/>
<path d="M34.425 59.6089L35.0533 58.9078C35.4533 59.2066 35.9005 59.3645 36.3703 59.3645C36.6722 59.3645 36.8345 59.2668 36.8345 59.1033V59.092C36.8345 58.9341 36.7005 58.8476 36.1496 58.7273C35.2854 58.5431 34.6175 58.3137 34.6194 57.5318V57.5205C34.6213 56.8137 35.2194 56.3043 36.1949 56.3043C36.8854 56.3043 37.425 56.4772 37.8666 56.8099L37.3024 57.5543C36.9307 57.3099 36.525 57.1802 36.1647 57.1802C35.8911 57.1802 35.7571 57.2893 35.7571 57.4246V57.4359C35.7571 57.6088 35.8967 57.6859 36.459 57.8043C37.393 57.9942 37.9741 58.2762 37.9722 58.9886V58.9999C37.9703 59.7762 37.3137 60.2386 36.3269 60.2386C35.61 60.2386 34.925 60.0281 34.425 59.6089Z" fill="white"/>
<path d="M38.5855 58.5055L38.5892 56.3701H39.7326L39.7288 58.4829C39.7288 59.0318 40.0232 59.2931 40.476 59.2931C40.9288 59.2931 41.2251 59.0431 41.227 58.5111L41.2307 56.3701H42.3741L42.3704 58.4773C42.3685 59.7048 41.6175 60.2424 40.4628 60.2424C39.3081 60.2424 38.5836 59.6954 38.5855 58.5055Z" fill="white"/>
<path d="M43.159 56.3719H45.0816C45.7024 56.3719 46.1326 56.5242 46.4042 56.7855C46.642 57.0036 46.7627 57.2968 46.7627 57.6709V57.6822C46.7627 58.263 46.4307 58.6484 45.925 58.8495L46.8929 60.1747H45.5929L44.776 59.0224H44.2816L44.2797 60.1747H43.1533L43.159 56.3719ZM45.025 58.1972C45.408 58.1972 45.6288 58.0243 45.6288 57.7461V57.7348C45.6288 57.4359 45.3967 57.2836 45.0193 57.2836H44.2816L44.2797 58.1972H45.025Z" fill="white"/>
<path d="M47.4496 56.3719H50.7194L50.7175 57.2686H48.5628L48.5609 57.8438H50.5119L50.51 58.6747H48.5591L48.5572 59.2781H50.7402L50.7383 60.1747H47.4402L47.4496 56.3719Z" fill="white"/>
<path d="M53.1629 56.3719H55.2478C55.7591 56.3719 56.1195 56.4923 56.3572 56.7141C56.5195 56.8663 56.6176 57.0675 56.6176 57.3288V57.34C56.6176 57.7799 56.3497 58.0412 55.9893 58.1878C56.4817 58.3401 56.795 58.6014 56.795 59.1164V59.1277C56.7931 59.78 56.2233 60.1766 55.2534 60.1766H53.1572L53.1629 56.3719ZM55.127 59.327C55.4704 59.327 55.6667 59.2029 55.6685 58.9792V58.9679C55.6685 58.7612 55.495 58.6258 55.1176 58.6258H54.2591L54.2572 59.327H55.127ZM54.9667 57.8871C55.3101 57.8871 55.5006 57.778 55.5006 57.5562V57.5449C55.5006 57.3382 55.327 57.2197 54.9893 57.2197H54.2572L54.2553 57.8871H54.9667Z" fill="white"/>
<path d="M57.1174 59.6089L57.7457 58.9078C58.1457 59.2066 58.5929 59.3645 59.0627 59.3645C59.3646 59.3645 59.5269 59.2668 59.5269 59.1033V59.092C59.5269 58.9341 59.3929 58.8476 58.842 58.7273C57.9778 58.5431 57.3099 58.3137 57.3118 57.5318V57.5205C57.3137 56.8137 57.9118 56.3043 58.8872 56.3043C59.5778 56.3043 60.1174 56.4772 60.5589 56.8099L59.9948 57.5543C59.6231 57.3099 59.2174 57.1802 58.8571 57.1802C58.5835 57.1802 58.4495 57.2893 58.4495 57.4246V57.4359C58.4495 57.6088 58.5891 57.6859 59.1514 57.8043C60.0853 57.9942 60.6665 58.2762 60.6646 58.9886V58.9999C60.6627 59.7762 60.0061 60.2386 59.0193 60.2386C58.3004 60.2386 57.6155 60.0281 57.1174 59.6089Z" fill="white"/>
<path d="M61.2759 58.5055L61.2797 56.3701H62.423L62.4193 58.4829C62.4193 59.0318 62.7136 59.2931 63.1664 59.2931C63.6193 59.2931 63.9155 59.0431 63.9174 58.5111L63.9212 56.3701H65.0646L65.0608 58.4773C65.0589 59.7048 64.308 60.2424 63.1532 60.2424C61.9985 60.2424 61.274 59.6954 61.2759 58.5055Z" fill="white"/>
<path d="M65.8497 56.3719H67.7723C68.393 56.3719 68.8232 56.5242 69.0949 56.7855C69.3326 57.0036 69.4534 57.2968 69.4534 57.6709V57.6822C69.4534 58.263 69.1213 58.6484 68.6157 58.8495L69.5836 60.1747H68.2836L67.4666 59.0224H66.9723L66.9704 60.1747H65.844L65.8497 56.3719ZM67.7157 58.1972C68.0987 58.1972 68.3194 58.0243 68.3194 57.7461V57.7348C68.3194 57.4359 68.0874 57.2836 67.71 57.2836H66.9723L66.9704 58.1972H67.7157Z" fill="white"/>
<path d="M70.14 56.3719H73.4098L73.408 57.2686H71.2533L71.2514 57.8438H73.2023L73.2004 58.6747H71.2495L71.2476 59.2781H73.4306L73.4287 60.1747H70.1306L70.14 56.3719Z" fill="white"/>
<path d="M30.0308 56.3719H31.2911L32.21 58.7781L33.1383 56.3719H34.376L32.7213 60.2029H31.676L30.0308 56.3719Z" fill="url(#paint12_linear_217_6465)"/>
<path d="M34.425 59.6089L35.0533 58.9078C35.4533 59.2066 35.9005 59.3645 36.3703 59.3645C36.6722 59.3645 36.8345 59.2668 36.8345 59.1033V59.092C36.8345 58.9341 36.7005 58.8476 36.1496 58.7273C35.2854 58.5431 34.6175 58.3137 34.6194 57.5318V57.5205C34.6213 56.8137 35.2194 56.3043 36.1949 56.3043C36.8854 56.3043 37.425 56.4772 37.8666 56.8099L37.3024 57.5543C36.9307 57.3099 36.525 57.1802 36.1647 57.1802C35.8911 57.1802 35.7571 57.2893 35.7571 57.4246V57.4359C35.7571 57.6088 35.8967 57.6859 36.459 57.8043C37.393 57.9942 37.9741 58.2762 37.9722 58.9886V58.9999C37.9703 59.7762 37.3137 60.2386 36.3269 60.2386C35.61 60.2386 34.925 60.0281 34.425 59.6089Z" fill="url(#paint13_linear_217_6465)"/>
<path d="M38.5855 58.5055L38.5892 56.3701H39.7326L39.7288 58.4829C39.7288 59.0318 40.0232 59.2931 40.476 59.2931C40.9288 59.2931 41.2251 59.0431 41.227 58.5111L41.2307 56.3701H42.3741L42.3704 58.4773C42.3685 59.7048 41.6175 60.2424 40.4628 60.2424C39.3081 60.2424 38.5836 59.6954 38.5855 58.5055Z" fill="url(#paint14_linear_217_6465)"/>
<path d="M43.159 56.3719H45.0816C45.7024 56.3719 46.1326 56.5242 46.4042 56.7855C46.642 57.0036 46.7627 57.2968 46.7627 57.6709V57.6822C46.7627 58.263 46.4307 58.6484 45.925 58.8495L46.8929 60.1747H45.5929L44.776 59.0224H44.2816L44.2797 60.1747H43.1533L43.159 56.3719ZM45.025 58.1972C45.408 58.1972 45.6288 58.0243 45.6288 57.7461V57.7348C45.6288 57.4359 45.3967 57.2836 45.0193 57.2836H44.2816L44.2797 58.1972H45.025Z" fill="url(#paint15_linear_217_6465)"/>
<path d="M47.4496 56.3719H50.7194L50.7175 57.2686H48.5628L48.5609 57.8438H50.5119L50.51 58.6747H48.5591L48.5572 59.2781H50.7402L50.7383 60.1747H47.4402L47.4496 56.3719Z" fill="url(#paint16_linear_217_6465)"/>
<path d="M53.1629 56.3719H55.2478C55.7591 56.3719 56.1195 56.4923 56.3572 56.7141C56.5195 56.8663 56.6176 57.0675 56.6176 57.3288V57.34C56.6176 57.7799 56.3497 58.0412 55.9893 58.1878C56.4817 58.3401 56.795 58.6014 56.795 59.1164V59.1277C56.7931 59.78 56.2233 60.1766 55.2534 60.1766H53.1572L53.1629 56.3719ZM55.127 59.327C55.4704 59.327 55.6667 59.2029 55.6685 58.9792V58.9679C55.6685 58.7612 55.495 58.6258 55.1176 58.6258H54.2591L54.2572 59.327H55.127ZM54.9667 57.8871C55.3101 57.8871 55.5006 57.778 55.5006 57.5562V57.5449C55.5006 57.3382 55.327 57.2197 54.9893 57.2197H54.2572L54.2553 57.8871H54.9667Z" fill="url(#paint17_linear_217_6465)"/>
<path d="M57.1174 59.6089L57.7457 58.9078C58.1457 59.2066 58.5929 59.3645 59.0627 59.3645C59.3646 59.3645 59.5269 59.2668 59.5269 59.1033V59.092C59.5269 58.9341 59.3929 58.8476 58.842 58.7273C57.9778 58.5431 57.3099 58.3137 57.3118 57.5318V57.5205C57.3137 56.8137 57.9118 56.3043 58.8872 56.3043C59.5778 56.3043 60.1174 56.4772 60.5589 56.8099L59.9948 57.5543C59.6231 57.3099 59.2174 57.1802 58.8571 57.1802C58.5835 57.1802 58.4495 57.2893 58.4495 57.4246V57.4359C58.4495 57.6088 58.5891 57.6859 59.1514 57.8043C60.0853 57.9942 60.6665 58.2762 60.6646 58.9886V58.9999C60.6627 59.7762 60.0061 60.2386 59.0193 60.2386C58.3004 60.2386 57.6155 60.0281 57.1174 59.6089Z" fill="url(#paint18_linear_217_6465)"/>
<path d="M61.2759 58.5055L61.2797 56.3701H62.423L62.4193 58.4829C62.4193 59.0318 62.7136 59.2931 63.1664 59.2931C63.6193 59.2931 63.9155 59.0431 63.9174 58.5111L63.9212 56.3701H65.0646L65.0608 58.4773C65.0589 59.7048 64.308 60.2424 63.1532 60.2424C61.9985 60.2424 61.274 59.6954 61.2759 58.5055Z" fill="url(#paint19_linear_217_6465)"/>
<path d="M65.8497 56.3719H67.7723C68.393 56.3719 68.8232 56.5242 69.0949 56.7855C69.3326 57.0036 69.4534 57.2968 69.4534 57.6709V57.6822C69.4534 58.263 69.1213 58.6484 68.6157 58.8495L69.5836 60.1747H68.2836L67.4666 59.0224H66.9723L66.9704 60.1747H65.844L65.8497 56.3719ZM67.7157 58.1972C68.0987 58.1972 68.3194 58.0243 68.3194 57.7461V57.7348C68.3194 57.4359 68.0874 57.2836 67.71 57.2836H66.9723L66.9704 58.1972H67.7157Z" fill="url(#paint20_linear_217_6465)"/>
<path d="M70.14 56.3719H73.4098L73.408 57.2686H71.2533L71.2514 57.8438H73.2023L73.2004 58.6747H71.2495L71.2476 59.2781H73.4306L73.4287 60.1747H70.1306L70.14 56.3719Z" fill="url(#paint21_linear_217_6465)"/>
<path d="M36.812 50.8454L38.8252 48.5051C40.0497 49.4149 41.4516 49.7927 42.7724 49.7927C43.4497 49.7927 43.7384 49.6198 43.7384 49.3209V49.2889C43.7384 48.975 43.3837 48.8021 42.1761 48.5671C39.6479 48.0652 37.4233 47.3584 37.4233 45.035V45.003C37.4233 42.9146 39.0988 41.298 42.2082 41.298C44.3837 41.298 45.9931 41.7999 47.2988 42.8056L45.4629 45.2869C44.4007 44.5331 43.1271 44.2041 42.0799 44.2041C41.5158 44.2041 41.2592 44.3921 41.2592 44.659V44.691C41.2592 44.9899 41.5648 45.1778 42.7573 45.3978C45.6403 45.9166 47.5742 46.7324 47.5742 48.9468V48.9788C47.5742 51.2871 45.6252 52.7007 42.5969 52.7007C40.3063 52.6988 38.246 52.071 36.812 50.8454Z" fill="white"/>
<path d="M48.6687 47.5633V41.5029H52.5027V47.5163C52.5027 48.8829 53.2272 49.4637 54.2423 49.4637C55.2574 49.4637 55.9819 48.9299 55.9819 47.5952V41.5029H59.8158V47.4843C59.8158 51.2364 57.5762 52.712 54.2102 52.712C50.8442 52.712 48.6687 51.2063 48.6687 47.5633Z" fill="white"/>
<path d="M61.3289 41.5029H66.8383C68.8364 41.5029 70.1081 41.9897 70.8968 42.7586C71.5741 43.4184 71.9269 44.2342 71.9269 45.3658V45.3978C71.9269 46.9994 71.0741 48.1141 69.7043 48.7588L72.3307 52.4958H68.0307L65.9043 49.3547H65.0987V52.4958H61.3289V41.5029ZM66.7251 46.7324C67.627 46.7324 68.1741 46.3395 68.1741 45.6647V45.6328C68.1741 44.926 67.61 44.5801 66.7402 44.5801H65.0968V46.7305H66.7251V46.7324Z" fill="white"/>
<path d="M73.1704 41.5029H82.7874V44.518H76.8761V45.6328H82.3855V48.287H76.8761V49.4807H82.8685V52.4958H73.1704V41.5029Z" fill="white"/>
<path d="M36.812 50.8454L38.8252 48.5051C40.0497 49.4149 41.4516 49.7927 42.7724 49.7927C43.4497 49.7927 43.7384 49.6198 43.7384 49.3209V49.2889C43.7384 48.975 43.3837 48.8021 42.1761 48.5671C39.6479 48.0652 37.4233 47.3584 37.4233 45.035V45.003C37.4233 42.9146 39.0988 41.298 42.2082 41.298C44.3837 41.298 45.9931 41.7999 47.2988 42.8056L45.4629 45.2869C44.4007 44.5331 43.1271 44.2041 42.0799 44.2041C41.5158 44.2041 41.2592 44.3921 41.2592 44.659V44.691C41.2592 44.9899 41.5648 45.1778 42.7573 45.3978C45.6403 45.9166 47.5742 46.7324 47.5742 48.9468V48.9788C47.5742 51.2871 45.6252 52.7007 42.5969 52.7007C40.3063 52.6988 38.246 52.071 36.812 50.8454Z" fill="url(#paint22_linear_217_6465)"/>
<path d="M48.6687 47.5633V41.5029H52.5027V47.5163C52.5027 48.8829 53.2272 49.4637 54.2423 49.4637C55.2574 49.4637 55.9819 48.9299 55.9819 47.5952V41.5029H59.8158V47.4843C59.8158 51.2364 57.5762 52.712 54.2102 52.712C50.8442 52.712 48.6687 51.2063 48.6687 47.5633Z" fill="url(#paint23_linear_217_6465)"/>
<path d="M61.3289 41.5029H66.8383C68.8364 41.5029 70.1081 41.9897 70.8968 42.7586C71.5741 43.4184 71.9269 44.2342 71.9269 45.3658V45.3978C71.9269 46.9994 71.0741 48.1141 69.7043 48.7588L72.3307 52.4958H68.0307L65.9043 49.3547H65.0987V52.4958H61.3289V41.5029ZM66.7251 46.7324C67.627 46.7324 68.1741 46.3395 68.1741 45.6647V45.6328C68.1741 44.926 67.61 44.5801 66.7402 44.5801H65.0968V46.7305H66.7251V46.7324Z" fill="url(#paint24_linear_217_6465)"/>
<path d="M73.1704 41.5029H82.7874V44.518H76.8761V45.6328H82.3855V48.287H76.8761V49.4807H82.8685V52.4958H73.1704V41.5029Z" fill="url(#paint25_linear_217_6465)"/>
<path d="M21.5271 41.5029H25.7478L27.9384 47.6742L30.129 41.5029H34.2856L29.7101 52.5729H26.1026L21.5271 41.5029Z" fill="white"/>
<path d="M21.5271 41.5029H25.7478L27.9384 47.6742L30.129 41.5029H34.2856L29.7101 52.5729H26.1026L21.5271 41.5029Z" fill="url(#paint26_linear_217_6465)"/>
<defs>
<linearGradient id="paint0_linear_217_6465" x1="27.1943" y1="15.6477" x2="39.2748" y2="59.3702" gradientUnits="userSpaceOnUse">
<stop offset="0.00561798" stop-color="#75461C"/>
<stop offset="0.1629" stop-color="#FCEB7F"/>
<stop offset="0.2579" stop-color="#FABB51"/>
<stop offset="0.2865" stop-color="#FAAB42"/>
<stop offset="0.3427" stop-color="#915E25"/>
<stop offset="0.3989" stop-color="#DEA826"/>
<stop offset="0.6461" stop-color="#FDBF20"/>
<stop offset="0.7472" stop-color="#FCB61F"/>
<stop offset="0.7827" stop-color="#BD8219"/>
<stop offset="0.8156" stop-color="#895715"/>
<stop offset="0.8403" stop-color="#693D12"/>
<stop offset="0.8539" stop-color="#5D3311"/>
<stop offset="1" stop-color="#7E461D"/>
</linearGradient>
<linearGradient id="paint1_linear_217_6465" x1="36.9975" y1="12.9391" x2="49.078" y2="56.6617" gradientUnits="userSpaceOnUse">
<stop offset="0.00561798" stop-color="#75461C"/>
<stop offset="0.1629" stop-color="#FCEB7F"/>
<stop offset="0.2579" stop-color="#FABB51"/>
<stop offset="0.2865" stop-color="#FAAB42"/>
<stop offset="0.3427" stop-color="#915E25"/>
<stop offset="0.3989" stop-color="#DEA826"/>
<stop offset="0.6461" stop-color="#FDBF20"/>
<stop offset="0.7472" stop-color="#FCB61F"/>
<stop offset="0.7827" stop-color="#BD8219"/>
<stop offset="0.8156" stop-color="#895715"/>
<stop offset="0.8403" stop-color="#693D12"/>
<stop offset="0.8539" stop-color="#5D3311"/>
<stop offset="1" stop-color="#7E461D"/>
</linearGradient>
<linearGradient id="paint2_linear_217_6465" x1="45.7126" y1="10.5312" x2="57.7931" y2="54.2537" gradientUnits="userSpaceOnUse">
<stop offset="0.00561798" stop-color="#75461C"/>
<stop offset="0.1629" stop-color="#FCEB7F"/>
<stop offset="0.2579" stop-color="#FABB51"/>
<stop offset="0.2865" stop-color="#FAAB42"/>
<stop offset="0.3427" stop-color="#915E25"/>
<stop offset="0.3989" stop-color="#DEA826"/>
<stop offset="0.6461" stop-color="#FDBF20"/>
<stop offset="0.7472" stop-color="#FCB61F"/>
<stop offset="0.7827" stop-color="#BD8219"/>
<stop offset="0.8156" stop-color="#895715"/>
<stop offset="0.8403" stop-color="#693D12"/>
<stop offset="0.8539" stop-color="#5D3311"/>
<stop offset="1" stop-color="#7E461D"/>
</linearGradient>
<linearGradient id="paint3_linear_217_6465" x1="46.767" y1="19.631" x2="71.8119" y2="56.2079" gradientUnits="userSpaceOnUse">
<stop offset="0.00561798"/>
<stop offset="0.2191" stop-color="#56656E"/>
<stop offset="0.427" stop-color="#D0D2D3"/>
<stop offset="0.6798" stop-color="#40525B"/>
<stop offset="1" stop-color="#262424"/>
</linearGradient>
<linearGradient id="paint4_linear_217_6465" x1="40.9044" y1="63.652" x2="63.1683" y2="77.6158" gradientUnits="userSpaceOnUse">
<stop offset="0.00561798" stop-color="#75461C"/>
<stop offset="0.1629" stop-color="#FCEB7F"/>
<stop offset="0.2579" stop-color="#FABB51"/>
<stop offset="0.2865" stop-color="#FAAB42"/>
<stop offset="0.3427" stop-color="#915E25"/>
<stop offset="0.3989" stop-color="#DEA826"/>
<stop offset="0.6461" stop-color="#FDBF20"/>
<stop offset="0.7472" stop-color="#FCB61F"/>
<stop offset="0.7977" stop-color="#DD9B1F"/>
<stop offset="0.8908" stop-color="#AA6D1E"/>
<stop offset="0.9611" stop-color="#8A511D"/>
<stop offset="1" stop-color="#7E461D"/>
</linearGradient>
<linearGradient id="paint5_linear_217_6465" x1="39.4076" y1="54.4787" x2="67.206" y2="71.9138" gradientUnits="userSpaceOnUse">
<stop offset="0.00561798" stop-color="#75461C"/>
<stop offset="0.1629" stop-color="#FCEB7F"/>
<stop offset="0.2579" stop-color="#FABB51"/>
<stop offset="0.2865" stop-color="#FAAB42"/>
<stop offset="0.3427" stop-color="#915E25"/>
<stop offset="0.3989" stop-color="#DEA826"/>
<stop offset="0.6461" stop-color="#FDBF20"/>
<stop offset="0.7472" stop-color="#FCB61F"/>
<stop offset="0.7977" stop-color="#DD9B1F"/>
<stop offset="0.8908" stop-color="#AA6D1E"/>
<stop offset="0.9611" stop-color="#8A511D"/>
<stop offset="1" stop-color="#7E461D"/>
</linearGradient>
<linearGradient id="paint6_linear_217_6465" x1="38.8236" y1="67.5468" x2="57.0475" y2="78.9768" gradientUnits="userSpaceOnUse">
<stop offset="0.00561798" stop-color="#75461C"/>
<stop offset="0.1629" stop-color="#FCEB7F"/>
<stop offset="0.2579" stop-color="#FABB51"/>
<stop offset="0.2865" stop-color="#FAAB42"/>
<stop offset="0.3427" stop-color="#915E25"/>
<stop offset="0.3989" stop-color="#DEA826"/>
<stop offset="0.6461" stop-color="#FDBF20"/>
<stop offset="0.7472" stop-color="#FCB61F"/>
<stop offset="0.7977" stop-color="#DD9B1F"/>
<stop offset="0.8908" stop-color="#AA6D1E"/>
<stop offset="0.9611" stop-color="#8A511D"/>
<stop offset="1" stop-color="#7E461D"/>
</linearGradient>
<linearGradient id="paint7_linear_217_6465" x1="-13.7342" y1="11.1015" x2="180.59" y2="102.017" gradientUnits="userSpaceOnUse">
<stop offset="0.00561798" stop-color="#75461C"/>
<stop offset="0.1629" stop-color="#FCEB7F"/>
<stop offset="0.2579" stop-color="#FABB51"/>
<stop offset="0.2865" stop-color="#FAAB42"/>
<stop offset="0.3427" stop-color="#915E25"/>
<stop offset="0.3989" stop-color="#DEA826"/>
<stop offset="0.6461" stop-color="#FDBF20"/>
<stop offset="0.7472" stop-color="#FCB61F"/>
<stop offset="0.7827" stop-color="#BD8219"/>
<stop offset="0.8156" stop-color="#895715"/>
<stop offset="0.8403" stop-color="#693D12"/>
<stop offset="0.8539" stop-color="#5D3311"/>
<stop offset="1" stop-color="#7E461D"/>
</linearGradient>
<linearGradient id="paint8_linear_217_6465" x1="-7.82283" y1="-1.53388" x2="186.501" y2="89.3819" gradientUnits="userSpaceOnUse">
<stop offset="0.00561798" stop-color="#75461C"/>
<stop offset="0.1629" stop-color="#FCEB7F"/>
<stop offset="0.2579" stop-color="#FABB51"/>
<stop offset="0.2865" stop-color="#FAAB42"/>
<stop offset="0.3427" stop-color="#915E25"/>
<stop offset="0.3989" stop-color="#DEA826"/>
<stop offset="0.6461" stop-color="#FDBF20"/>
<stop offset="0.7472" stop-color="#FCB61F"/>
<stop offset="0.7827" stop-color="#BD8219"/>
<stop offset="0.8156" stop-color="#895715"/>
<stop offset="0.8403" stop-color="#693D12"/>
<stop offset="0.8539" stop-color="#5D3311"/>
<stop offset="1" stop-color="#7E461D"/>
</linearGradient>
<linearGradient id="paint9_linear_217_6465" x1="-20.7359" y1="26.0668" x2="173.588" y2="116.983" gradientUnits="userSpaceOnUse">
<stop offset="0.00561798" stop-color="#75461C"/>
<stop offset="0.1629" stop-color="#FCEB7F"/>
<stop offset="0.2579" stop-color="#FABB51"/>
<stop offset="0.2865" stop-color="#FAAB42"/>
<stop offset="0.3427" stop-color="#915E25"/>
<stop offset="0.3989" stop-color="#DEA826"/>
<stop offset="0.6461" stop-color="#FDBF20"/>
<stop offset="0.7472" stop-color="#FCB61F"/>
<stop offset="0.7827" stop-color="#BD8219"/>
<stop offset="0.8156" stop-color="#895715"/>
<stop offset="0.8403" stop-color="#693D12"/>
<stop offset="0.8539" stop-color="#5D3311"/>
<stop offset="1" stop-color="#7E461D"/>
</linearGradient>
<linearGradient id="paint10_linear_217_6465" x1="26.1423" y1="74.9173" x2="78.854" y2="59.8642" gradientUnits="userSpaceOnUse">
<stop offset="0.00561798" stop-color="#C4C5C7"/>
<stop offset="0.2753" stop-color="white"/>
<stop offset="0.4625" stop-color="#ABA9A9"/>
<stop offset="0.6555" stop-color="#AAB1B4"/>
</linearGradient>
<linearGradient id="paint11_linear_217_6465" x1="12.757" y1="6.43835" x2="92.6802" y2="46.8826" gradientUnits="userSpaceOnUse">
<stop offset="0.00561798" stop-color="#717171"/>
<stop offset="0.0801" stop-color="#959799"/>
<stop offset="0.1313" stop-color="#AAACAF"/>
<stop offset="0.3094" stop-color="#777777"/>
<stop offset="0.5403" stop-color="white"/>
<stop offset="0.5928" stop-color="#EAEAEA"/>
<stop offset="0.7013" stop-color="#B3B3B3"/>
<stop offset="0.8099" stop-color="#767676"/>
</linearGradient>
<linearGradient id="paint12_linear_217_6465" x1="29.6733" y1="55.0792" x2="70.7745" y2="60.886" gradientUnits="userSpaceOnUse">
<stop offset="0.00561798" stop-color="#C4C5C7"/>
<stop offset="0.2753" stop-color="white"/>
<stop offset="0.4884" stop-color="#B1B6B8"/>
<stop offset="0.6555" stop-color="#B6BDC0"/>
</linearGradient>
<linearGradient id="paint13_linear_217_6465" x1="29.6732" y1="55.0792" x2="70.7745" y2="60.886" gradientUnits="userSpaceOnUse">
<stop offset="0.00561798" stop-color="#C4C5C7"/>
<stop offset="0.2753" stop-color="white"/>
<stop offset="0.4884" stop-color="#B1B6B8"/>
<stop offset="0.6555" stop-color="#B6BDC0"/>
</linearGradient>
<linearGradient id="paint14_linear_217_6465" x1="29.6733" y1="55.0792" x2="70.7745" y2="60.886" gradientUnits="userSpaceOnUse">
<stop offset="0.00561798" stop-color="#C4C5C7"/>
<stop offset="0.2753" stop-color="white"/>
<stop offset="0.4884" stop-color="#B1B6B8"/>
<stop offset="0.6555" stop-color="#B6BDC0"/>
</linearGradient>
<linearGradient id="paint15_linear_217_6465" x1="29.6733" y1="55.0792" x2="70.7744" y2="60.886" gradientUnits="userSpaceOnUse">
<stop offset="0.00561798" stop-color="#C4C5C7"/>
<stop offset="0.2753" stop-color="white"/>
<stop offset="0.4884" stop-color="#B1B6B8"/>
<stop offset="0.6555" stop-color="#B6BDC0"/>
</linearGradient>
<linearGradient id="paint16_linear_217_6465" x1="29.6733" y1="55.0792" x2="70.7746" y2="60.8861" gradientUnits="userSpaceOnUse">
<stop offset="0.00561798" stop-color="#C4C5C7"/>
<stop offset="0.2753" stop-color="white"/>
<stop offset="0.4884" stop-color="#B1B6B8"/>
<stop offset="0.6555" stop-color="#B6BDC0"/>
</linearGradient>
<linearGradient id="paint17_linear_217_6465" x1="29.6734" y1="55.0792" x2="70.7746" y2="60.8861" gradientUnits="userSpaceOnUse">
<stop offset="0.00561798" stop-color="#C4C5C7"/>
<stop offset="0.2753" stop-color="white"/>
<stop offset="0.4884" stop-color="#B1B6B8"/>
<stop offset="0.6555" stop-color="#B6BDC0"/>
</linearGradient>
<linearGradient id="paint18_linear_217_6465" x1="29.6732" y1="55.0792" x2="70.7744" y2="60.886" gradientUnits="userSpaceOnUse">
<stop offset="0.00561798" stop-color="#C4C5C7"/>
<stop offset="0.2753" stop-color="white"/>
<stop offset="0.4884" stop-color="#B1B6B8"/>
<stop offset="0.6555" stop-color="#B6BDC0"/>
</linearGradient>
<linearGradient id="paint19_linear_217_6465" x1="29.6732" y1="55.0792" x2="70.7744" y2="60.886" gradientUnits="userSpaceOnUse">
<stop offset="0.00561798" stop-color="#C4C5C7"/>
<stop offset="0.2753" stop-color="white"/>
<stop offset="0.4884" stop-color="#B1B6B8"/>
<stop offset="0.6555" stop-color="#B6BDC0"/>
</linearGradient>
<linearGradient id="paint20_linear_217_6465" x1="29.6737" y1="55.0792" x2="70.7746" y2="60.886" gradientUnits="userSpaceOnUse">
<stop offset="0.00561798" stop-color="#C4C5C7"/>
<stop offset="0.2753" stop-color="white"/>
<stop offset="0.4884" stop-color="#B1B6B8"/>
<stop offset="0.6555" stop-color="#B6BDC0"/>
</linearGradient>
<linearGradient id="paint21_linear_217_6465" x1="29.6734" y1="55.0792" x2="70.7744" y2="60.886" gradientUnits="userSpaceOnUse">
<stop offset="0.00561798" stop-color="#C4C5C7"/>
<stop offset="0.2753" stop-color="white"/>
<stop offset="0.4884" stop-color="#B1B6B8"/>
<stop offset="0.6555" stop-color="#B6BDC0"/>
</linearGradient>
<linearGradient id="paint22_linear_217_6465" x1="23.6787" y1="36.4644" x2="95.7385" y2="56.66" gradientUnits="userSpaceOnUse">
<stop offset="0.00561798" stop-color="#75461C"/>
<stop offset="0.1629" stop-color="#FCEB7F"/>
<stop offset="0.2491" stop-color="#FABB51"/>
<stop offset="0.2751" stop-color="#FAAB42"/>
<stop offset="0.36" stop-color="#B47433"/>
<stop offset="0.4581" stop-color="#DEA826"/>
<stop offset="0.5344" stop-color="#FDBF20"/>
<stop offset="0.6755" stop-color="#FCB61F"/>
<stop offset="0.766" stop-color="#BD8219"/>
<stop offset="0.8499" stop-color="#895715"/>
<stop offset="0.9128" stop-color="#693D12"/>
<stop offset="0.9475" stop-color="#5D3311"/>
<stop offset="1" stop-color="#7E461D"/>
</linearGradient>
<linearGradient id="paint23_linear_217_6465" x1="23.6788" y1="36.4644" x2="95.7386" y2="56.66" gradientUnits="userSpaceOnUse">
<stop offset="0.00561798" stop-color="#75461C"/>
<stop offset="0.1629" stop-color="#FCEB7F"/>
<stop offset="0.2491" stop-color="#FABB51"/>
<stop offset="0.2751" stop-color="#FAAB42"/>
<stop offset="0.36" stop-color="#B47433"/>
<stop offset="0.4581" stop-color="#DEA826"/>
<stop offset="0.5344" stop-color="#FDBF20"/>
<stop offset="0.6755" stop-color="#FCB61F"/>
<stop offset="0.766" stop-color="#BD8219"/>
<stop offset="0.8499" stop-color="#895715"/>
<stop offset="0.9128" stop-color="#693D12"/>
<stop offset="0.9475" stop-color="#5D3311"/>
<stop offset="1" stop-color="#7E461D"/>
</linearGradient>
<linearGradient id="paint24_linear_217_6465" x1="23.6786" y1="36.4644" x2="95.7385" y2="56.66" gradientUnits="userSpaceOnUse">
<stop offset="0.00561798" stop-color="#75461C"/>
<stop offset="0.1629" stop-color="#FCEB7F"/>
<stop offset="0.2491" stop-color="#FABB51"/>
<stop offset="0.2751" stop-color="#FAAB42"/>
<stop offset="0.36" stop-color="#B47433"/>
<stop offset="0.4581" stop-color="#DEA826"/>
<stop offset="0.5344" stop-color="#FDBF20"/>
<stop offset="0.6755" stop-color="#FCB61F"/>
<stop offset="0.766" stop-color="#BD8219"/>
<stop offset="0.8499" stop-color="#895715"/>
<stop offset="0.9128" stop-color="#693D12"/>
<stop offset="0.9475" stop-color="#5D3311"/>
<stop offset="1" stop-color="#7E461D"/>
</linearGradient>
<linearGradient id="paint25_linear_217_6465" x1="23.6787" y1="36.4644" x2="95.7386" y2="56.66" gradientUnits="userSpaceOnUse">
<stop offset="0.00561798" stop-color="#75461C"/>
<stop offset="0.1629" stop-color="#FCEB7F"/>
<stop offset="0.2491" stop-color="#FABB51"/>
<stop offset="0.2751" stop-color="#FAAB42"/>
<stop offset="0.36" stop-color="#B47433"/>
<stop offset="0.4581" stop-color="#DEA826"/>
<stop offset="0.5344" stop-color="#FDBF20"/>
<stop offset="0.6755" stop-color="#FCB61F"/>
<stop offset="0.766" stop-color="#BD8219"/>
<stop offset="0.8499" stop-color="#895715"/>
<stop offset="0.9128" stop-color="#693D12"/>
<stop offset="0.9475" stop-color="#5D3311"/>
<stop offset="1" stop-color="#7E461D"/>
</linearGradient>
<linearGradient id="paint26_linear_217_6465" x1="22.8685" y1="48.8668" x2="37.7819" y2="38.874" gradientUnits="userSpaceOnUse">
<stop offset="0.00561798" stop-color="#C4C5C7"/>
<stop offset="0.2753" stop-color="white"/>
<stop offset="0.4884" stop-color="#B1B6B8"/>
<stop offset="0.6555" stop-color="#B6BDC0"/>
</linearGradient>
</defs>
</svg>
