<svg width="32" height="28" viewBox="0 0 32 28" fill="none" xmlns="http://www.w3.org/2000/svg">
<g clip-path="url(#clip0_431_1690)">
<path d="M5.33411 4.2341C5.33411 3.61133 5.33411 3.00057 5.33411 2.39113C5.32701 2.07606 5.38382 1.76282 5.50113 1.47032C5.61845 1.17782 5.79382 0.912125 6.01666 0.689281C6.23951 0.466437 6.5052 0.291065 6.7977 0.173754C7.0902 0.056443 7.40344 -0.000374069 7.71851 0.00673342C8.60755 0.00673342 9.49658 0.00673342 10.3856 0.00673342C11.7925 0.00673342 12.786 1.01357 12.7954 2.42847C12.7954 3.02724 12.7954 3.62867 12.7954 4.24877H19.2031C19.2031 3.72335 19.1924 3.19393 19.2031 2.66584C19.199 2.3341 19.233 2.00299 19.3044 1.67901C19.4362 1.20273 19.7195 0.782311 20.1114 0.481322C20.5034 0.180333 20.9827 0.015144 21.4768 0.0107341C22.4423 -0.00260147 23.4087 -0.00260147 24.376 0.0107341C24.9776 0.0206378 25.5519 0.263585 25.978 0.688427C26.404 1.11327 26.6487 1.68686 26.6603 2.28845C26.6723 2.94056 26.6603 3.59266 26.6603 4.1821C27.4605 4.32745 28.2446 4.4008 28.9834 4.6115C30.9024 5.15826 31.9919 6.63851 31.9946 8.6335C31.9999 13.5445 31.9999 18.4556 31.9946 23.3666C31.999 23.941 31.8893 24.5106 31.6718 25.0422C31.4544 25.5739 31.1335 26.0571 30.7278 26.4637C30.3222 26.8704 29.8398 27.1925 29.3086 27.4112C28.7775 27.63 28.2082 27.741 27.6338 27.738C19.8797 27.746 12.1246 27.746 4.36862 27.738C3.79125 27.7414 3.219 27.6297 2.68532 27.4094C2.15164 27.189 1.66725 26.8645 1.26047 26.4547C0.853698 26.045 0.532701 25.5582 0.316256 25.0229C0.0998096 24.4877 -0.00774156 23.9146 -0.000108699 23.3373C-0.000108699 18.5036 -0.000108699 13.6699 -0.000108699 8.83621C-0.000108699 6.3918 1.36012 4.80087 3.78185 4.41147C4.28327 4.33145 4.79136 4.29545 5.33411 4.2341ZM10.6683 14.9679C10.7064 14.958 10.7452 14.9509 10.7844 14.9466H12.6833C13.4288 14.9466 13.8675 14.5078 13.8689 13.773C13.8689 13.5063 13.8689 13.2396 13.8689 12.9729C13.8689 12.1354 13.4568 11.7354 12.6153 11.7354C11.9766 11.7354 11.3351 11.7354 10.6683 11.7354C10.6683 11.0086 10.6683 10.3218 10.6683 9.63634C10.6731 9.49165 10.6483 9.34751 10.5955 9.2127C10.5428 9.07788 10.4632 8.95522 10.3615 8.85217C10.2598 8.74912 10.1382 8.66784 10.0041 8.61328C9.87002 8.55873 9.72623 8.53203 9.58149 8.53482C9.23743 8.53482 8.89204 8.52815 8.54798 8.53482C8.40368 8.53294 8.2605 8.56034 8.1271 8.61539C7.9937 8.67044 7.87285 8.75198 7.77187 8.85508C7.67089 8.95818 7.59188 9.08069 7.53961 9.2152C7.48735 9.34972 7.46292 9.49344 7.4678 9.63767C7.46113 10.1818 7.4678 10.7245 7.4678 11.2686V11.7354C6.72901 11.7354 6.0409 11.7354 5.35412 11.7354C5.21234 11.7327 5.07146 11.7583 4.93971 11.8108C4.80795 11.8632 4.68797 11.9413 4.58678 12.0407C4.48559 12.14 4.40521 12.2585 4.35035 12.3893C4.29549 12.52 4.26724 12.6604 4.26727 12.8022C4.2606 13.0902 4.26727 13.3796 4.26727 13.6677C4.26727 14.5425 4.66734 14.9412 5.55548 14.9372C6.18359 14.9372 6.81303 14.9372 7.4678 14.9372C7.4678 15.664 7.4678 16.3495 7.4678 17.0362C7.46329 17.1802 7.48799 17.3237 7.54042 17.4579C7.59285 17.5921 7.67192 17.7143 7.77286 17.8171C7.8738 17.9199 7.99452 18.0012 8.12774 18.0561C8.26096 18.111 8.40391 18.1383 8.54798 18.1364C8.8587 18.1431 9.17075 18.1364 9.48147 18.1364C10.2416 18.1364 10.6683 17.7017 10.6697 16.9362C10.6683 16.2868 10.6683 15.6333 10.6683 14.9679ZM22.9224 14.9439C24.1559 14.9439 25.3895 14.9439 26.623 14.9439C26.7706 14.9505 26.918 14.9263 27.0559 14.8729C27.1937 14.8196 27.3189 14.7382 27.4236 14.6338C27.5283 14.5295 27.6101 14.4046 27.664 14.267C27.7179 14.1293 27.7426 13.982 27.7365 13.8344C27.7365 13.489 27.7445 13.1449 27.7365 12.8009C27.7379 12.6609 27.7115 12.5221 27.6588 12.3925C27.6061 12.2628 27.5282 12.145 27.4296 12.0457C27.3309 11.9464 27.2135 11.8678 27.0842 11.8143C26.9549 11.7608 26.8163 11.7335 26.6763 11.734C24.1764 11.7269 21.6759 11.7269 19.1751 11.734C18.8989 11.7347 18.6342 11.8444 18.4385 12.0391C18.2427 12.2339 18.1317 12.4981 18.1296 12.7742C18.1189 13.0969 18.1296 13.4183 18.1296 13.741C18.1296 14.5038 18.559 14.9412 19.3298 14.9412L22.9224 14.9439Z" fill="#3357B4"/>
</g>
<defs>
<clipPath id="clip0_431_1690">
<rect width="32" height="27.738" fill="white"/>
</clipPath>
</defs>
</svg>
