<svg width="32" height="30" viewBox="0 0 32 30" fill="none" xmlns="http://www.w3.org/2000/svg">
<g clip-path="url(#clip0_434_1883)">
<path d="M19.1729 7.01421C19.628 7.08903 19.9523 7.05318 20.264 6.68219C20.9343 5.91683 21.9335 5.93398 22.6287 6.67284C23.6606 7.76398 24.6722 8.88629 25.6745 10.0102C25.9028 10.29 26.1028 10.5918 26.2715 10.9111C26.7953 11.8028 27.3065 12.7006 27.8506 13.6468C27.6136 13.8634 27.3112 14.1425 27.0057 14.4262C25.3207 15.9693 23.6294 17.5094 21.9506 19.0604C21.762 19.2334 21.6108 19.2895 21.3754 19.1711C21.2222 19.0993 21.0576 19.0549 20.8891 19.0401C20.3295 18.9778 19.7668 18.9326 19.1604 18.8765V19.2241C19.1604 21.743 19.1604 24.2625 19.1604 26.7825C19.1604 28.4972 17.8791 29.7941 16.1613 29.7956C11.7968 29.7956 7.43222 29.7956 3.06766 29.7956C1.25949 29.7878 0 28.5362 0 26.7264C0 18.8546 0 10.9849 0 3.11728C0 1.26235 1.23455 0.012212 3.06922 0.00753564C7.49925 -0.00389534 11.9288 -0.00389534 16.3577 0.00753564C18.0724 0.00753564 19.2087 1.24052 19.1635 2.9427C19.1401 4.28948 19.1729 5.63937 19.1729 7.01421ZM1.24702 5.07822V23.5185H18.2018C18.2139 23.473 18.2222 23.4266 18.2267 23.3797C18.2267 21.6916 18.2267 20.0034 18.2267 18.3153C18.21 18.1537 18.1397 18.0023 18.0272 17.8851C17.2681 17.0667 16.4965 16.2593 15.7264 15.4487C15.2931 14.9936 15.1481 14.4558 15.3586 13.8697C15.4848 13.5158 15.7155 13.1994 15.9135 12.844C15.8418 12.7645 15.7576 12.657 15.6547 12.5525C14.813 11.6318 13.9718 10.7111 13.1311 9.79038C12.6806 9.29313 12.5465 8.72418 12.8193 8.09756C12.9201 7.87912 13.07 7.68696 13.2573 7.53611C13.4447 7.38526 13.6644 7.27982 13.8993 7.22804C14.1342 7.17626 14.3779 7.17954 14.6113 7.23764C14.8447 7.29573 15.0616 7.40705 15.2448 7.5629C15.6625 7.92609 15.9992 8.38125 16.378 8.80212C16.8846 8.20823 17.3491 7.78892 18.0646 7.82477V5.07822H1.24702ZM9.70958 25.0149C9.29111 25.0229 8.89206 25.1929 8.5964 25.4892C8.30073 25.7854 8.1315 26.1848 8.12431 26.6033C8.11876 26.8146 8.15622 27.0247 8.23443 27.2211C8.31264 27.4174 8.42995 27.5958 8.57925 27.7454C8.72855 27.895 8.90671 28.0127 9.1029 28.0913C9.29909 28.1698 9.50921 28.2077 9.72049 28.2026C10.1459 28.196 10.5517 28.022 10.8496 27.7182C11.1475 27.4144 11.3137 27.0054 11.312 26.5799C11.3034 26.16 11.1298 25.7603 10.8287 25.4674C10.5277 25.1745 10.1234 25.0119 9.70335 25.0149H9.70958ZM9.61606 3.05649C10.3424 3.05649 11.0688 3.05649 11.7983 3.05649C12.188 3.05649 12.3891 2.86009 12.3766 2.53274C12.3769 2.455 12.3607 2.37808 12.3292 2.30702C12.2976 2.23597 12.2514 2.17238 12.1936 2.12043C12.1357 2.06848 12.0676 2.02933 11.9935 2.00556C11.9195 1.98179 11.8413 1.97393 11.764 1.9825C11.5443 1.9825 11.3245 1.99497 11.1031 1.99653C9.92313 1.99653 8.74314 1.99653 7.56316 1.99653C7.17814 1.99653 6.93965 2.22255 6.93185 2.53898C6.92406 2.85541 7.13449 3.05026 7.55536 3.05337C8.24122 3.06117 8.92864 3.05805 9.61606 3.05649Z" fill="#3357B4"/>
<path d="M22.4072 20.794C22.4924 20.6021 22.6019 20.4218 22.733 20.2578C24.7989 18.3062 26.87 16.3619 28.9463 14.4249C29.3328 14.0632 29.6571 14.0804 30.0234 14.4638C30.558 15.0297 31.0943 15.5939 31.6133 16.1785C31.7785 16.3597 31.9067 16.5715 31.9905 16.802C31.9998 16.8791 31.9917 16.9574 31.9669 17.031C31.9421 17.1046 31.9012 17.1717 31.8471 17.2275C31.459 17.6281 31.0444 18.0069 30.6375 18.3826L25.5544 23.1478C25.054 23.6154 24.775 23.6045 24.3074 23.1025C23.7852 22.5429 23.2536 21.9911 22.7486 21.4191C22.6129 21.2235 22.4984 21.0139 22.4072 20.794Z" fill="#3357B4"/>
<path d="M9.05656 10.4952V9.20612H10.3659V10.411L12.9457 11.2232L12.2739 12.704L10.38 12.054C10.38 12.7913 10.3706 13.4241 10.3893 14.057C10.3893 14.1381 10.528 14.2534 10.6247 14.2861C10.9692 14.3999 11.3261 14.4763 11.6737 14.5823C11.9901 14.6738 12.2807 14.8382 12.522 15.0623C12.7634 15.2864 12.9489 15.5639 13.0636 15.8727C13.1784 16.1814 13.2191 16.5127 13.1827 16.84C13.1462 17.1674 13.0336 17.4816 12.8537 17.7575C12.6333 18.1188 12.3409 18.4309 11.9947 18.6744C11.6485 18.9179 11.2559 19.0876 10.8414 19.1729C10.6652 19.2134 10.4875 19.2462 10.2646 19.2929V20.582H9.05968V19.3132C7.95295 19.1994 6.89766 19.0669 6.00293 18.3405L6.66073 16.8893C7.39179 17.3367 8.1478 17.6515 9.04409 17.6827C9.04409 17.0592 9.05656 16.4497 9.03162 15.8434C9.03162 15.7639 8.8508 15.6516 8.73701 15.622C8.1193 15.4816 7.52893 15.2404 6.98963 14.9081C5.94058 14.216 5.96708 12.6931 6.48927 11.9573C6.95501 11.2736 7.66518 10.7943 8.47358 10.6184C8.64972 10.5794 8.82586 10.5435 9.05656 10.4952ZM10.408 15.8995V17.5346C10.9473 17.4754 11.2498 17.1995 11.2965 16.7552C11.3324 16.4139 10.977 16.0709 10.408 15.8995ZM9.02227 12.1802C8.41747 12.3611 8.07609 12.7211 8.12442 13.1155C8.17274 13.5099 8.4954 13.7172 9.02227 13.7515V12.1802Z" fill="#3357B4"/>
</g>
<defs>
<clipPath id="clip0_434_1883">
<rect width="32" height="29.7943" fill="white"/>
</clipPath>
</defs>
</svg>
