<svg width="30" height="33" viewBox="0 0 30 33" fill="none" xmlns="http://www.w3.org/2000/svg">
<g clip-path="url(#clip0_432_1704)">
<path d="M5.16523 30.7987V23.2365H4.78191C3.6209 23.2365 2.46036 23.2365 1.30027 23.2365C0.41366 23.2365 0 22.8241 0 21.9565C0 17.6382 0 13.3195 0 9.00038C0 8.18916 0.41366 7.7698 1.22857 7.76293C2.40061 7.76293 3.57264 7.76293 4.74468 7.76293H5.17902V1.2732C5.1804 0.427607 5.60233 0 6.44482 0H26.6121C27.5042 0 27.9151 0.412483 27.9151 1.3062C27.9151 10.9638 27.9151 20.6209 27.9151 30.2776V30.7987H28.7673C29.5146 30.7987 30 31.2291 30.0083 31.8849C30.0165 32.5408 29.5077 32.9986 28.7439 32.9986C26.4696 32.9986 24.195 32.9986 21.9198 32.9986H4.37652C3.61815 32.9986 3.14933 32.6329 3.0859 31.9977C3.06994 31.8522 3.08394 31.7049 3.12705 31.565C3.17017 31.4251 3.24148 31.2954 3.33662 31.1839C3.43177 31.0724 3.54874 30.9815 3.68037 30.9167C3.812 30.8519 3.95552 30.8145 4.10213 30.807C4.44409 30.7891 4.7888 30.7987 5.16523 30.7987ZM2.23238 9.98896V21.0064H13.273V9.99721H11.0875C11.0875 11.2649 11.0875 12.5024 11.0875 13.7384C11.0875 14.5263 10.6573 14.947 9.86855 14.9498C8.45567 14.9553 7.04279 14.9553 5.62991 14.9498C4.82328 14.9498 4.40824 14.5263 4.4041 13.7123C4.4041 12.6 4.4041 11.489 4.4041 10.3781V9.98896H2.23238ZM20.9588 16.4993C20.9588 16.9118 20.9588 17.3243 20.9588 17.7368C20.9778 18.0117 21.0995 18.2694 21.3 18.4591C21.5004 18.6488 21.765 18.7565 22.0413 18.761C22.3176 18.7655 22.5855 18.6664 22.792 18.4834C22.9986 18.3003 23.1287 18.0466 23.1567 17.7725C23.176 16.9269 23.176 16.0786 23.1567 15.233C23.1294 14.9589 23.0001 14.705 22.7941 14.5214C22.5882 14.3378 22.3206 14.238 22.0444 14.2416C21.7682 14.2453 21.5034 14.3521 21.3024 14.541C21.1014 14.7299 20.9788 14.9871 20.9588 15.2619C20.9588 15.6743 20.9588 16.0868 20.9588 16.4993ZM8.85784 12.732V9.99446H6.62959V12.732H8.85784Z" fill="#3357B4"/>
</g>
<defs>
<clipPath id="clip0_432_1704">
<rect width="30" height="33" fill="white"/>
</clipPath>
</defs>
</svg>
