<svg width="33" height="34" viewBox="0 0 33 34" fill="none" xmlns="http://www.w3.org/2000/svg">
<g clip-path="url(#clip0_431_1687)">
<path d="M16.5203 8.9542e-06C18.1971 8.9542e-06 19.8739 8.9542e-06 21.5447 8.9542e-06C24.5182 0.0183016 26.8292 1.40245 28.7073 3.58537C30.7967 6.00407 31.9715 8.86993 32.5487 11.9777C33.4532 16.8313 33.0325 21.5529 30.8821 26.0468C29.7032 28.5061 28.0589 30.5813 25.6199 31.9268C24.3208 32.6373 22.8606 33.0013 21.38 32.9837C18.2825 32.9837 15.1829 32.9309 12.0853 32.9959C8.86174 33.065 6.32109 31.7561 4.27028 29.3679C2.21946 26.9797 1.05076 24.1464 0.457267 21.0772C-0.327285 17.0122 -0.124034 12.9898 1.23166 9.06098C2.21133 6.22562 3.69914 3.71546 6.12597 1.8618C7.71052 0.614636 9.67905 -0.0434572 11.6951 8.9542e-06C13.3028 0.0264317 14.9125 8.9542e-06 16.5203 8.9542e-06ZM2.51215 16.4634C2.48141 18.4974 2.76806 20.5238 3.36174 22.4695C4.13003 24.9634 5.2845 27.2358 7.34954 28.937C9.81499 30.9695 12.8373 31.0142 15.3617 29.0407C16.6155 28.0483 17.6257 26.7823 18.315 25.3394C20.7073 20.435 20.9349 15.3598 19.3638 10.185C18.63 7.76424 17.4186 5.60977 15.4126 3.98578C13.0081 2.03253 10.0203 2.00001 7.55889 3.88212C6.55194 4.6651 5.70113 5.63037 5.05076 6.72765C3.22962 9.71139 2.53857 13.0081 2.51215 16.4634Z" fill="#3357B4"/>
<path d="M17.3719 16.4634C17.3089 18.7561 16.8699 20.935 15.626 22.8638C15.2609 23.432 14.8175 23.9459 14.3089 24.3903C12.4797 25.9716 10.0874 25.8903 8.33739 24.2277C6.86381 22.8334 6.12398 21.0529 5.77235 19.1057C5.22357 16.0569 5.49389 13.0955 7.07316 10.3659C7.44487 9.7408 7.90644 9.17377 8.44308 8.68295C10.2215 7.03661 12.6687 7.05693 14.4512 8.70531C15.9471 10.0854 16.687 11.8699 17.0528 13.8171C17.2215 14.6829 17.2764 15.5834 17.3719 16.4634ZM13.7988 11.0386C11.75 13.9431 11.9207 19.4756 13.7988 21.9268C15.7947 19.5 15.8882 13.7236 13.7988 11.0386Z" fill="#3357B4"/>
</g>
<defs>
<clipPath id="clip0_431_1687">
<rect width="33" height="33.0041" fill="white"/>
</clipPath>
</defs>
</svg>
