<svg width="21" height="51" viewBox="0 0 21 51" fill="none" xmlns="http://www.w3.org/2000/svg">
<g clip-path="url(#clip0_431_1697)">
<path d="M0.0966304 33.1067C0.0966304 30.7261 0.0819098 28.3435 0.0966304 25.9567C0.144998 19.8434 5.11005 15.2758 11.2128 15.7258C15.8393 16.0686 20.0452 20.0516 20.4952 24.6634C20.6676 26.3983 20.6024 28.1606 20.6108 29.9102C20.6256 33.3254 20.6108 36.7406 20.6108 40.1557C20.5982 45.3101 17.2062 49.4087 12.1507 50.3655C6.06689 51.5222 0.210189 46.8074 0.109248 40.6205C0.0671892 38.118 0.109248 35.6113 0.109248 33.1067H0.0966304ZM8.32335 30.0048V26.6191C8.32335 26.5139 8.2876 26.3857 8.33386 26.3079C8.40957 26.1838 8.54416 25.9987 8.6451 25.9966C9.65872 25.9798 10.6723 25.9819 11.686 26.0113C12.1192 26.024 12.3379 26.3205 12.3547 26.7453C12.3715 27.1701 12.3547 27.6201 12.3799 28.0575C12.401 28.6611 12.8405 29.1447 13.3641 29.1552C13.8877 29.1658 14.3693 28.6695 14.3903 28.0891C14.4166 27.6163 14.4166 27.1424 14.3903 26.6696C14.2747 25.0629 13.4966 24.146 11.8941 24.0156C10.6387 23.9172 9.37696 23.9291 8.12357 24.0514C6.9354 24.1587 6.26667 24.9073 6.18886 26.1039C6.11736 27.2037 6.15731 28.3099 6.1447 29.4118C6.1447 29.5969 6.12787 29.7798 6.11736 30.0027H5.48648C4.48968 30.0027 4.11956 30.3665 4.11956 31.3549C4.11956 33.8785 4.11956 36.402 4.11956 38.9255C4.11956 39.855 4.5002 40.2525 5.40867 40.2525C8.6493 40.2525 11.8899 40.2293 15.1285 40.2693C15.9991 40.2798 16.5459 39.6489 16.5627 38.8246C16.6153 36.2863 16.5837 33.746 16.5753 31.2077C16.5753 30.4107 16.1673 30.0132 15.3787 30.0111C14.4156 30.0111 13.4524 30.0111 12.4893 30.0111L8.32335 30.0048Z" fill="#3357B4"/>
<path d="M10.3465 1.00799e-05C14.3547 0.0946426 17.7678 1.5646 20.5184 4.4961C20.8005 4.81877 20.969 5.22509 20.9979 5.65272C21.0294 6.26678 20.5079 6.60325 19.9191 6.40347C19.5897 6.29086 19.2919 6.10125 19.0506 5.8504C14.4157 0.881144 6.82196 0.729732 2.00411 5.52655C1.86332 5.68093 1.7003 5.81347 1.52043 5.9198C1.09984 6.13009 0.416388 5.98499 0.172446 5.65272C-0.124069 5.24896 -0.037848 4.54658 0.40377 4.11547C1.90216 2.62985 3.71239 1.4963 5.70319 0.797026C7.19397 0.267684 8.76453 -0.00190007 10.3465 1.00799e-05Z" fill="#3357B4"/>
<path d="M10.1466 4.01874C13.1812 4.05869 15.5617 5.00712 17.4397 7.10376C17.6247 7.28085 17.7526 7.5092 17.8069 7.75951C17.8613 8.00982 17.8396 8.27065 17.7446 8.50852C17.6868 8.65521 17.5949 8.78606 17.4766 8.89027C17.3583 8.99449 17.2169 9.06908 17.0641 9.1079C16.9112 9.14672 16.7514 9.14865 16.5977 9.11355C16.444 9.07844 16.3008 9.00729 16.18 8.90598C16.0601 8.80504 15.9571 8.68307 15.8477 8.57161C13.0066 5.65903 8.63463 5.46767 5.5454 8.11738C5.34562 8.28771 5.15846 8.47277 4.95658 8.64311C4.45818 9.0637 3.85884 9.05319 3.44666 8.62629C3.34523 8.52823 3.26456 8.41077 3.20946 8.28089C3.15437 8.151 3.12598 8.01136 3.12598 7.87028C3.12598 7.7292 3.15437 7.58956 3.20946 7.45967C3.26456 7.32979 3.34523 7.21233 3.44666 7.11427C4.87857 5.55006 6.79176 4.50872 8.88278 4.15543C9.38117 4.06711 9.88378 4.04608 10.1466 4.01874Z" fill="#3357B4"/>
<path d="M14.2433 10.908C14.0331 11.2087 13.9069 11.602 13.6314 11.7891C13.2234 12.0688 12.7545 11.9027 12.357 11.6335C12.111 11.4695 11.8944 11.255 11.642 11.1015C10.3676 10.3255 8.9229 10.6073 8.01232 11.7954C7.73474 12.1592 7.03656 12.2875 6.58863 12.0562C6.37614 11.9452 6.21294 11.7586 6.13119 11.5332C6.04945 11.3078 6.05509 11.06 6.14701 10.8386C6.22738 10.6263 6.34566 10.4303 6.4961 10.2603C8.4918 7.98279 11.8102 8.17626 13.8564 10.1215C14.0204 10.2876 14.0898 10.5694 14.2433 10.908Z" fill="#3357B4"/>
<path d="M10.2665 34.2948C10.8575 34.2948 11.3685 34.7154 11.358 35.1864C11.3474 35.6575 10.7986 36.219 10.3422 36.2169C9.80808 36.2169 9.16879 35.6596 9.1751 35.2054C9.1814 34.6986 9.67349 34.299 10.2665 34.2948Z" fill="#3357B4"/>
</g>
<defs>
<clipPath id="clip0_431_1697">
<rect width="21" height="50.5422" fill="white"/>
</clipPath>
</defs>
</svg>
