<svg width="37" height="36" viewBox="0 0 37 36" fill="none" xmlns="http://www.w3.org/2000/svg">
<g clip-path="url(#clip0_432_1711)">
<path d="M36.9999 8.29568C36.9563 9.06611 36.9886 9.84946 36.8578 10.6037C36.1067 14.9372 32.597 17.9252 28.207 17.9979C27.2227 18.016 26.2436 17.8517 25.3191 17.5134C25.2244 17.467 25.1166 17.4549 25.014 17.4794C24.9114 17.5039 24.8206 17.5633 24.757 17.6474C24.2483 18.1804 23.725 18.6989 23.2017 19.2303C22.646 18.8233 22.3262 18.1659 21.5865 18.0997C20.8112 18.0367 20.4268 18.6262 19.9713 19.0332C18.8682 17.9317 17.7876 16.8496 16.6748 15.7367C16.733 15.6753 16.8266 15.5752 16.9284 15.467C17.8684 14.5237 18.8036 13.574 19.7565 12.6437C19.8431 12.5742 19.9031 12.4771 19.9266 12.3686C19.9502 12.2601 19.9357 12.1468 19.8857 12.0477C19.4569 10.7968 19.3169 9.46513 19.4762 8.15245C19.6354 6.83977 20.0898 5.58017 20.8053 4.46814C21.5207 3.3561 22.4787 2.42049 23.6073 1.73146C24.7359 1.04243 26.0058 0.617878 27.3219 0.489634C27.9131 0.429873 28.5155 0.489634 29.1987 0.489634C29.0372 0.660841 28.9468 0.769056 28.845 0.869196C27.6191 2.09187 26.3997 3.32585 25.1673 4.54852C25.0737 4.62027 25.007 4.72135 24.9777 4.83556C24.9484 4.94978 24.9583 5.07051 25.0058 5.17843C25.584 6.88242 26.1364 8.59772 26.713 10.3001C26.7501 10.393 26.8054 10.4775 26.8755 10.5488C26.9457 10.62 27.0294 10.6766 27.1216 10.7152C28.8369 11.2999 30.5635 11.8555 32.2901 12.4337C32.386 12.4745 32.4929 12.4821 32.5935 12.4552C32.6942 12.4282 32.783 12.3684 32.8457 12.2851C34.0749 11.0398 35.3169 9.80908 36.5509 8.57026C36.6428 8.45851 36.7249 8.33909 36.7964 8.21331L36.9999 8.29568Z" fill="#3357B4"/>
<path d="M29.0259 35.243C28.6213 35.2435 28.221 35.1603 27.8502 34.9985C27.4793 34.8367 27.146 34.5999 26.8713 34.3029C24.7726 32.1989 22.6729 30.0965 20.5722 27.9958C19.3479 26.7801 18.1284 25.5623 16.9138 24.3423C16.3227 23.7495 16.3178 23.3054 16.8993 22.7271L20.6949 18.9315C21.2392 18.3888 21.7028 18.3937 22.2535 18.9444C25.5646 22.2544 28.8751 25.565 32.1851 28.876C33.5354 30.2295 33.5273 31.9448 32.1738 33.2983C31.7846 33.6892 31.4002 34.0849 30.9996 34.4629C30.4711 34.9742 29.7612 35.2547 29.0259 35.243Z" fill="#3357B4"/>
<path d="M13.6869 18.6262L17.0416 21.989C16.6329 22.4493 16.0192 22.8256 16.0725 23.5912C16.1258 24.3568 16.767 24.6734 17.1934 25.1967C17.1288 25.2726 17.069 25.3582 16.9963 25.4293C14.1644 28.2655 11.3309 31.1006 8.49576 33.9347C7.2747 35.1509 5.58848 35.4077 4.17037 34.6066C3.69143 34.3365 3.28169 33.959 2.9734 33.5037C2.66511 33.0484 2.46668 32.5278 2.39372 31.9829C2.32077 31.4379 2.37528 30.8834 2.55296 30.3631C2.73065 29.8427 3.02666 29.3707 3.41771 28.9842C6.82569 25.5246 10.2547 22.0859 13.6869 18.6262ZM7.99022 31.0936C7.99952 30.8818 7.96671 30.6702 7.89371 30.4711C7.8207 30.272 7.70894 30.0894 7.5649 29.9338C7.42085 29.7781 7.24737 29.6526 7.05451 29.5645C6.86164 29.4764 6.65321 29.4274 6.44128 29.4203C6.02995 29.4302 5.63789 29.5966 5.34513 29.8857C5.05236 30.1748 4.88096 30.5648 4.86592 30.9759C4.85087 31.3871 4.99331 31.7885 5.26417 32.0982C5.53502 32.408 5.91387 32.6026 6.32337 32.6425C6.53495 32.6521 6.7463 32.6194 6.94512 32.5464C7.14393 32.4734 7.32622 32.3615 7.48136 32.2174C7.63651 32.0732 7.7614 31.8996 7.84876 31.7066C7.93613 31.5137 7.98421 31.3053 7.99022 31.0936Z" fill="#3357B4"/>
<path d="M0.101755 4.4403L2.31775 2.0321C4.03628 3.12395 5.70958 4.18672 7.38934 5.26242C7.50956 5.36357 7.59536 5.4996 7.63484 5.65167C7.86743 6.35265 8.06609 7.06655 8.31483 7.76106C8.41001 8.0359 8.56314 8.28707 8.76384 8.49758C12.258 12.0078 15.7575 15.5117 19.2624 19.009C19.3531 19.0954 19.4486 19.1769 19.5482 19.2529L17.287 21.7289C17.1922 21.5855 17.0881 21.4484 16.9753 21.3187C13.451 17.7858 9.92137 14.2567 6.38633 10.7313C6.20364 10.559 5.98607 10.4279 5.74834 10.3469C5.00698 10.0901 4.26401 9.87207 3.52427 9.62657C3.38631 9.58529 3.26483 9.50166 3.17701 9.38753C2.11747 7.73468 1.06493 6.07753 0.0193819 4.41608C0.00821604 4.39107 0.00165035 4.36426 0 4.33693L0.101755 4.4403Z" fill="#3357B4"/>
</g>
<defs>
<clipPath id="clip0_432_1711">
<rect width="37" height="34.7824" fill="white" transform="translate(0 0.460571)"/>
</clipPath>
</defs>
</svg>
