<svg width="29" height="26" viewBox="0 0 29 26" fill="none" xmlns="http://www.w3.org/2000/svg">
<g clip-path="url(#clip0_431_1703)">
<path d="M24.1735 22.5591H4.83258C4.83258 22.8067 4.83258 23.0408 4.83258 23.2749C4.80842 24.6915 3.78451 25.7531 2.43441 25.7652C1.08431 25.7773 0.0105713 24.702 0 23.2704C0 19.4355 0.00402715 15.5982 0.0120814 11.7583C0.0215433 11.3939 0.0893551 11.0334 0.212935 10.6906C1.23684 7.70947 2.2698 4.7314 3.31183 1.75634C3.71806 0.593501 4.53054 0 5.75681 0C11.5841 0 17.4099 0 23.2341 0C24.4861 0 25.2789 0.578399 25.6972 1.77597C26.7287 4.72838 27.7601 7.68078 28.7705 10.6392C28.9096 11.0427 28.983 11.4659 28.9879 11.8927C29.0045 15.6545 29 19.4164 28.997 23.1783C28.997 24.3592 28.3838 25.2789 27.3886 25.6157C27.0349 25.7427 26.6562 25.785 26.2831 25.7391C25.9101 25.6932 25.553 25.5604 25.2405 25.3514C24.9281 25.1424 24.6691 24.863 24.4843 24.5356C24.2995 24.2083 24.1941 23.8422 24.1765 23.4667C24.1629 23.1828 24.1735 22.8928 24.1735 22.5591ZM25.7486 9.6561C25.7401 9.59453 25.728 9.53352 25.7123 9.47336C25.0599 7.51013 24.4136 5.54689 23.7491 3.58366C23.4863 2.79232 22.923 2.41629 22.0486 2.41629C17.0147 2.41629 11.9838 2.41629 6.95589 2.41629C6.03317 2.41629 5.50612 2.8029 5.21314 3.67729C4.58894 5.54689 3.96624 7.417 3.34505 9.28761C3.3073 9.39936 3.28162 9.51565 3.24236 9.65307L25.7486 9.6561ZM5.66318 17.7023C6.14152 17.7023 6.60911 17.5604 7.00669 17.2944C7.40427 17.0284 7.71396 16.6504 7.89653 16.2083C8.0791 15.7661 8.12633 15.2798 8.03224 14.8108C7.93814 14.3418 7.70696 13.9112 7.36798 13.5737C7.029 13.2362 6.59747 13.0069 6.12806 12.9149C5.65865 12.8229 5.17249 12.8722 4.73116 13.0567C4.28982 13.2412 3.91319 13.5526 3.64896 13.9513C3.38473 14.3501 3.2448 14.8183 3.24689 15.2966C3.24968 15.9348 3.50486 16.546 3.95672 16.9968C4.40859 17.4475 5.02042 17.7011 5.65865 17.7023H5.66318ZM25.7697 15.2951C25.7698 14.659 25.5189 14.0484 25.0716 13.5961C24.6244 13.1437 24.0167 12.886 23.3806 12.8788C22.7391 12.8812 22.1243 13.136 21.6693 13.5882C21.2143 14.0404 20.9556 14.6536 20.9492 15.2951C20.9924 15.9049 21.2651 16.4756 21.7124 16.8923C22.1596 17.309 22.7482 17.5406 23.3595 17.5406C23.9708 17.5406 24.5593 17.309 25.0066 16.8923C25.4538 16.4756 25.7265 15.9049 25.7697 15.2951Z" fill="#3357B4"/>
</g>
<defs>
<clipPath id="clip0_431_1703">
<rect width="29" height="25.7652" fill="white"/>
</clipPath>
</defs>
</svg>
