<svg width="27" height="35" viewBox="0 0 27 35" fill="none" xmlns="http://www.w3.org/2000/svg">
<g clip-path="url(#clip0_434_1887)">
<path d="M15.0293 24.8361C15.6386 25.0653 16.1572 25.2684 16.6759 25.4563C16.9696 25.562 17.2454 25.6841 17.2413 26.0519C17.2413 26.399 16.9668 26.5211 16.6924 26.624C16.1614 26.8161 15.6358 27.0192 15.0211 27.2498C15.6701 27.4954 16.23 27.7149 16.7939 27.918C17.0684 28.0168 17.3085 28.1485 17.3153 28.4751C17.3153 28.8236 17.0711 28.954 16.783 29.0583C16.2245 29.2572 15.6729 29.4699 15.0293 29.7169C15.4204 29.8665 15.747 29.9762 16.0585 30.1162C16.5528 30.3244 17.0866 30.4223 17.6227 30.403C20.5042 30.3865 23.3858 30.3961 26.2673 30.403C26.8162 30.403 26.9932 30.5704 26.9946 31.1096C26.9946 31.8643 26.9946 32.619 26.9946 33.3737C26.9946 33.8814 26.8176 34.0598 26.3167 34.0598C17.7755 34.0598 9.23424 34.0598 0.693 34.0598C0.174323 34.0529 5.87737e-05 33.8773 5.87737e-05 33.3435C5.87737e-05 32.6122 5.87737e-05 31.8808 5.87737e-05 31.1481C5.87737e-05 30.5512 0.156485 30.392 0.745142 30.392C3.69529 30.392 6.64543 30.392 9.59558 30.3824C9.97907 30.3687 10.3589 30.3031 10.7249 30.1875C11.1187 30.0764 11.4946 29.9063 11.9708 29.7265C11.7512 29.6387 11.603 29.5783 11.4549 29.5234C11.0158 29.3588 10.578 29.1914 10.1376 29.0336C9.87961 28.9416 9.68477 28.7934 9.67928 28.5012C9.67379 28.2089 9.8755 28.0387 10.1458 27.9413C10.7304 27.7286 11.3108 27.505 11.979 27.2552C11.3725 27.0261 10.8566 26.8258 10.3324 26.6378C10.0429 26.5335 9.75337 26.4237 9.74926 26.056C9.74514 25.6882 10.0456 25.5592 10.3461 25.4508C10.8676 25.2615 11.3849 25.0612 11.9749 24.8389C11.3176 24.5933 10.74 24.3737 10.1664 24.1638C9.90157 24.0663 9.68065 23.9291 9.67653 23.6149C9.67242 23.3007 9.89333 23.1456 10.176 23.0441C10.7523 22.8396 11.3218 22.6146 11.9708 22.369C11.3396 22.1316 10.7921 21.9175 10.2377 21.7186C9.96331 21.6225 9.75612 21.4826 9.74789 21.1697C9.73828 20.839 9.9688 20.6991 10.2474 20.5989C10.7962 20.3986 11.3533 20.1872 11.9557 19.9595C10.9458 19.5478 10.0141 19.2089 8.93694 19.2336C6.21732 19.2953 3.49495 19.2542 0.773957 19.2542C0.149624 19.2542 -0.00268555 19.1032 -0.00268555 18.4899C-0.000856 17.7718 5.87737e-05 17.0514 5.87737e-05 16.3287C5.87737e-05 15.7579 0.168834 15.5878 0.730048 15.5878H4.78341C3.90386 14.8399 3.48809 13.9576 3.60884 12.8627C3.68379 12.125 4.0479 11.4471 4.62149 10.9773C5.19289 10.4983 5.92575 10.2558 6.67008 10.2994C7.4144 10.343 8.11392 10.6695 8.62546 11.2119C9.53108 12.1725 9.91803 14.1045 8.25635 15.5631H18.763C17.915 14.8441 17.5047 13.9714 17.6117 12.8901C17.6792 12.1634 18.0272 11.4915 18.5819 11.0171C19.146 10.5198 19.8809 10.2606 20.6322 10.2939C21.3834 10.3271 22.0925 10.6503 22.6105 11.1955C23.7878 12.4304 23.6671 14.077 22.2455 15.5864H22.6407C23.8647 15.5864 25.0882 15.5864 26.3112 15.5864C26.8107 15.5864 26.9973 15.7689 26.9973 16.2725C26.9973 17.0272 26.9973 17.7818 26.9973 18.5365C26.9973 19.0854 26.8244 19.2542 26.2783 19.2542C23.3858 19.2542 20.4919 19.2638 17.5994 19.2542C17.1205 19.2397 16.644 19.3267 16.2012 19.5094C15.8458 19.6631 15.4767 19.7838 15.028 19.9567L16.2204 20.4054C16.4344 20.4864 16.6457 20.5701 16.8612 20.6483C17.1013 20.7361 17.2865 20.9159 17.2344 21.156C17.2095 21.2612 17.1637 21.3603 17.0995 21.4473C17.0354 21.5343 16.9543 21.6075 16.8612 21.6623C16.2917 21.9217 15.6948 22.1165 15.0238 22.3676L16.5552 22.9439C16.6924 22.9961 16.8639 23.0166 16.9668 23.1113C17.1123 23.2485 17.3016 23.4393 17.3003 23.6053C17.285 23.7069 17.2462 23.8035 17.1872 23.8876C17.1281 23.9716 17.0503 24.0408 16.96 24.0897C16.3548 24.3572 15.7264 24.5713 15.0293 24.8361ZM11.7361 28.4861C12.3564 28.718 12.8764 28.9156 13.3992 29.1063C13.4632 29.1282 13.5328 29.1282 13.5968 29.1063C14.1278 28.9142 14.6575 28.7138 15.2818 28.4792C14.6506 28.2446 14.1127 28.0401 13.5707 27.8453C13.5048 27.8318 13.4362 27.839 13.3745 27.8659C12.8545 28.0593 12.3495 28.2528 11.7293 28.4847L11.7361 28.4861ZM15.2722 23.6012C14.6685 23.3761 14.1498 23.1799 13.6256 22.9906C13.5522 22.9659 13.4727 22.9659 13.3992 22.9906C12.8709 23.1717 12.3495 23.372 11.7307 23.6012C12.344 23.8317 12.8737 24.0334 13.4061 24.2296C13.46 24.2474 13.5182 24.2474 13.5721 24.2296C14.1155 24.0348 14.6547 23.8303 15.2722 23.6012ZM11.8006 26.0423C12.3824 26.2591 12.8901 26.4539 13.4019 26.6364C13.4656 26.6576 13.5345 26.6576 13.5982 26.6364C14.1086 26.4512 14.6177 26.2591 15.1981 26.0423C14.6177 25.8241 14.1086 25.6306 13.5968 25.444C13.5339 25.4235 13.4662 25.4235 13.4033 25.444C12.8984 25.6306 12.3838 25.8241 11.8006 26.0423ZM15.1926 21.1628C14.873 21.0594 14.5596 20.9375 14.2541 20.7979C14.023 20.6651 13.7611 20.5952 13.4946 20.5952C13.228 20.5952 12.9662 20.6651 12.7351 20.7979C12.4329 20.935 12.1237 21.0564 11.8089 21.1615C12.3728 21.3728 12.8394 21.5553 13.3182 21.7199C13.4352 21.757 13.5608 21.757 13.6778 21.7199C14.158 21.5621 14.6341 21.3742 15.194 21.1628H15.1926ZM6.49587 12.6788C6.08422 12.6788 5.8386 12.8668 5.82762 13.192C5.81665 13.5172 6.07187 13.7408 6.49861 13.7408C6.92535 13.7408 7.18469 13.5254 7.16822 13.192C7.15176 12.8585 6.90614 12.6774 6.49587 12.6788ZM20.4919 13.7367C20.9035 13.7367 21.1588 13.5419 21.167 13.218C21.1752 12.8942 20.9104 12.6692 20.4809 12.6788C20.0693 12.6788 19.8195 12.8887 19.825 13.2126C19.8305 13.5364 20.0912 13.7381 20.4988 13.7367H20.4919Z" fill="#3357B4"/>
<path d="M2.51789 13.675C2.1628 13.6218 1.83313 13.4592 1.57486 13.2098C1.31658 12.9604 1.14259 12.6366 1.07712 12.2836C1.04694 12.1022 1.03271 11.9186 1.03459 11.7347C1.03459 10.1695 1.03459 8.60345 1.03459 7.03644C1.03459 5.77268 1.77418 5.0372 3.03794 5.03308C3.61013 5.03308 4.18095 5.03308 4.75314 5.03308C5.26221 5.03308 5.47902 4.87117 5.62446 4.38405C5.91811 3.40021 6.20626 2.41363 6.49716 1.42842C6.78806 0.443208 7.40004 0 8.41269 0H18.5969C19.6027 0 20.2174 0.466534 20.5042 1.43802C20.791 2.40951 21.0777 3.38924 21.3673 4.3621C21.5196 4.87254 21.7323 5.03171 22.2564 5.03446C22.8629 5.03446 23.468 5.03446 24.0745 5.03446C25.1915 5.04818 25.9544 5.79601 25.9626 6.9102C25.9754 8.56777 25.9754 10.2249 25.9626 11.8815C25.9558 12.8242 25.3067 13.5954 24.4958 13.6653C24.6742 10.5903 22.1398 9.1084 20.2929 9.22778C18.1262 9.365 16.3136 11.216 16.5441 13.7093H10.4682C10.685 11.0198 8.6542 9.24013 6.5246 9.22641C4.39501 9.21268 2.33265 10.9841 2.51789 13.675ZM12.193 2.52752C11.0788 2.52752 10.0058 2.52752 8.93274 2.52752C8.69262 2.52752 8.59794 2.60436 8.53344 2.83214C8.16022 4.13706 7.76778 5.43924 7.38357 6.73868C7.36299 6.8114 7.35476 6.88687 7.33829 6.9692H12.193V2.52752ZM14.8001 6.95823H19.6768C19.2541 5.52569 18.8452 4.12609 18.4171 2.7306C18.3822 2.67532 18.3349 2.62894 18.2789 2.59512C18.2229 2.5613 18.1598 2.54097 18.0947 2.53575C17.4552 2.51791 16.8158 2.52752 16.1736 2.52752H14.8015L14.8001 6.95823ZM12.4866 8.41546H10.899V9.44595H12.4866V8.41546Z" fill="#3357B4"/>
</g>
<defs>
<clipPath id="clip0_434_1887">
<rect width="27" height="34.0543" fill="white"/>
</clipPath>
</defs>
</svg>
