<svg width="69" height="43" viewBox="0 0 69 43" fill="none" xmlns="http://www.w3.org/2000/svg">
<g clip-path="url(#clip0_431_1683)">
<path d="M0 32.0649C0.389851 31.4635 0.809554 30.8819 1.25753 30.3224C2.63562 28.7416 4.01918 27.1608 5.47945 25.6457C7.74247 23.2621 10.2931 21.2895 13.6137 20.6183C17.3583 19.8291 21.2366 19.9371 24.9315 20.9334C26.6447 21.446 28.4747 21.4154 30.1699 20.8457C31.5945 20.3608 33.0493 19.9717 34.4931 19.5443C36.2548 19.0211 37.7315 19.4758 38.9151 20.8731C39.4767 21.5334 40.011 22.2101 40.5589 22.8923C41.3041 23.8457 41.0767 24.8348 39.9808 25.358C38.8137 25.9197 37.6356 26.4539 36.474 27.0019C34.5836 24.4841 32.4849 23.758 30.2329 24.8101C27.9808 25.8621 27.2192 27.9745 27.9425 30.9772L15.5233 36.769C13.463 34.0649 11.3973 33.3553 9.08767 34.5197C6.87671 35.632 6.10411 37.8594 6.97534 40.7471C6.15342 41.1224 5.31781 41.5471 4.45205 41.8704C4.12492 41.9924 3.76352 41.985 3.4417 41.8495C3.11987 41.7141 2.86192 41.4609 2.72055 41.1416C2.32066 40.4249 1.97893 39.6773 1.69863 38.906C1.56438 38.495 1.69863 37.9937 1.73151 37.5361C1.73151 37.2621 1.86027 36.958 1.76438 36.7389C1.20274 35.443 0.594521 34.1717 0 32.9032V32.0649ZM13.8384 28.9964C13.726 28.7224 13.6712 28.5389 13.5945 28.3772C12.9288 26.9772 12.2685 25.58 11.5918 24.1854C11.2329 23.4539 10.8301 23.3279 10.1973 23.8512C8.8274 24.98 7.43562 26.0923 6.17534 27.3361C4.91507 28.58 3.8 30.0293 2.56986 31.3526C1.57534 32.4156 1.49863 32.1471 2.2274 33.6676C2.24658 33.7087 2.27123 33.7471 2.29041 33.7882C2.52877 34.2923 2.91233 34.4402 3.4137 34.2074C6.70137 32.6841 9.98904 31.1635 13.2548 29.6156C13.5014 29.4978 13.6603 29.2074 13.8384 28.9964ZM18.5479 21.6512C17.011 21.8402 15.4712 22.0074 13.9397 22.2265C13.0986 22.3498 12.9041 22.758 13.263 23.5306C13.8849 24.8758 14.5288 26.2128 15.1808 27.5471C15.5699 28.369 15.8164 28.4512 16.6274 28.0758C19.4 26.7854 22.1726 25.5032 24.9233 24.1745C25.0908 24.0863 25.2366 23.9619 25.3498 23.8102C25.4631 23.6585 25.5411 23.4834 25.5781 23.2978C25.5781 23.0786 25.1096 22.7224 24.789 22.6293C22.7556 22.0534 20.6601 21.725 18.5479 21.6512ZM3.83562 36.3772C4.44384 36.0512 5.01644 35.7854 5.53425 35.4402C5.59635 35.3426 5.63247 35.2306 5.63919 35.1151C5.6459 34.9995 5.62298 34.8842 5.5726 34.78C5.49076 34.6847 5.3875 34.6102 5.2713 34.5626C5.15509 34.515 5.02926 34.4956 4.90411 34.506C4.40651 34.6531 3.9337 34.8738 3.50137 35.1608C3.41631 35.2544 3.35401 35.3664 3.31932 35.4881C3.28463 35.6097 3.27848 35.7377 3.30137 35.8621C3.34794 36.0402 3.62466 36.1772 3.83562 36.3772ZM18.663 29.1115C18.5863 28.6074 18.326 28.3279 17.9151 28.4512C17.3979 28.6119 16.9062 28.8452 16.4548 29.1443C16.3685 29.2334 16.3067 29.3433 16.2755 29.4633C16.2443 29.5834 16.2447 29.7094 16.2767 29.8293C16.3515 29.9409 16.4526 30.0325 16.5711 30.0961C16.6895 30.1596 16.8217 30.1931 16.9562 30.1937C17.4668 30.0166 17.9565 29.7842 18.4164 29.5005C18.5562 29.4265 18.611 29.2074 18.6712 29.1115H18.663Z" fill="#3357B4"/>
<path d="M69 21.9635V36.0567C68.1781 36.0567 67.3781 36.0896 66.5918 36.032C66.422 36.032 66.2192 35.6978 66.1288 35.4841C64.5041 31.5471 59.5946 30.2786 56.4165 33.095C55.6603 33.7608 55.211 34.7745 54.6055 35.6183C54.4822 35.7937 54.2904 36.0402 54.1233 36.0457C52.8932 36.0813 51.6576 36.0649 50.3809 36.0649V34.7471C51.5973 34.3717 51.7124 34.1991 51.6877 32.8293C51.6713 31.969 51.4767 31.7635 50.4959 31.506C50.4959 29.7909 50.2905 28.0567 50.5452 26.3909C50.7444 25.1795 51.3631 24.0767 52.2931 23.2753C53.2232 22.474 54.4054 22.0252 55.6329 22.0074C60.0576 21.9032 64.4877 21.9635 69 21.9635Z" fill="#3357B4"/>
<path d="M64.1097 19.8539C62.0768 19.8539 60.096 19.8731 58.1151 19.832C57.9709 19.7962 57.8353 19.7322 57.7158 19.6438C57.5964 19.5555 57.4956 19.4444 57.4192 19.3169C53.801 13.8905 50.1864 8.4585 46.5754 3.02105C46.4083 2.769 46.211 2.53338 46.0275 2.29229L45.8357 2.33338C45.8005 2.5557 45.7777 2.77978 45.7672 3.00462C45.7672 8.2101 45.7672 13.4156 45.7508 18.6211C45.7508 19.169 45.9124 19.3553 46.4521 19.3115C46.948 19.2731 47.4494 19.3115 48.0302 19.3115C48.0598 20.074 48.0507 20.8375 48.0028 21.5991C47.9671 21.7442 47.8954 21.878 47.7944 21.9881C47.6933 22.0983 47.5662 22.1812 47.4247 22.2293C46.7508 22.2841 46.096 22.2594 45.8165 23.1663C46.0099 23.3514 46.1928 23.5471 46.3644 23.7526C46.7425 24.232 47.2247 24.6813 47.4439 25.2293C48.074 26.8019 46.6823 28.2786 44.8083 28.095C44.5036 28.0777 44.2066 27.9929 43.9386 27.8469C43.6706 27.7009 43.4384 27.4973 43.2586 27.2507C43.0788 27.0041 42.956 26.7206 42.899 26.4208C42.8419 26.121 42.8521 25.8123 42.9288 25.5169C42.9617 25.3717 43.1371 25.2594 43.2466 25.1306C43.3836 25.3087 43.5918 25.4649 43.6412 25.6621C43.9151 26.7032 44.7562 27.1882 45.6384 26.758C46.3288 26.4265 46.4987 25.8841 46.0576 25.2512C45.8384 24.9389 45.5288 24.7032 45.2795 24.3937C45.036 24.1279 44.827 23.8324 44.6576 23.5142C44.3124 22.7854 43.8987 22.2265 42.9727 22.3115C42.8697 22.333 42.7633 22.3314 42.6611 22.3067C42.5589 22.2821 42.4634 22.235 42.3816 22.1689C42.2998 22.1028 42.2337 22.0194 42.1881 21.9247C42.1425 21.8299 42.1185 21.7262 42.1179 21.6211C42.074 20.8758 42.1179 20.1279 42.1179 19.2923H44.3781V2.35804H42.7946V0.16626C44.2768 0.16626 45.7316 0.16626 47.1781 0.16626C47.3761 0.200782 47.5529 0.310793 47.6713 0.473109C53.1507 6.8658 58.6174 13.2704 64.0713 19.6868C64.0823 19.7005 64.0823 19.7279 64.1097 19.8539Z" fill="#3357B4"/>
<path d="M55.7451 37.7389C55.7342 37.1385 55.8434 36.5421 56.0664 35.9846C56.2894 35.4271 56.6217 34.9199 57.0437 34.4928C57.4657 34.0657 57.9689 33.7274 58.5237 33.4976C59.0784 33.2679 59.6735 33.1515 60.2739 33.1553C60.8797 33.1488 61.4807 33.2622 62.0424 33.489C62.6042 33.7158 63.1155 34.0516 63.5469 34.4768C63.9783 34.9021 64.3213 35.4086 64.5561 35.967C64.7909 36.5255 64.9129 37.1248 64.915 37.7306C64.902 38.9545 64.4079 40.1241 63.5394 40.9864C62.6709 41.8488 61.4978 42.3346 60.2739 42.3389C59.0638 42.328 57.9074 41.8376 57.0584 40.9752C56.2094 40.1129 55.7371 38.949 55.7451 37.7389ZM62.3342 37.7882C62.3448 37.395 62.2387 37.0076 62.0294 36.6746C61.8202 36.3417 61.517 36.0781 61.1581 35.9172C60.7993 35.7563 60.4009 35.7052 60.013 35.7703C59.6252 35.8355 59.2653 36.014 58.9788 36.2834C58.6923 36.5528 58.4919 36.901 58.403 37.2841C58.314 37.6671 58.3404 38.068 58.4789 38.4361C58.6175 38.8041 58.8618 39.123 59.1812 39.3524C59.5007 39.5818 59.8809 39.7115 60.2739 39.7252C60.8037 39.7407 61.3181 39.5455 61.7043 39.1824C62.0905 38.8193 62.317 38.318 62.3342 37.7882Z" fill="#3357B4"/>
<path d="M28.6466 28.9936C28.6401 28.2808 28.8457 27.5821 29.2373 26.9863C29.6289 26.3906 30.1888 25.9248 30.8458 25.6481C31.5028 25.3714 32.2273 25.2963 32.9271 25.4324C33.6269 25.5684 34.2704 25.9095 34.7759 26.4123C35.2813 26.915 35.6259 27.5567 35.7657 28.2558C35.9055 28.9548 35.8343 29.6797 35.5612 30.3382C35.288 30.9966 34.8252 31.559 34.2316 31.9538C33.638 32.3486 32.9404 32.558 32.2275 32.5553C31.2815 32.5539 30.3744 32.1788 29.7038 31.5117C29.0331 30.8446 28.6531 29.9396 28.6466 28.9936ZM32.1316 31.1252C32.4126 31.1295 32.6917 31.0784 32.9529 30.9749C33.2142 30.8713 33.4525 30.7173 33.6542 30.5217C33.856 30.326 34.0172 30.0926 34.1287 29.8346C34.2402 29.5767 34.2999 29.2993 34.3042 29.0183C34.3085 28.7373 34.2574 28.4582 34.1539 28.197C34.0503 27.9357 33.8963 27.6974 33.7007 27.4957C33.5051 27.2939 33.2716 27.1327 33.0137 27.0212C32.7557 26.9096 32.4783 26.85 32.1973 26.8457C31.9163 26.8414 31.6372 26.8925 31.376 26.996C31.1147 27.0995 30.8764 27.2535 30.6747 27.4492C30.4729 27.6448 30.3117 27.8783 30.2002 28.1362C30.0887 28.3942 30.029 28.6716 30.0247 28.9525C30.0204 29.2335 30.0715 29.5126 30.175 29.7739C30.2786 30.0351 30.4325 30.2734 30.6282 30.4752C30.8238 30.6769 31.0573 30.8382 31.3152 30.9497C31.5732 31.0612 31.8506 31.1208 32.1316 31.1252Z" fill="#3357B4"/>
<path d="M11.2987 35.1936C12.0031 35.2068 12.6877 35.4285 13.2661 35.8308C13.8444 36.2331 14.2905 36.7978 14.5478 37.4536C14.8051 38.1094 14.8622 38.8268 14.7118 39.5151C14.5614 40.2033 14.2103 40.8315 13.7028 41.3202C13.1954 41.8088 12.5544 42.136 11.861 42.2604C11.1676 42.3847 10.4528 42.3007 9.80719 42.0188C9.16156 41.7369 8.61402 41.2699 8.23383 40.6768C7.85364 40.0837 7.65788 39.3912 7.6713 38.6868C7.67805 38.2186 7.77747 37.7564 7.96381 37.3269C8.15016 36.8974 8.41974 36.509 8.757 36.1842C9.09426 35.8595 9.49251 35.6047 9.92876 35.4347C10.365 35.2647 10.8306 35.1827 11.2987 35.1936ZM11.2001 40.8923C11.4877 40.9026 11.7744 40.8548 12.0432 40.7518C12.3119 40.6489 12.5572 40.4928 12.7643 40.293C12.9714 40.0931 13.1361 39.8536 13.2486 39.5887C13.3612 39.3238 13.4191 39.039 13.4191 38.7512C13.4191 38.4634 13.3612 38.1785 13.2486 37.9136C13.1361 37.6487 12.9714 37.4092 12.7643 37.2094C12.5572 37.0096 12.3119 36.8535 12.0432 36.7505C11.7744 36.6476 11.4877 36.5998 11.2001 36.6101C10.6367 36.6233 10.1001 36.853 9.7017 37.2514C9.30325 37.6499 9.07357 38.1865 9.06034 38.7498C9.06107 39.3173 9.28664 39.8614 9.68769 40.263C10.0887 40.6646 10.6325 40.8908 11.2001 40.8923Z" fill="#3357B4"/>
</g>
<defs>
<clipPath id="clip0_431_1683">
<rect width="69" height="42.1753" fill="white" transform="translate(0 0.16626)"/>
</clipPath>
</defs>
</svg>
