<svg width="27" height="27" viewBox="0 0 27 27" fill="none" xmlns="http://www.w3.org/2000/svg">
<g clip-path="url(#clip0_434_1888)">
<path d="M27 9.84127C26.9743 10.5745 26.8263 11.2982 26.5619 11.9827C26.0948 13.2172 26.0587 14.573 26.4593 15.8305C26.6187 16.3819 26.7171 16.949 26.7529 17.5217C26.8748 19.13 26.128 20.2944 24.7931 21.1195C24.3854 21.3806 23.9623 21.6169 23.5261 21.8273C22.4847 22.3109 21.7282 23.0671 21.1519 24.0506C20.7771 24.6924 20.3436 25.2983 19.8569 25.8603C19.0249 26.8093 17.9327 27.1529 16.6906 26.9375C16.045 26.83 15.4081 26.6759 14.7848 26.4765C13.7528 26.116 12.6362 26.0732 11.5796 26.3537C10.9305 26.5322 10.2684 26.6597 9.59931 26.735C7.93305 26.9116 6.72329 26.1598 5.8675 24.7777C5.61327 24.3758 5.3823 23.9597 5.17575 23.5314C4.70184 22.5236 3.92367 21.6892 2.95048 21.1454C2.43837 20.8468 1.94663 20.5146 1.47848 20.1511C0.247133 19.1967 -0.203964 17.9289 0.0841769 16.41C0.188501 15.8627 0.329103 15.3229 0.505057 14.7942C0.872967 13.7178 0.90458 12.5551 0.595708 11.4603C0.424491 10.822 0.30219 10.1717 0.229866 9.51488C0.0658309 8.07897 0.736001 7.00177 1.81734 6.14647C2.23998 5.81407 2.70124 5.53377 3.19114 5.31164C4.31368 4.8308 5.24948 3.99917 5.85779 2.94181C6.181 2.37328 6.55137 1.83279 6.96503 1.32601C7.94277 0.135702 9.22375 -0.215465 10.699 0.118466C11.2246 0.235306 11.7431 0.382045 12.2519 0.557964C13.2826 0.924372 14.4026 0.958658 15.4539 0.655989C16.045 0.504631 16.6441 0.38667 17.2485 0.302667C18.7551 0.0667608 19.9173 0.692614 20.8282 1.83121C21.1771 2.26338 21.4711 2.737 21.7034 3.24127C22.1915 4.35939 23.032 5.28791 24.097 5.88579C24.7269 6.2479 25.3188 6.6723 25.8636 7.15258C26.6903 7.86999 27.0032 8.68759 27 9.84127ZM1.92418 17.1328L2.01699 17.1393C1.89504 17.8244 2.23282 18.2919 2.74328 18.6592C3.1542 18.964 3.58186 19.2456 4.02426 19.5027C5.38478 20.2649 6.44505 21.4665 7.03086 22.9098C7.3018 23.5498 7.73694 24.1071 8.29242 24.5256C8.39731 24.6078 8.51941 24.6652 8.64963 24.6937C9.35959 24.8299 10.0929 24.7783 10.7767 24.544C12.4084 23.9849 14.0196 24.0517 15.6244 24.6732C16.005 24.8066 16.3979 24.9019 16.7974 24.9576C17.6414 25.0998 18.3169 24.8294 18.7799 24.0872C19.0216 23.6984 19.2947 23.3332 19.5213 22.9325C20.2866 21.5754 21.4892 20.5166 22.9337 19.9282C23.576 19.6573 24.1347 19.2209 24.5524 18.6635C24.6325 18.5568 24.6874 18.4335 24.7132 18.3027C24.8478 17.6033 24.7964 16.8809 24.5643 16.2075C24.0042 14.5788 24.0689 12.9759 24.6906 11.3677C24.8266 10.9791 24.9228 10.5778 24.9776 10.1698C25.1147 9.34683 24.8395 8.69082 24.1197 8.23732C23.7398 7.99818 23.3772 7.72888 22.9876 7.50913C21.6157 6.74983 20.5458 5.5443 19.9562 4.09333C19.6902 3.46042 19.2618 2.90867 18.7141 2.49369C18.5866 2.39838 18.4389 2.33352 18.2824 2.3041C17.5615 2.16838 16.86 2.25994 16.1553 2.4603C15.5613 2.63256 14.9542 2.75649 14.3401 2.83085C13.3354 2.94504 12.3847 2.65635 11.4415 2.34396C11.0854 2.22245 10.7212 2.12634 10.3515 2.05635C9.45254 1.89692 8.69603 2.11129 8.19313 2.93965C7.96003 3.32313 7.69024 3.684 7.46577 4.07179C6.69749 5.4163 5.50093 6.46582 4.06635 7.05348C3.43346 7.32204 2.88099 7.74955 2.46269 8.29441C2.37361 8.40546 2.31155 8.53562 2.28139 8.67466C2.1381 9.36391 2.18282 10.0789 2.41089 10.745C2.99365 12.3878 2.91379 14.0036 2.28786 15.6291C2.1044 16.1063 2.04181 16.6298 1.92418 17.1328Z" fill="#3357B4"/>
<path d="M12.006 14.9041C12.292 14.6337 12.5726 14.3655 12.851 14.1048C14.2762 12.7497 15.7011 11.3939 17.1256 10.0373C17.4332 9.74432 17.7807 9.62906 18.1854 9.76263C18.8998 9.99746 19.0854 10.8797 18.5286 11.4172C17.7915 12.1292 17.0425 12.8262 16.2979 13.5296C15.1029 14.6578 13.9075 15.7853 12.7118 16.912C12.2132 17.3817 11.7135 17.3774 11.2214 16.898C10.3149 16.0136 9.40517 15.1325 8.50837 14.2384C7.93317 13.6642 8.13714 12.7713 8.88177 12.5601C9.27027 12.4524 9.60482 12.5601 9.8908 12.8456C10.5254 13.4696 11.1614 14.0908 11.7988 14.7091C11.8625 14.7738 11.9294 14.833 12.006 14.9041Z" fill="#3357B4"/>
</g>
<defs>
<clipPath id="clip0_434_1888">
<rect width="27" height="27" fill="white"/>
</clipPath>
</defs>
</svg>
