<svg width="34" height="35" viewBox="0 0 34 35" fill="none" xmlns="http://www.w3.org/2000/svg">
<g clip-path="url(#clip0_431_1700)">
<path d="M20.3947 20.4156C21.0315 20.4156 21.611 20.4012 22.1921 20.4156C24.7679 20.492 26.7738 22.1811 27.1081 24.698C27.2673 25.8586 27.167 27.0541 27.1861 28.2338C27.1861 28.5124 27.175 28.7926 27.202 29.0696C27.296 30.0614 27.9662 30.6313 28.9771 30.5931C29.9323 30.5581 30.5611 29.9356 30.5691 28.9661C30.5898 27.64 30.5691 26.3139 30.5771 24.9861C30.5771 23.6982 30.5691 22.4119 30.5771 21.1256C30.5822 21.0024 30.5598 20.8797 30.5116 20.7663C30.4634 20.6528 30.3906 20.5515 30.2985 20.4697C28.716 18.9 27.1394 17.3245 25.5687 15.7431C24.0595 14.2164 23.6265 12.4206 24.2951 10.3701C24.7122 9.08382 25.115 7.79272 25.5416 6.51117C25.5916 6.39921 25.6019 6.27356 25.571 6.15492C25.54 6.03628 25.4696 5.93172 25.3713 5.85846C24.8937 5.41589 24.4415 4.94944 23.9878 4.48298C23.273 3.74749 23.2635 2.75727 23.956 2.07272C24.6485 1.38817 25.6371 1.39135 26.3678 2.1173C28.1302 3.86848 29.9052 5.59737 31.6309 7.3788C33.1895 8.98511 33.9361 10.9831 33.9584 13.188C34.0094 18.4272 33.9839 23.6664 33.9696 28.9072C33.9696 31.604 32.0847 33.6832 29.4276 33.9729C26.8709 34.2563 24.5434 32.6643 23.9448 30.1951C23.8475 29.7694 23.7968 29.3343 23.7936 28.8977C23.7713 27.8231 23.7857 26.7485 23.7857 25.6739C23.7857 24.4353 23.1658 23.8134 21.9262 23.8081C21.4263 23.8081 20.9264 23.8081 20.3836 23.8081V24.3159C20.3836 25.8554 20.3836 27.3932 20.3836 28.9327C20.3708 31.7982 18.2121 33.9761 15.345 33.9936C11.9477 34.0127 8.55196 34.0031 5.15625 33.9936C2.18084 33.9888 0.0236981 31.8396 0.0189221 28.8372C0.00618626 21.8993 0.00618626 14.9614 0.0189221 8.02356C0.0189221 6.84549 -0.0527171 5.65309 0.0810095 4.48617C0.370751 1.94695 2.2286 0.141644 4.77577 0.0747808C8.38957 -0.0207382 12.0161 -0.0302901 15.6331 0.0779648C18.4382 0.159156 20.3772 2.34017 20.3915 5.14843C20.4027 9.47226 20.3915 13.7977 20.3915 18.1215L20.3947 20.4156ZM16.7984 13.266C16.808 13.1322 16.8239 13.016 16.8239 12.8998C16.8239 10.2348 16.8239 7.57037 16.8239 4.90645C16.8239 3.70928 16.2126 3.10433 15.0011 3.10273C11.711 3.10273 8.42354 3.10273 5.13874 3.10273C3.83332 3.10273 3.25065 3.68858 3.24906 5.00197C3.24906 7.61495 3.24906 10.2263 3.24906 12.8361C3.24906 12.9778 3.26339 13.1179 3.27135 13.2691L16.7984 13.266Z" fill="#3357B4"/>
</g>
<defs>
<clipPath id="clip0_431_1700">
<rect width="34" height="34.008" fill="white"/>
</clipPath>
</defs>
</svg>
